<?xml version="1.0" encoding="UTF-8" standalone="no"?>
<!-- Generator: Adobe Illustrator 22.1.0, SVG Export Plug-In . SVG Version: 6.00 Build 0)  -->

<svg
   xmlns:dc="http://purl.org/dc/elements/1.1/"
   xmlns:cc="http://creativecommons.org/ns#"
   xmlns:rdf="http://www.w3.org/1999/02/22-rdf-syntax-ns#"
   xmlns:svg="http://www.w3.org/2000/svg"
   xmlns="http://www.w3.org/2000/svg"
   xmlns:sodipodi="http://sodipodi.sourceforge.net/DTD/sodipodi-0.dtd"
   xmlns:inkscape="http://www.inkscape.org/namespaces/inkscape"
   version="1.1"
   id="Capa_1"
   x="0px"
   y="0px"
   viewBox="0 0 185 108"
   style="enable-background:new 0 0 185 108;"
   xml:space="preserve"
   sodipodi:docname="camino-lebaniego-185.svg"
   inkscape:version="0.92.1 r15371"><metadata
     id="metadata133"><rdf:RDF><cc:Work
         rdf:about=""><dc:format>image/svg+xml</dc:format><dc:type
           rdf:resource="http://purl.org/dc/dcmitype/StillImage" /></cc:Work></rdf:RDF></metadata><defs
     id="defs131" /><sodipodi:namedview
     pagecolor="#ffffff"
     bordercolor="#666666"
     borderopacity="1"
     objecttolerance="10"
     gridtolerance="10"
     guidetolerance="10"
     inkscape:pageopacity="0"
     inkscape:pageshadow="2"
     inkscape:window-width="1920"
     inkscape:window-height="1016"
     id="namedview129"
     showgrid="false"
     inkscape:zoom="4.2918919"
     inkscape:cx="120.87909"
     inkscape:cy="52.788672"
     inkscape:window-x="1920"
     inkscape:window-y="27"
     inkscape:window-maximized="1"
     inkscape:current-layer="Capa_1" /><style
     type="text/css"
     id="style2">
	.st0{fill:url(#SVGID_1_);}
	.st1{fill:url(#SVGID_2_);}
	.st2{fill:url(#SVGID_3_);}
	.st3{fill:url(#SVGID_4_);}
	.st4{fill:#2D2E82;}
</style><g
     id="g96"
     style="fill:#ffffff"><g
       id="g11"
       style="fill:#ffffff"><linearGradient
         id="SVGID_1_"
         gradientUnits="userSpaceOnUse"
         x1="317.0092"
         y1="527.0842"
         x2="361.2554"
         y2="482.838"
         gradientTransform="matrix(-0.7071 0.7071 -0.7071 -0.7071 737.4119 192.4845)"><stop
           offset="0"
           style="stop-color:#3AAA35"
           id="stop4" /><stop
           offset="1"
           style="stop-color:#B9CE00"
           id="stop6" /></linearGradient><path
         class="st0"
         d="M130.8,103.4c-2.3-2.3-3.1-5.3-3.1-8.3V55.5c0-3,1-6,3.2-8.3c2.1-2.1,4.8-3.3,7.5-3.3c0,0,14.4,0,14.9,0    c-1,0.1-2,0.6-2.8,1.3c-0.9,0.9-1.3,2-1.4,3.1c0,0,0,46.4,0,46.4c0,3.1-1,6.4-3.2,8.6C141.8,107.6,135,107.6,130.8,103.4z"
         id="path9"
         style="fill:#ffffff" /></g><g
       id="g22"
       style="fill:#ffffff"><linearGradient
         id="SVGID_2_"
         gradientUnits="userSpaceOnUse"
         x1="136.3659"
         y1="41.0463"
         x2="136.3659"
         y2="2.0455"><stop
           offset="0"
           style="stop-color:#29235C"
           id="stop13" /><stop
           offset="0"
           style="stop-color:#2D2E82"
           id="stop15" /><stop
           offset="1"
           style="stop-color:#35A8E0"
           id="stop17" /></linearGradient><path
         class="st1"
         d="M146.1,5.2c2.3,2.3,3.1,5.3,3.1,8.3l0,0v16c0,3-1,6-3.2,8.3c-2.1,2.1-4.8,3.2-7.5,3.3h-14.9    c1-0.1,2-0.6,2.8-1.3c0.9-0.9,1.3-1.9,1.4-3.1c0,0,0-22.9,0-22.9c0-3.1,1-6.4,3.2-8.6C135.1,1,141.9,1,146.1,5.2z"
         id="path20"
         style="fill:#ffffff" /></g><g
       id="g33"
       style="fill:#ffffff"><linearGradient
         id="SVGID_3_"
         gradientUnits="userSpaceOnUse"
         x1="-408.9432"
         y1="-69.2"
         x2="-386.0048"
         y2="-92.1384"
         gradientTransform="matrix(0.7071 0.7071 -0.7071 0.7071 391.0431 368.0608)"><stop
           offset="0"
           style="stop-color:#BD1622"
           id="stop24" /><stop
           offset="0.4"
           style="stop-color:#E84E1B"
           id="stop26" /><stop
           offset="1"
           style="stop-color:#F29100"
           id="stop28" /></linearGradient><path
         class="st2"
         d="M180.6,38.3c-1.9,1.9-4.7,2.6-7.1,2.6h-12.8c-2.5,0-5.1-0.8-7.1-2.8c-1.8-1.8-2.8-4.1-2.8-6.4    c0,0,0-12.3,0-12.7c0.1,0.9,0.5,1.7,1.1,2.4c0.7,0.7,1.7,1.1,2.6,1.2c0,0,18.7,0,18.7,0c2.5,0,5.5,0.9,7.3,2.8    C184.1,28.9,184.1,34.7,180.6,38.3z"
         id="path31"
         style="fill:#ffffff" /></g><g
       id="g42"
       style="fill:#ffffff"><linearGradient
         id="SVGID_4_"
         gradientUnits="userSpaceOnUse"
         x1="126.0805"
         y1="54.8735"
         x2="94.94"
         y2="54.8735"><stop
           offset="0.1"
           style="stop-color:#602483"
           id="stop35" /><stop
           offset="1"
           style="stop-color:#C04C96"
           id="stop37" /></linearGradient><path
         class="st3"
         d="M97.6,46.6c1.9-1.9,4.7-2.6,7.1-2.6h11.5c2.5,0,5.1,0.8,7.1,2.8c1.8,1.8,2.8,4.1,2.8,6.4c0,0,0,12.3,0,12.7    c-0.1-0.9-0.5-1.7-1.1-2.4c-0.7-0.7-1.7-1.1-2.6-1.2c0,0-17.4,0-17.4,0c-2.5,0-5.5-0.9-7.4-2.8C94,55.9,94,50.1,97.6,46.6z"
         id="path40"
         style="fill:#ffffff" /></g><g
       id="g62"
       style="fill:#ffffff"><path
         class="st4"
         d="M17.8,24.4c-1.7-1.1-3.6-1.7-5.6-1.7c-4.2,0-7.1,3.1-7.1,7.5c0,4.5,3,8.4,7.7,8.4c2.3,0,4.5-0.8,6.5-1.9h0.1    l-1.5,3.5c-1.4,0.7-3,0.9-4.6,0.9c-7.2,0-11.6-4-11.6-10.5c0-6.3,4.4-10.4,10.6-10.4c1.8,0,3.7,0.3,5.5,0.8V24.4z"
         id="path44"
         style="fill:#ffffff" /><path
         class="st4"
         d="M32.8,41c-2-0.1-4-0.7-4-3.2v-4.8c-0.9,0.5-1.9,0.7-2.9,0.9c-1.5,0.3-3.1,0.7-3.1,2.5c0,1.9,1.7,2.5,3.3,2.5    c0.7,0,1.5-0.2,2.2-0.4l-1.8,2.3c-0.5,0.1-1.1,0.2-1.6,0.2c-3.1,0-5.2-1.9-5.2-4.5c0-5.6,9.1-3,9.1-6.3c0-1.5-1.8-1.9-2.9-1.9    c-1.5,0-2.8,0.6-4.1,1.2l2-3l2-0.2c3.3,0,5.8,0.9,5.8,4.6v4.5c0,2.4,0.1,3.3,2.6,3.6L32.8,41z"
         id="path46"
         style="fill:#ffffff" /><path
         class="st4"
         d="M36.4,26.7c0.7,0,1.4,0,2-0.4h0.1v2.3c1.1-1.5,2.3-2.3,4.3-2.3c1.7,0,3.6,0.7,4.6,2.1    c0.8,1.2,0.8,3.1,0.8,4.5v4.4c0,1.4-0.2,2.5,1.2,3.2v0.1h-5.1v-0.1c1.3-0.8,1.2-1.9,1.2-3.2v-4.1c0-3.2-0.9-4.9-3.7-4.9    c-2.8,0-3.2,1.8-3.2,3.6v5.4c0,1.4-0.2,2.5,1.2,3.2v0.1h-5.1v-0.1c1.3-0.8,1.2-1.9,1.2-3.3V30c0-1.4,0.2-2.5-1.2-3.3v-0.1H36.4z"
         id="path48"
         style="fill:#ffffff" /><path
         class="st4"
         d="M55.5,34.7c0,1.2-0.4,4.3,2.9,4.3c0.4,0,0.8-0.2,1.2-0.3L58,40.9c-0.3,0.1-0.6,0.2-1,0.2    c-4.7,0-4.3-4.8-4.3-6v-6.3h-2.1v-1.1c2.9-0.5,3.6-2.6,3.6-5.4h1.2v4.5h2.8c0.4,0,0.8,0,1.2-0.2h0.1v2.8h-0.1    c-0.5-0.6-1.4-0.6-2.2-0.6h-1.8V34.7z"
         id="path50"
         style="fill:#ffffff" /><path
         class="st4"
         d="M73.4,41c-2-0.1-4-0.7-4-3.2v-4.8c-0.9,0.5-1.9,0.7-2.9,0.9c-1.5,0.3-3.1,0.7-3.1,2.5c0,1.9,1.7,2.5,3.3,2.5    c0.7,0,1.5-0.2,2.2-0.4l-1.8,2.3C66.6,40.9,66,41,65.5,41c-3.1,0-5.2-1.9-5.2-4.5c0-5.6,9.1-3,9.1-6.3c0-1.5-1.8-1.9-2.9-1.9    c-1.5,0-2.8,0.6-4.1,1.2l2-3l2-0.2c3.3,0,5.8,0.9,5.8,4.6v4.5c0,2.4,0.1,3.3,2.6,3.6L73.4,41z"
         id="path52"
         style="fill:#ffffff" /><path
         class="st4"
         d="M77.3,20.7c0.7,0,1.5,0,1.9-0.5h0.1v18.3c0.8,0.2,1.7,0.4,2.5,0.4c3.3,0,5.2-2.2,5.2-5.2    c0-2.9-1.5-5.2-4.5-5.2c-1,0-1.7,0.2-2.5,0.7l1.6-2.6c0.7-0.2,1.4-0.3,2.2-0.3c3.5,0,6.4,2.8,6.4,6.9c0,4.8-3.5,7.8-9,7.8    c-2.1,0-4-0.3-5.5-0.5v-0.1c1-0.4,0.9-1.4,0.9-2.4V24c0-1.4,0.2-2.5-1.1-3.2v-0.1H77.3z"
         id="path54"
         style="fill:#ffffff" /><path
         class="st4"
         d="M93.9,26.7c0.7,0,1.4,0,1.8-0.4h0.1v2.3c0.7-1.4,2.1-2.3,3.6-2.3l1.1,0.1v2.8c-0.3-0.4-0.9-0.5-1.4-0.5    c-2.3,0-3.3,1.2-3.3,4.3v4.2c0,1.4-0.2,2.5,1.2,3.3v0.1h-5.1v-0.1c1.3-0.8,1.2-1.9,1.2-3.3V30c0-1.4,0.2-2.5-1.1-3.2v-0.1H93.9z"
         id="path56"
         style="fill:#ffffff" /><path
         class="st4"
         d="M104.1,26.7c0.7,0,1.5,0,2-0.5h0.1v11.1c0,1.4-0.2,2.5,1.2,3.3v0.1h-5.1v-0.1c1.3-0.8,1.2-1.9,1.2-3.3V30    c0-1.4,0.2-2.5-1.2-3.2v-0.1H104.1z M104.6,24.8c-1.1,0-2-0.9-2-2c0-1.1,1-1.8,2-1.8c1,0,1.8,0.9,1.8,1.9    C106.5,23.9,105.7,24.8,104.6,24.8z"
         id="path58"
         style="fill:#ffffff" /><path
         class="st4"
         d="M121.6,41c-2.5,0.1-4.6-0.7-4.6-3.2v-4.8c-0.9,0.5-1.9,0.7-2.9,0.9c-1.5,0.3-3.1,0.7-3.1,2.5    c0,1.9,1.7,2.5,3.3,2.5c0.7,0,1.5-0.2,2.2-0.4l-1.8,2.3c-0.5,0.1-1.1,0.2-1.6,0.2c-3.1,0-5.2-1.9-5.2-4.5c0-5.6,9.1-3,9.1-6.3    c0-1.5-1.8-1.9-2.9-1.9c-1.5,0-2.8,0.6-4.1,1.2l2-3l2-0.2c3.3,0,5.8,0.9,5.8,4.6v4.5c0,2.4,0,3.3,2.7,3.6L121.6,41z"
         id="path60"
         style="fill:#ffffff" /></g><g
       id="g94"
       style="fill:#ffffff"><path
         class="st4"
         d="M86.4,74l-0.6,1.7c-0.3,0.1-0.6,0.2-0.7,0.2c-0.2,0-0.4,0.1-0.6,0.1c-0.2,0-0.4,0.1-0.6,0.1    c-0.2,0-0.4,0-0.5,0c-0.9,0-1.7-0.2-2.5-0.6c-0.8-0.4-1.5-1-2-1.7c-0.5-0.7-0.7-1.6-0.7-2.6c0-0.9,0.1-1.7,0.4-2.4    c0.3-0.7,0.8-1.3,1.5-1.8c0.7-0.5,1.7-0.7,2.9-0.7c0.4,0,0.9,0,1.4,0.1c0.5,0.1,0.9,0.1,1.3,0.2v1.7c-0.9-0.5-1.8-0.8-2.8-0.8    c-0.6,0-1.2,0.2-1.7,0.5c-0.5,0.3-0.8,0.8-1.1,1.3c-0.2,0.5-0.4,1.1-0.4,1.7c0,0.5,0.1,0.9,0.2,1.4c0.2,0.5,0.4,0.9,0.7,1.2    c0.3,0.4,0.7,0.7,1.1,0.9c0.4,0.2,0.9,0.3,1.4,0.3c0.4,0,0.7,0,1-0.1c0.3-0.1,0.7-0.2,1-0.3C85.7,74.4,86.1,74.2,86.4,74z"
         id="path64"
         style="fill:#ffffff" /><path
         class="st4"
         d="M93.3,75.2l-0.7,1c-0.4,0-0.7-0.1-1-0.2c-0.3-0.1-0.5-0.3-0.7-0.6c-0.2-0.2-0.2-0.5-0.2-0.9v-2.1    c-0.1,0.1-0.3,0.2-0.6,0.3c-0.3,0.1-0.6,0.1-1,0.2c-0.4,0.1-0.7,0.2-0.9,0.4C88.1,73.5,88,73.7,88,74c0,0.3,0.1,0.6,0.4,0.9    c0.3,0.2,0.6,0.4,1,0.4c0.1,0,0.2,0,0.3,0c0.1,0,0.3-0.1,0.4-0.1c0.2-0.1,0.3-0.1,0.4-0.1l-0.8,1.2c-0.1,0-0.2,0-0.4,0.1    c-0.2,0-0.3,0.1-0.4,0.1c-0.3,0-0.7-0.1-1-0.2c-0.3-0.1-0.6-0.3-0.8-0.5c-0.2-0.2-0.4-0.4-0.5-0.7c-0.1-0.3-0.2-0.5-0.2-0.8    c0-0.4,0.1-0.8,0.2-1c0.2-0.3,0.4-0.5,0.7-0.6c0.3-0.1,0.5-0.2,0.8-0.3c0.2,0,0.7-0.1,1.2-0.2c0.4-0.1,0.7-0.2,1-0.4    c0.3-0.2,0.4-0.3,0.4-0.5c0-0.2-0.1-0.3-0.2-0.5c-0.2-0.1-0.3-0.2-0.6-0.3c-0.2-0.1-0.4-0.1-0.6-0.1c-0.2,0-0.4,0-0.7,0.1    c-0.2,0.1-0.5,0.1-0.7,0.2c-0.3,0.1-0.4,0.2-0.6,0.2l1.1-1.4c0.1,0,0.2,0,0.4-0.1c0.2,0,0.4-0.1,0.5-0.1c0.7,0,1.3,0.2,1.8,0.5    c0.5,0.3,0.8,0.9,0.8,1.8v2.3c0,0.3,0,0.6,0.1,0.8c0.1,0.2,0.2,0.3,0.4,0.4C92.8,75.1,93,75.2,93.3,75.2z"
         id="path66"
         style="fill:#ffffff" /><path
         class="st4"
         d="M105.3,75.9h-2.9c0.2-0.1,0.4-0.2,0.5-0.3c0.1-0.1,0.2-0.2,0.2-0.4c0-0.1,0.1-0.3,0.1-0.6V72    c0-0.4-0.1-0.7-0.3-0.9c-0.2-0.3-0.4-0.4-0.6-0.6c-0.2-0.1-0.5-0.2-0.8-0.2c-0.2,0-0.5,0.1-0.7,0.2c-0.2,0.1-0.4,0.3-0.6,0.5    c-0.2,0.2-0.2,0.4-0.3,0.7v2.9c0,0.4,0,0.7,0.1,0.9c0.1,0.2,0.3,0.3,0.5,0.4H98c0.1,0,0.2-0.1,0.3-0.2c0.1-0.1,0.2-0.3,0.2-0.5    c0.1-0.2,0.1-0.4,0.1-0.7v-1.9c0-0.4,0-0.8-0.1-1.1c-0.1-0.3-0.2-0.6-0.4-0.8c-0.2-0.2-0.4-0.3-0.6-0.4c-0.2-0.1-0.4-0.1-0.6-0.1    c-0.3,0-0.5,0.1-0.7,0.2c-0.2,0.1-0.4,0.3-0.6,0.5c-0.1,0.2-0.2,0.5-0.2,0.7v3c0,0.3,0.1,0.5,0.2,0.8c0.1,0.2,0.3,0.4,0.5,0.4    h-2.7c0.2-0.1,0.4-0.2,0.5-0.5c0.1-0.2,0.2-0.5,0.2-0.8v-3.5c0-0.5,0-0.8-0.1-1.1c-0.1-0.2-0.2-0.5-0.5-0.7c0.2,0,0.4,0,0.6,0    c0.2,0,0.4,0,0.5,0c0.3,0,0.6-0.1,0.8-0.2v1.1c0.2-0.4,0.4-0.6,0.8-0.8c0.4-0.2,0.8-0.3,1.2-0.3c0.3,0,0.6,0.1,0.9,0.2    c0.3,0.1,0.6,0.3,0.8,0.5c0.2,0.2,0.4,0.5,0.5,0.7c0.1-0.3,0.3-0.5,0.6-0.7c0.3-0.2,0.6-0.4,0.9-0.5c0.3-0.1,0.7-0.2,1-0.2    c0.3,0,0.6,0.1,0.9,0.2c0.3,0.1,0.5,0.3,0.8,0.5c0.2,0.2,0.4,0.5,0.5,0.9c0.1,0.4,0.2,0.8,0.2,1.3v2.6c0,0.4,0.1,0.6,0.2,0.8    C104.7,75.7,105,75.8,105.3,75.9z"
         id="path68"
         style="fill:#ffffff" /><path
         class="st4"
         d="M108.2,75.9h-2.7c0.3-0.2,0.5-0.3,0.5-0.5c0.1-0.2,0.1-0.4,0.1-0.6v-4.2c0-0.3,0-0.5-0.1-0.6    c-0.1-0.1-0.1-0.2-0.2-0.3c-0.1-0.1-0.2-0.1-0.3-0.2h0.8c0.3,0,0.6,0,0.7,0c0.2,0,0.3-0.1,0.3-0.2v5.6c0,0.3,0,0.5,0.1,0.6    C107.7,75.6,107.9,75.7,108.2,75.9z M107.6,67.7c0,0.3-0.1,0.5-0.3,0.7c-0.2,0.2-0.4,0.3-0.7,0.3c-0.2,0-0.4-0.1-0.6-0.3    c-0.2-0.2-0.3-0.4-0.3-0.7c0-0.2,0.1-0.5,0.3-0.6c0.2-0.2,0.4-0.3,0.6-0.3c0.3,0,0.5,0.1,0.7,0.2    C107.5,67.2,107.6,67.4,107.6,67.7z"
         id="path70"
         style="fill:#ffffff" /><path
         class="st4"
         d="M115.7,75.9H113c0.2-0.1,0.4-0.3,0.5-0.4c0.1-0.2,0.1-0.5,0.1-0.9v-2.9c0-0.3-0.1-0.6-0.2-0.8    c-0.2-0.2-0.4-0.4-0.6-0.5c-0.3-0.1-0.5-0.2-0.8-0.2c-0.3,0-0.5,0.1-0.8,0.2c-0.2,0.2-0.4,0.4-0.6,0.6c-0.2,0.3-0.2,0.6-0.2,1v2.6    c0,0.3,0,0.5,0.1,0.7c0.1,0.2,0.1,0.3,0.3,0.4c0.1,0.1,0.3,0.2,0.5,0.2h-2.8c0.5-0.2,0.8-0.6,0.8-1.2v-4.1c0-0.4,0-0.6-0.1-0.8    c-0.1-0.2-0.2-0.3-0.4-0.4c0.1,0,0.3,0,0.5,0c0.2,0,0.3,0,0.4,0c0.4,0,0.7-0.1,0.8-0.3v1.1c0.1-0.2,0.3-0.4,0.5-0.5    c0.2-0.2,0.5-0.3,0.8-0.4c0.3-0.1,0.6-0.1,0.9-0.1c0.4,0,0.8,0.1,1.2,0.3c0.4,0.2,0.7,0.4,0.9,0.8c0.2,0.3,0.3,0.8,0.3,1.3v3    c0,0.3,0,0.5,0.1,0.7c0,0.2,0.1,0.3,0.2,0.4C115.4,75.7,115.5,75.8,115.7,75.9z"
         id="path72"
         style="fill:#ffffff" /><path
         class="st4"
         d="M122.9,72.6c0,0.6-0.2,1.2-0.5,1.8c-0.3,0.6-0.7,1-1.3,1.3c-0.6,0.3-1.2,0.5-1.9,0.5c-0.7,0-1.3-0.2-1.9-0.5    c-0.5-0.3-1-0.8-1.3-1.3c-0.3-0.5-0.4-1.1-0.4-1.7c0-0.6,0.2-1.2,0.5-1.8c0.3-0.5,0.8-1,1.4-1.3c0.6-0.3,1.2-0.5,1.9-0.5    c0.5,0,1,0.1,1.4,0.3c0.4,0.2,0.8,0.4,1.1,0.7c0.3,0.3,0.5,0.7,0.7,1.1C122.8,71.7,122.9,72.2,122.9,72.6z M121.5,72.8    c0-0.4-0.1-0.8-0.2-1.2c-0.2-0.4-0.4-0.7-0.7-1c-0.3-0.3-0.7-0.4-1.2-0.4c-0.5,0-0.9,0.1-1.2,0.3c-0.3,0.2-0.6,0.5-0.8,0.9    c-0.2,0.4-0.3,0.8-0.3,1.2c0,0.4,0.1,0.8,0.3,1.2c0.2,0.4,0.4,0.7,0.8,1c0.3,0.3,0.7,0.4,1.2,0.4c0.4,0,0.8-0.1,1.2-0.4    c0.3-0.2,0.6-0.6,0.7-0.9C121.4,73.5,121.5,73.2,121.5,72.8z"
         id="path74"
         style="fill:#ffffff" /><path
         class="st4"
         d="M69.8,84.9L69,86.8h-5.9c0.3-0.2,0.5-0.4,0.6-0.6c0.1-0.2,0.1-0.4,0.1-0.6v-0.3v-6.5c0-0.3,0-0.5-0.1-0.6    c0-0.1-0.1-0.2-0.3-0.4c-0.1-0.1-0.2-0.2-0.3-0.3H66c-0.1,0.1-0.2,0.2-0.3,0.2c-0.1,0.1-0.2,0.2-0.3,0.4c-0.1,0.2-0.1,0.4-0.1,0.7    v6.7c0.4,0.1,0.7,0.1,0.9,0.1c0.2,0,0.3,0,0.6,0c0.2,0,0.4,0,0.5,0c0.5,0,0.9-0.1,1.3-0.2C69,85.4,69.4,85.2,69.8,84.9z"
         id="path76"
         style="fill:#ffffff" /><path
         class="st4"
         d="M76.7,85.2l-0.6,1.4c-0.3,0.1-0.7,0.3-1,0.4c-0.4,0.1-0.7,0.1-1,0.1c-0.5,0-1.1-0.1-1.6-0.3    c-0.5-0.2-0.9-0.4-1.4-0.8c-0.4-0.3-0.7-0.7-0.9-1.1c-0.2-0.4-0.3-0.9-0.3-1.4c0-0.4,0.1-0.7,0.2-1.1c0.2-0.4,0.4-0.8,0.7-1.1    c0.3-0.3,0.7-0.6,1.2-0.9c0.5-0.2,1-0.3,1.6-0.3c0.6,0,1.2,0.1,1.6,0.4c0.5,0.3,0.9,0.6,1.2,1.1c0.3,0.5,0.4,1.1,0.4,1.8h-5.4    c0,0.5,0.1,1,0.4,1.4c0.3,0.4,0.7,0.7,1.1,1c0.5,0.2,1,0.4,1.7,0.4C75.4,86,76.1,85.7,76.7,85.2z M75.2,82.4    c0-0.2-0.1-0.4-0.3-0.6c-0.2-0.2-0.4-0.4-0.7-0.5c-0.3-0.1-0.5-0.2-0.8-0.2c-0.4,0-0.8,0.1-1.2,0.4c-0.4,0.2-0.6,0.6-0.7,1H75.2z"
         id="path78"
         style="fill:#ffffff" /><path
         class="st4"
         d="M84.1,83.4c0,0.7-0.2,1.4-0.5,1.9c-0.3,0.6-0.8,1-1.4,1.3c-0.6,0.3-1.3,0.5-2.1,0.5c-0.3,0-0.6,0-0.9,0    c-0.2,0-0.5-0.1-0.9-0.1c-0.4-0.1-0.6-0.1-0.7-0.1c-0.1,0-0.3,0-0.4-0.1c0.2,0,0.4-0.2,0.4-0.4c0.1-0.2,0.1-0.4,0.1-0.6v-7.1    c0-0.3-0.1-0.6-0.2-0.7c-0.1-0.2-0.3-0.3-0.5-0.4h0.9c0.6,0,1-0.1,1.1-0.2v8.6c0.1,0,0.3,0.1,0.4,0.1c0.1,0,0.2,0.1,0.3,0.1    c0.1,0,0.2,0,0.4,0c0.4,0,0.8-0.1,1.2-0.3c0.4-0.2,0.7-0.4,0.9-0.8c0.2-0.4,0.4-0.8,0.4-1.3c0-0.5-0.1-1-0.3-1.4    c-0.2-0.4-0.5-0.6-0.8-0.8c-0.3-0.2-0.6-0.2-0.9-0.2c-0.4,0-0.9,0.1-1.3,0.3l0.8-1.2c0.2,0,0.3-0.1,0.4-0.1c0.1,0,0.2-0.1,0.3-0.1    c0.1,0,0.2,0,0.3,0c0.5,0,1.1,0.2,1.5,0.5c0.5,0.3,0.9,0.7,1.1,1.3C83.9,82.3,84.1,82.8,84.1,83.4z"
         id="path80"
         style="fill:#ffffff" /><path
         class="st4"
         d="M91.3,86l-0.7,1c-0.4,0-0.7-0.1-1-0.2c-0.3-0.1-0.5-0.3-0.7-0.6c-0.2-0.2-0.2-0.5-0.2-0.9v-2.1    c-0.1,0.1-0.3,0.2-0.6,0.3c-0.3,0.1-0.6,0.1-1,0.2c-0.4,0.1-0.7,0.2-0.9,0.4c-0.2,0.2-0.3,0.4-0.3,0.7c0,0.3,0.1,0.6,0.4,0.9    c0.3,0.2,0.6,0.4,1,0.4c0.1,0,0.2,0,0.3,0c0.1,0,0.3-0.1,0.4-0.1c0.2-0.1,0.3-0.1,0.4-0.1l-0.8,1.2c-0.1,0-0.2,0-0.4,0.1    c-0.2,0-0.3,0.1-0.4,0.1c-0.3,0-0.7-0.1-1-0.2c-0.3-0.1-0.6-0.3-0.8-0.5c-0.2-0.2-0.4-0.4-0.5-0.7c-0.1-0.3-0.2-0.5-0.2-0.8    c0-0.4,0.1-0.8,0.2-1c0.2-0.3,0.4-0.5,0.7-0.6c0.3-0.1,0.5-0.2,0.8-0.3c0.2,0,0.7-0.1,1.2-0.2c0.4-0.1,0.7-0.2,1-0.4    c0.3-0.2,0.4-0.3,0.4-0.5c0-0.2-0.1-0.3-0.2-0.4c-0.2-0.1-0.3-0.2-0.6-0.3c-0.2-0.1-0.4-0.1-0.6-0.1c-0.2,0-0.4,0-0.7,0.1    c-0.2,0.1-0.5,0.1-0.7,0.2c-0.3,0.1-0.4,0.2-0.6,0.2l1.1-1.4c0.1,0,0.2,0,0.4-0.1c0.2,0,0.4-0.1,0.5-0.1c0.7,0,1.3,0.2,1.8,0.5    c0.5,0.3,0.8,0.9,0.8,1.8v2.3c0,0.3,0,0.6,0.1,0.8c0.1,0.2,0.2,0.3,0.4,0.4C90.7,86,90.9,86,91.3,86z"
         id="path82"
         style="fill:#ffffff" /><path
         class="st4"
         d="M98.4,86.7h-2.7c0.2-0.1,0.4-0.3,0.5-0.4c0.1-0.2,0.2-0.5,0.2-0.9v-2.9c0-0.3-0.1-0.6-0.2-0.8    c-0.2-0.2-0.4-0.4-0.6-0.5C95.3,81.1,95,81,94.7,81c-0.3,0-0.5,0.1-0.8,0.2c-0.2,0.2-0.4,0.4-0.6,0.6c-0.2,0.3-0.2,0.6-0.2,0.9    v2.6c0,0.3,0,0.5,0.1,0.7c0.1,0.2,0.1,0.3,0.3,0.4c0.1,0.1,0.3,0.2,0.5,0.2h-2.8c0.5-0.2,0.8-0.6,0.8-1.2v-4.1    c0-0.4,0-0.6-0.1-0.8c-0.1-0.2-0.2-0.3-0.4-0.4c0.1,0,0.3,0,0.5,0c0.2,0,0.4,0,0.4,0c0.4,0,0.7-0.1,0.8-0.3v1.1    c0.1-0.2,0.3-0.4,0.5-0.5c0.2-0.2,0.5-0.3,0.8-0.4c0.3-0.1,0.6-0.1,0.9-0.1c0.4,0,0.8,0.1,1.2,0.3c0.4,0.2,0.7,0.4,0.9,0.8    c0.2,0.3,0.3,0.8,0.3,1.3v3c0,0.3,0,0.5,0.1,0.7c0,0.2,0.1,0.3,0.2,0.4C98.1,86.6,98.2,86.7,98.4,86.7z"
         id="path84"
         style="fill:#ffffff" /><path
         class="st4"
         d="M101.3,86.7h-2.7c0.3-0.2,0.5-0.3,0.5-0.5c0.1-0.2,0.1-0.4,0.1-0.6v-4.2c0-0.3,0-0.5-0.1-0.6    c-0.1-0.1-0.1-0.2-0.2-0.3c-0.1-0.1-0.2-0.1-0.3-0.2h0.8c0.3,0,0.6,0,0.7,0c0.2,0,0.3-0.1,0.3-0.2v5.6c0,0.3,0,0.5,0.1,0.6    C100.9,86.4,101.1,86.6,101.3,86.7z M100.8,78.5c0,0.3-0.1,0.5-0.3,0.7c-0.2,0.2-0.4,0.3-0.7,0.3c-0.2,0-0.4-0.1-0.6-0.3    c-0.2-0.2-0.3-0.4-0.3-0.7c0-0.2,0.1-0.5,0.3-0.6c0.2-0.2,0.4-0.3,0.6-0.3c0.3,0,0.5,0.1,0.7,0.2C100.7,78,100.8,78.2,100.8,78.5z    "
         id="path86"
         style="fill:#ffffff" /><path
         class="st4"
         d="M108.2,85.2l-0.6,1.4c-0.3,0.1-0.7,0.3-1,0.4c-0.4,0.1-0.7,0.1-1,0.1c-0.5,0-1.1-0.1-1.6-0.3    c-0.5-0.2-0.9-0.4-1.4-0.8c-0.4-0.3-0.7-0.7-0.9-1.1c-0.2-0.4-0.3-0.9-0.3-1.4c0-0.4,0.1-0.7,0.2-1.1c0.2-0.4,0.4-0.8,0.7-1.1    c0.3-0.3,0.7-0.6,1.2-0.9c0.5-0.2,1-0.3,1.6-0.3c0.6,0,1.2,0.1,1.6,0.4s0.9,0.6,1.2,1.1c0.3,0.5,0.4,1.1,0.4,1.8h-5.4    c0,0.5,0.1,1,0.4,1.4c0.3,0.4,0.7,0.7,1.1,1c0.5,0.2,1,0.4,1.7,0.4C106.9,86,107.6,85.7,108.2,85.2z M106.7,82.4    c0-0.2-0.1-0.4-0.3-0.6c-0.2-0.2-0.4-0.4-0.7-0.5c-0.3-0.1-0.5-0.2-0.8-0.2c-0.4,0-0.8,0.1-1.2,0.4c-0.4,0.2-0.6,0.6-0.7,1H106.7z    "
         id="path88"
         style="fill:#ffffff" /><path
         class="st4"
         d="M116.1,80c-0.1,0.4-0.2,0.8-0.3,1c-0.2,0.2-0.4,0.3-0.7,0.3c-0.1,0-0.3,0-0.6-0.1c-0.3-0.1-0.5-0.1-0.5-0.1    c0.3,0.2,0.5,0.4,0.7,0.7c0.2,0.3,0.3,0.6,0.3,0.9c0,0.9-0.4,1.6-1.2,1.9c-0.3,0.1-0.6,0.2-1.1,0.3c-0.5,0.1-0.8,0.2-1,0.2    c-0.2,0.1-0.3,0.2-0.3,0.3c0,0.1,0.1,0.1,0.2,0.1c0.1,0,0.4,0,0.7,0.1c0.4,0,0.7,0.1,1.1,0.1c0.4,0,0.7,0.1,1,0.2    c0.4,0.1,0.8,0.3,1.1,0.6c0.3,0.2,0.4,0.5,0.4,0.9c0,0.3-0.1,0.7-0.3,1c-0.2,0.3-0.6,0.7-1.2,0.9c-0.6,0.3-1.4,0.4-2.5,0.4    c-0.6,0-1.2-0.1-1.8-0.2c-0.6-0.1-1.1-0.4-1.5-0.6c-0.4-0.3-0.6-0.6-0.6-1c0-0.4,0.1-0.6,0.4-0.8c0.3-0.2,0.6-0.3,1-0.3    c0.2,0,0.4,0,0.5,0.1c0.1,0.1,0.2,0.1,0.2,0.2c-0.1,0-0.2,0.1-0.3,0.2c-0.1,0.1-0.1,0.3-0.1,0.4c0,0.3,0.2,0.6,0.5,0.8    c0.4,0.2,0.9,0.4,1.7,0.4c0.8,0,1.5-0.1,1.9-0.4c0.4-0.2,0.7-0.6,0.7-1c0-0.4-0.3-0.6-0.8-0.7c-0.5-0.1-1.2-0.2-2-0.2    c-0.1,0-0.3,0-0.5,0c-0.2,0-0.4,0-0.5,0c-0.3,0-0.5-0.1-0.7-0.3c-0.2-0.2-0.4-0.4-0.4-0.6c0-0.2,0.1-0.3,0.2-0.5    c0.2-0.1,0.4-0.2,0.7-0.3c-0.4-0.1-0.7-0.3-1-0.6c-0.3-0.3-0.5-0.5-0.6-0.9c-0.1-0.3-0.2-0.7-0.2-1c0-0.4,0.1-0.7,0.4-1.1    c0.2-0.4,0.6-0.7,1.1-0.9c0.5-0.2,1.1-0.3,1.7-0.3H116.1z M113.3,82.7c0-0.2-0.1-0.5-0.2-0.7c-0.2-0.2-0.4-0.5-0.6-0.6    c-0.2-0.2-0.5-0.2-0.7-0.2c-0.5,0-0.9,0.1-1.2,0.4c-0.3,0.2-0.4,0.6-0.4,0.9c0,0.3,0.1,0.5,0.3,0.8c0.2,0.3,0.4,0.5,0.7,0.7    c0.3,0.2,0.5,0.3,0.8,0.3c0.2,0,0.4-0.1,0.6-0.2c0.2-0.1,0.4-0.3,0.5-0.5C113.2,83.2,113.3,82.9,113.3,82.7z"
         id="path90"
         style="fill:#ffffff" /><path
         class="st4"
         d="M122.9,83.5c0,0.6-0.2,1.2-0.5,1.8c-0.3,0.6-0.7,1-1.3,1.3c-0.6,0.3-1.2,0.5-1.9,0.5c-0.7,0-1.3-0.2-1.9-0.5    c-0.5-0.3-1-0.8-1.3-1.3c-0.3-0.5-0.4-1.1-0.4-1.7c0-0.6,0.2-1.2,0.5-1.8c0.3-0.5,0.8-1,1.4-1.3c0.6-0.3,1.2-0.5,1.9-0.5    c0.5,0,1,0.1,1.4,0.3c0.4,0.2,0.8,0.4,1.1,0.7c0.3,0.3,0.5,0.7,0.7,1.1C122.8,82.6,122.9,83,122.9,83.5z M121.5,83.6    c0-0.4-0.1-0.8-0.2-1.2c-0.2-0.4-0.4-0.7-0.7-1c-0.3-0.3-0.7-0.4-1.2-0.4c-0.5,0-0.9,0.1-1.2,0.3c-0.3,0.2-0.6,0.5-0.8,0.9    c-0.2,0.4-0.3,0.8-0.3,1.2c0,0.4,0.1,0.8,0.3,1.2c0.2,0.4,0.4,0.7,0.8,1c0.3,0.3,0.7,0.4,1.2,0.4c0.4,0,0.8-0.1,1.2-0.4    c0.3-0.2,0.6-0.6,0.7-0.9C121.4,84.4,121.5,84,121.5,83.6z"
         id="path92"
         style="fill:#ffffff" /></g></g><g
     id="g98" /><g
     id="g100" /><g
     id="g102" /><g
     id="g104" /><g
     id="g106" /><g
     id="g108" /><g
     id="g110" /><g
     id="g112" /><g
     id="g114" /><g
     id="g116" /><g
     id="g118" /><g
     id="g120" /><g
     id="g122" /><g
     id="g124" /><g
     id="g126" /></svg>