<?xml version="1.0" encoding="UTF-8" standalone="no"?>
<svg
   xmlns:dc="http://purl.org/dc/elements/1.1/"
   xmlns:cc="http://creativecommons.org/ns#"
   xmlns:rdf="http://www.w3.org/1999/02/22-rdf-syntax-ns#"
   xmlns:svg="http://www.w3.org/2000/svg"
   xmlns="http://www.w3.org/2000/svg"
   xmlns:sodipodi="http://sodipodi.sourceforge.net/DTD/sodipodi-0.dtd"
   xmlns:inkscape="http://www.inkscape.org/namespaces/inkscape"
   version="1.1"
   id="Capa_1"
   width="61.624062"
   x="0px"
   y="0px"
   viewBox="0 0 136.6 106.42106"
   xml:space="preserve"
   sodipodi:docname="gobiernocantabria_nuevo_logo.svg"
   height="106.42106"
   inkscape:version="0.92.4 (5da689c313, 2019-01-14)"><metadata
   id="metadata5903"><rdf:RDF><cc:Work
       rdf:about=""><dc:format>image/svg+xml</dc:format><dc:type
         rdf:resource="http://purl.org/dc/dcmitype/StillImage" /><dc:title></dc:title></cc:Work></rdf:RDF></metadata><defs
   id="defs5901" /><sodipodi:namedview
   pagecolor="#ffffff"
   bordercolor="#666666"
   borderopacity="1"
   objecttolerance="10"
   gridtolerance="10"
   guidetolerance="10"
   inkscape:pageopacity="0"
   inkscape:pageshadow="2"
   inkscape:window-width="1920"
   inkscape:window-height="1017"
   id="namedview5899"
   showgrid="false"
   fit-margin-top="0"
   fit-margin-left="0"
   fit-margin-right="0"
   fit-margin-bottom="0"
   inkscape:zoom="6.6974106"
   inkscape:cx="64.534712"
   inkscape:cy="58.298728"
   inkscape:window-x="-8"
   inkscape:window-y="-8"
   inkscape:window-maximized="1"
   inkscape:current-layer="Capa_1" />
    <style
   type="text/css"
   id="style5832">
	.st0{fill:#E61C29;}
	.st1{fill:#1C98D6;}
	.st2{fill:#FDD700;}
    </style>
    <g
   id="g5896"
   transform="translate(-38,-87.739474)">
        
        <g
   id="g5894">
            <g
   id="g5890">
                <path
   class="st0"
   d="M 174.5,105.6 H 38 v 83.9 0 c 0,0.4 0,0.8 0,1.2 0,37.7 30.6,68.2 68.2,68.2 37.6,0 68.2,-30.6 68.2,-68.2 0,-0.4 0,-0.8 0,-1.2 v 0 -83.9 z m -17.2,82 v 0 c 0,0.3 0,0.6 0,0.9 0,28.2 -22.9,51.1 -51.1,51.1 -28.2,0 -51.1,-22.9 -51.1,-51.1 0,-0.3 0,-0.6 0,-0.9 H 55 v -62.8 h 102.2 v 62.8 z"
   id="path5874"
   inkscape:connector-curvature="0"
   style="fill:#e61c29" />
                <g
   id="g5888">
                    <g
   id="g5880">
                        <circle
   class="st0"
   cx="97.199997"
   cy="147.8"
   r="7.3000002"
   id="circle5876"
   style="fill:#e61c29" />
                        <circle
   class="st0"
   cx="78"
   cy="147.8"
   r="7.3000002"
   id="circle5878"
   style="fill:#e61c29" />
                    </g>
                    <path
   class="st0"
   d="m 70.4,189.8 c 0,19.8 16,35.8 35.8,35.8 19.8,0 35.8,-16 35.8,-35.8 z m 35.8,22.7 c -4,0 -7.3,-3.3 -7.3,-7.3 0,-4 3.3,-7.3 7.3,-7.3 4,0 7.3,3.3 7.3,7.3 0,4 -3.2,7.3 -7.3,7.3 z"
   id="path5882"
   inkscape:connector-curvature="0"
   style="fill:#e61c29" />
                    <rect
   x="70.400002"
   y="166.60001"
   class="st1"
   width="71.599998"
   height="12.5"
   id="rect5884"
   style="fill:#1c98d6" />
                    <polygon
   class="st0"
   points="113,151.3 113,157.1 142,157.1 142,151.3 142,144.5 142,138.4 132.2,138.4 132.2,144.5 122.8,144.5 122.8,138.4 113,138.4 113,144.5 "
   id="polygon5886"
   style="fill:#e61c29" />
                </g>
            </g>
            <path
   class="st2"
   d="m 145.3,60.4 c -5.3,0 -10.1,1.4 -14.4,3.7 -5,-5.2 -11.4,-8.8 -18.7,-10.1 V 43.9 h 7.3 V 31.6 h -7.3 V 23 h -12 v 8.6 H 92.9 V 44 h 7.3 V 54 C 92.9,55.3 86.5,58.9 81.5,64.1 77.3,61.8 72.4,60.4 67.1,60.4 51,60.4 38,72.9 38,88.4 c 0,0 0,0.1 0,0.1 v 5.7 h 16.8 v -4.1 c 0,-6.6 5.5,-11.9 12.4,-11.9 2,0 4,0.5 5.7,1.3 -0.8,2.9 -1.2,5.9 -1.3,9 v 0 5.7 h 17 v -5.5 c 0,-10 7.9,-18.2 17.7,-18.2 9.8,0 17.7,8.1 17.7,18.2 v 5.5 h 17 v -5.7 0 c 0,-3.1 -0.5,-6.1 -1.3,-9 1.7,-0.8 3.6,-1.3 5.7,-1.3 6.8,0 12.4,5.3 12.4,11.9 v 4.1 h 16.8 v -5.7 c 0,0 0,-0.1 0,-0.1 -0.1,-15.5 -13.2,-28 -29.3,-28 z"
   id="path5892"
   inkscape:connector-curvature="0"
   style="fill:#fdd700" />
        </g>
    </g>
</svg>