<?xml version="1.0" encoding="UTF-8" standalone="no"?>
<svg
   xmlns:dc="http://purl.org/dc/elements/1.1/"
   xmlns:cc="http://creativecommons.org/ns#"
   xmlns:rdf="http://www.w3.org/1999/02/22-rdf-syntax-ns#"
   xmlns:svg="http://www.w3.org/2000/svg"
   xmlns="http://www.w3.org/2000/svg"
   xmlns:sodipodi="http://sodipodi.sourceforge.net/DTD/sodipodi-0.dtd"
   xmlns:inkscape="http://www.inkscape.org/namespaces/inkscape"
   version="1.1"
   id="Capa_1"
   width="140"
   x="0px"
   y="0px"
   viewBox="0 0 310.33333 60.000001"
   xml:space="preserve"
   sodipodi:docname="gobiernocantabria_nuevo_texto.svg"
   height="60"
   inkscape:version="0.92.4 (5da689c313, 2019-01-14)"><metadata
     id="metadata959"><rdf:RDF><cc:Work
         rdf:about=""><dc:format>image/svg+xml</dc:format><dc:type
           rdf:resource="http://purl.org/dc/dcmitype/StillImage" /><dc:title /></cc:Work></rdf:RDF></metadata><defs
     id="defs957" /><sodipodi:namedview
     pagecolor="#ffffff"
     bordercolor="#666666"
     borderopacity="1"
     objecttolerance="10"
     gridtolerance="10"
     guidetolerance="10"
     inkscape:pageopacity="0"
     inkscape:pageshadow="2"
     inkscape:window-width="1920"
     inkscape:window-height="1017"
     id="namedview955"
     showgrid="false"
     fit-margin-top="0"
     fit-margin-left="0"
     fit-margin-right="0"
     fit-margin-bottom="0"
     inkscape:zoom="6.1369281"
     inkscape:cx="71.051872"
     inkscape:cy="5.5810898"
     inkscape:window-x="-8"
     inkscape:window-y="-8"
     inkscape:window-maximized="1"
     inkscape:current-layer="g952" /><style
     type="text/css"
     id="style888">
	.st0{fill:#E61C29;}
	.st1{fill:#1C98D6;}
	.st2{fill:#FDD700;}
    </style><g
     id="g952"
     transform="translate(-206.13322,-73.082712)"><g
       id="g928"
       transform="matrix(0.72694039,0,0,0.86854582,58.989139,-26.807195)"><path
         d="m 253,144.3 c 0,14.1 -9,23.7 -23.3,23.7 -14.7,0 -24.4,-9.5 -24.4,-23.7 0,-14.2 9.6,-23.7 24.4,-23.7 6.9,0 12.7,1.9 16.8,5.2 l -7.2,6.9 c -2,-2 -5.2,-3.1 -9.5,-3.1 -7.9,0 -13.2,5.9 -13.2,14.7 0,8.8 5.2,14.7 13.2,14.7 6.5,0 10.8,-3.7 11.7,-9.4 h -10.4 v -9 h 21.8 c 0,1.2 0.1,2.4 0.1,3.7 z"
         id="path890"
         inkscape:connector-curvature="0" /><path
         d="m 257.9,150.3 c 0,-10.5 7.5,-17.6 18.7,-17.6 11,0 18.5,7 18.5,17.6 0,10.6 -7.5,17.6 -18.5,17.6 -11.2,0.1 -18.7,-7 -18.7,-17.6 z m 26.2,0 c 0,-5.1 -3.1,-8.5 -7.6,-8.5 -4.6,0 -7.7,3.4 -7.7,8.5 0,5.1 3.1,8.5 7.7,8.5 4.6,0 7.6,-3.4 7.6,-8.5 z"
         id="path892"
         inkscape:connector-curvature="0" /><path
         d="m 339.3,150.5 c 0,10.5 -7.2,17.5 -16.2,17.5 -4.6,0 -8,-1.7 -10.3,-4.8 l -0.2,4.2 H 302.4 V 118.8 H 313 v 18.6 c 2.3,-2.9 5.7,-4.6 10.1,-4.6 9,-0.1 16.2,7.1 16.2,17.7 z m -10.9,-0.1 c 0,-5.1 -3.1,-8.6 -7.7,-8.6 -4.6,0 -7.7,3.5 -7.7,8.5 0,5.2 3.1,8.5 7.7,8.5 4.6,0 7.7,-3.4 7.7,-8.4 z"
         id="path894"
         inkscape:connector-curvature="0" /><path
         d="m 345.9,123.3 c 0,-3.6 2.6,-6.1 6.2,-6.1 3.6,0 6.1,2.6 6.1,6.1 0,3.6 -2.6,6.1 -6.1,6.1 -3.6,0 -6.2,-2.5 -6.2,-6.1 z m 0.8,10 h 10.6 v 34 h -10.6 z"
         id="path896"
         inkscape:connector-curvature="0" /><path
         d="M 399.3,154 H 376 c 0.6,3.5 2.5,5.6 6.5,5.6 2.9,0 5.2,-1.2 6.9,-3.1 l 8.2,4 c -2.9,4.4 -8.4,7.4 -15,7.4 -10.7,0 -17.9,-6.9 -17.9,-17.3 0,-10.7 6.9,-18 17.4,-18 10.4,0 17.4,6.8 17.4,17.1 0,1.5 -0.1,3.2 -0.2,4.3 z M 376,146.9 h 12.4 c -0.7,-3.9 -2.7,-5.9 -6.3,-5.9 -3.5,0 -5.4,2.1 -6.1,5.9 z"
         id="path898"
         inkscape:connector-curvature="0" /><path
         d="m 429,132.7 -0.7,9.7 c -6.5,0 -11,3 -11,7.4 v 17.5 h -10.6 v -34 h 10.2 l 0.2,4.1 c 2.7,-2.9 6.9,-4.7 11.9,-4.7 z"
         id="path900"
         inkscape:connector-curvature="0" /><path
         d="m 468.9,146 v 21.3 h -10.6 v -19.7 c 0,-3.6 -2.6,-5.9 -6.4,-5.9 -3.9,0 -6.5,2.3 -6.5,5.9 v 19.7 h -10.6 v -34 H 445 l 0.1,3.8 c 2.7,-3 6.5,-4.4 10.5,-4.4 8,0 13.3,5.3 13.3,13.3 z"
         id="path902"
         inkscape:connector-curvature="0" /><path
         d="m 475.8,150.3 c 0,-10.5 7.5,-17.6 18.7,-17.6 11,0 18.5,7 18.5,17.6 0,10.6 -7.5,17.6 -18.5,17.6 -11.2,0.1 -18.7,-7 -18.7,-17.6 z m 26.3,0 c 0,-5.1 -3.1,-8.5 -7.6,-8.5 -4.6,0 -7.7,3.4 -7.7,8.5 0,5.1 3.1,8.5 7.7,8.5 4.5,0 7.6,-3.4 7.6,-8.5 z"
         id="path904"
         inkscape:connector-curvature="0" /><path
         d="m 241.9,173.6 v 48.6 h -10.2 l -0.2,-4.2 c -2.3,3.1 -5.7,4.8 -10.4,4.8 -9,0 -16.2,-6.9 -16.2,-17.5 0,-10.6 7.2,-17.8 16.2,-17.8 4.4,0 7.8,1.7 10.1,4.6 v -18.6 h 10.7 z m -10.6,31.6 c 0,-5.1 -3.1,-8.5 -7.7,-8.5 -4.6,0 -7.7,3.5 -7.7,8.6 0,5.1 3.1,8.5 7.7,8.5 4.6,-0.1 7.7,-3.4 7.7,-8.6 z"
         id="path906"
         inkscape:connector-curvature="0" /><path
         d="m 283.8,208.9 h -23.3 c 0.6,3.5 2.5,5.6 6.5,5.6 2.9,0 5.2,-1.2 6.9,-3.1 l 8.2,4 c -2.9,4.4 -8.4,7.4 -15,7.4 -10.7,0 -17.9,-6.9 -17.9,-17.3 0,-10.7 6.9,-18 17.4,-18 10.4,0 17.4,6.8 17.4,17.1 0.1,1.5 -0.1,3.2 -0.2,4.3 z m -23.2,-7.1 H 273 c -0.7,-3.9 -2.7,-5.9 -6.3,-5.9 -3.5,0 -5.5,2.1 -6.1,5.9 z"
         id="path908"
         inkscape:connector-curvature="0" /><path
         d="m 306,199 c 0,-14.2 10,-23.5 25.1,-23.5 7.5,0 13.9,2.3 18.6,7.4 l -6.9,7 c -2.3,-3.2 -6.5,-5.4 -11.7,-5.4 -8.3,0 -13.8,5.9 -13.8,14.6 0,8.9 5.7,14.7 14,14.7 5.9,0 9.7,-2.6 12.5,-7 l 7.4,6.6 c -4.7,6.2 -11.5,9.4 -20.1,9.4 -15,0.1 -25.1,-9.6 -25.1,-23.8 z"
         id="path910"
         inkscape:connector-curvature="0" /><path
         d="m 386.5,200.9 v 21.3 h -10.2 l -0.1,-3.9 c -2.2,2.9 -5.7,4.5 -9.2,4.5 -7.2,0 -12,-4.4 -12,-10.9 0,-6.7 5.9,-11.1 14.7,-11.1 1.9,0 4.1,0.2 6.3,0.6 -0.1,-3.6 -2.7,-5.6 -7.2,-5.6 -2.9,0 -5.2,0.8 -7.2,2.2 l -4.5,-6.2 c 3.9,-2.8 8.3,-4.2 14.5,-4.2 8.9,0 14.9,5.3 14.9,13.3 z m -10.6,7.7 c -1.7,-0.3 -3.4,-0.5 -4.9,-0.5 -3.1,0 -5.1,1.5 -5.1,3.7 0,2.2 1.2,3.6 4.1,3.6 3.2,-0.1 5.8,-2.6 5.9,-6.8 z"
         id="path912"
         inkscape:connector-curvature="0" /><path
         d="m 429.4,200.9 v 21.3 h -10.6 v -19.7 c 0,-3.6 -2.6,-5.9 -6.4,-5.9 -3.9,0 -6.5,2.3 -6.5,5.9 v 19.7 h -10.6 v -34 h 10.2 l 0.1,3.8 c 2.7,-3 6.5,-4.4 10.5,-4.4 8,0 13.3,5.3 13.3,13.3 z"
         id="path914"
         inkscape:connector-curvature="0" /><path
         d="m 460.4,212.7 v 8.5 c -2.7,1.2 -5.9,1.7 -8.9,1.7 -6.6,0 -11.1,-4.6 -11.1,-11.4 V 196.9 H 435 v -8.7 h 5.4 v -10 H 451 v 10 h 8.9 v 8.7 H 451 v 12.3 c 0,2.7 1.6,4.5 3.9,4.5 1.9,0 3.7,-0.3 5.5,-1 z"
         id="path916"
         inkscape:connector-curvature="0" /><path
         d="m 496.8,200.9 v 21.3 h -10.2 l -0.1,-3.9 c -2.2,2.9 -5.7,4.5 -9.2,4.5 -7.2,0 -12,-4.4 -12,-10.9 0,-6.7 5.9,-11.1 14.7,-11.1 1.9,0 4.1,0.2 6.3,0.6 -0.1,-3.6 -2.7,-5.6 -7.2,-5.6 -2.9,0 -5.2,0.8 -7.2,2.2 l -4.5,-6.2 c 3.9,-2.8 8.3,-4.2 14.5,-4.2 8.8,0 14.9,5.3 14.9,13.3 z m -10.6,7.7 c -1.7,-0.3 -3.4,-0.5 -4.9,-0.5 -3.1,0 -5.1,1.5 -5.1,3.7 0,2.2 1.2,3.6 4.1,3.6 3.1,-0.1 5.8,-2.6 5.9,-6.8 z"
         id="path918"
         inkscape:connector-curvature="0" /><path
         d="m 542.4,205.4 c 0,10.5 -7.2,17.5 -16.2,17.5 -4.6,0 -8,-1.7 -10.3,-4.8 l -0.2,4.2 h -10.2 v -48.6 h 10.6 v 18.6 c 2.3,-2.9 5.7,-4.6 10.1,-4.6 9,-0.1 16.2,7.1 16.2,17.7 z m -10.9,-0.1 c 0,-5.1 -3.1,-8.6 -7.7,-8.6 -4.6,0 -7.7,3.5 -7.7,8.5 0,5.2 3.1,8.5 7.7,8.5 4.6,0 7.7,-3.4 7.7,-8.4 z"
         id="path920"
         inkscape:connector-curvature="0" /><path
         d="m 572.1,187.6 -0.7,9.7 c -6.5,0 -11,3 -11,7.4 v 17.5 h -10.6 v -34 H 560 l 0.2,4.1 c 2.7,-2.9 6.9,-4.7 11.9,-4.7 z"
         id="path922"
         inkscape:connector-curvature="0" /><path
         d="m 577.1,178.2 c 0,-3.6 2.6,-6.1 6.2,-6.1 3.6,0 6.1,2.6 6.1,6.1 0,3.6 -2.6,6.1 -6.1,6.1 -3.6,0 -6.2,-2.5 -6.2,-6.1 z m 0.8,10 h 10.6 v 34 h -10.6 z"
         id="path924"
         inkscape:connector-curvature="0" /><path
         d="m 627,200.9 v 21.3 h -10.2 l -0.1,-3.9 c -2.2,2.9 -5.7,4.5 -9.2,4.5 -7.2,0 -12,-4.4 -12,-10.9 0,-6.7 5.9,-11.1 14.7,-11.1 1.9,0 4.1,0.2 6.3,0.6 -0.1,-3.6 -2.7,-5.6 -7.2,-5.6 -2.9,0 -5.2,0.8 -7.2,2.2 l -4.5,-6.2 c 3.9,-2.8 8.3,-4.2 14.5,-4.2 8.9,0 14.9,5.3 14.9,13.3 z m -10.6,7.7 c -1.7,-0.3 -3.4,-0.5 -4.9,-0.5 -3.1,0 -5.1,1.5 -5.1,3.7 0,2.2 1.2,3.6 4.1,3.6 3.2,-0.1 5.9,-2.6 5.9,-6.8 z"
         id="path926"
         inkscape:connector-curvature="0" /></g></g></svg>