<?xml version="1.0" encoding="UTF-8" standalone="no"?>
<!-- Generator: Adobe Illustrator 14.0.0, SVG Export Plug-In  -->

<svg
   xmlns:dc="http://purl.org/dc/elements/1.1/"
   xmlns:cc="http://creativecommons.org/ns#"
   xmlns:rdf="http://www.w3.org/1999/02/22-rdf-syntax-ns#"
   xmlns:svg="http://www.w3.org/2000/svg"
   xmlns="http://www.w3.org/2000/svg"
   xmlns:sodipodi="http://sodipodi.sourceforge.net/DTD/sodipodi-0.dtd"
   xmlns:inkscape="http://www.inkscape.org/namespaces/inkscape"
   version="1.1"
   x="0px"
   y="0px"
   width="140"
   height="70"
   viewBox="-34.7 -24.3 140 69.999999"
   enable-background="new -34.7 -24.3 617 332"
   xml:space="preserve"
   id="svg2853"
   sodipodi:docname="gobiernocantabria_original_texto.svg"
   inkscape:version="0.92.4 (5da689c313, 2019-01-14)"><metadata
     id="metadata2857"><rdf:RDF><cc:Work
         rdf:about=""><dc:format>image/svg+xml</dc:format><dc:type
           rdf:resource="http://purl.org/dc/dcmitype/StillImage" /><dc:title /></cc:Work></rdf:RDF></metadata><sodipodi:namedview
     pagecolor="#ffffff"
     bordercolor="#666666"
     borderopacity="1"
     objecttolerance="10"
     gridtolerance="10"
     guidetolerance="10"
     inkscape:pageopacity="0"
     inkscape:pageshadow="2"
     inkscape:window-width="1920"
     inkscape:window-height="1017"
     id="namedview2855"
     showgrid="false"
     fit-margin-left="-0.1"
     fit-margin-top="0"
     fit-margin-right="0"
     fit-margin-bottom="0"
     inkscape:zoom="6.2848844"
     inkscape:cx="67.971316"
     inkscape:cy="25.235167"
     inkscape:window-x="-8"
     inkscape:window-y="-8"
     inkscape:window-maximized="1"
     inkscape:current-layer="svg2853" /><defs
     id="defs1837" /><path
     d="m -23.40205,29.361241 c 0.902811,0.231368 1.408386,0.363578 1.516722,0.363578 0.216673,0 0.433348,-0.06609 0.650024,-0.165263 0.216673,-0.13221 0.325012,-0.297472 0.397236,-0.528842 h 0.505574 l 0.216673,4.990951 h -0.541685 c -0.325011,-0.991578 -0.722247,-1.784842 -1.227822,-2.379791 -0.975035,-1.12379 -2.275084,-1.718739 -3.900143,-1.718739 -1.66117,0 -2.997332,0.628003 -4.04459,1.85095 -1.047261,1.222949 -1.552835,2.908634 -1.552835,5.057056 0,1.98316 0.541686,3.569687 1.661171,4.726531 1.119488,1.189897 2.491758,1.75179 4.189043,1.75179 1.227822,0 2.347307,-0.264421 3.358455,-0.826316 0.577798,-0.297472 1.227822,-0.793265 1.95007,-1.421264 l 0.433348,0.396632 c -0.541685,0.628 -1.155596,1.156843 -1.950072,1.619581 -1.336157,0.793264 -2.744541,1.189895 -4.297376,1.189895 -2.527872,0 -4.550164,-0.760211 -6.030774,-2.280633 -1.372271,-1.421265 -2.058409,-3.173056 -2.058409,-5.255373 0,-2.148422 0.722248,-3.96632 2.166745,-5.420636 1.516723,-1.520423 3.502905,-2.313687 5.958549,-2.313687 0.830589,0 1.697286,0.132212 2.600096,0.36358 z"
     id="path2815"
     inkscape:connector-curvature="0"
     style="fill:#1d1d1b;stroke-width:0.34548688" /><path
     d="m -8.2709466,38.219353 -2.7445424,-6.114741 -2.708433,6.114741 z m -10.1475894,5.718111 v -0.429685 c 0.613911,-0.0661 1.04726,-0.297473 1.372272,-0.661053 0.288901,-0.36358 0.830587,-1.35516 1.552834,-3.007793 l 4.911288,-10.874324 h 0.469464 l 5.8863237,12.560009 c 0.3972364,0.826318 0.6861358,1.355161 0.9389229,1.553477 0.2527869,0.198315 0.6500234,0.330526 1.1917099,0.396631 v 0.396633 h -5.9946621 v -0.36358 c 0.6861356,-0.0661 1.1194849,-0.13221 1.3361596,-0.198317 0.2166746,-0.09916 0.2888991,-0.297472 0.2888991,-0.628001 0,-0.09916 -0.036112,-0.297472 -0.108335,-0.561894 -0.072223,-0.26442 -0.1805618,-0.561895 -0.3250119,-0.85937 L -7.8737066,39.111776 H -14.04893 c -0.613911,1.454316 -0.975035,2.346738 -1.119485,2.644213 -0.108335,0.330525 -0.180563,0.561893 -0.180563,0.760208 0,0.363582 0.180563,0.628002 0.469462,0.793265 0.216675,0.09918 0.577799,0.165264 1.119485,0.198317 v 0.396632 h -4.658503 z"
     id="path2817"
     inkscape:connector-curvature="0"
     style="clip-rule:evenodd;fill:#1d1d1b;fill-rule:evenodd;stroke-width:0.34548688" /><path
     d="m -1.2651357,43.507779 c 0.97503543,-0.09916 1.58894644,-0.297473 1.87784582,-0.628 0.2888995,-0.330528 0.39723668,-1.057685 0.39723668,-2.247583 V 30.881663 L 0.68493508,30.518084 C 0.32381074,30.121451 0.03491136,29.890083 -0.21787554,29.823978 -0.47066243,29.724807 -0.83178655,29.691766 -1.3012482,29.658715 v -0.396631 h 4.0445911 l 9.1003311,10.676007 v -7.403796 c 0,-1.222947 -0.180562,-2.016211 -0.577799,-2.379791 -0.252788,-0.231369 -0.794475,-0.39663 -1.6972837,-0.462738 v -0.396631 h 5.5252007 v 0.396631 c -0.90281,0.09917 -1.480609,0.297475 -1.805622,0.628 -0.288898,0.330529 -0.469461,1.057687 -0.469461,2.214529 V 44.168833 H 12.493697 L 2.0572062,32.038507 v 8.626744 c 0,1.222948 0.1805626,2.01621 0.5777998,2.37979 0.2527866,0.231369 0.7944735,0.396633 1.6611712,0.49579 v 0.396633 h -5.5252005 v -0.429685 z"
     id="path2819"
     inkscape:connector-curvature="0"
     style="fill:#1d1d1b;stroke-width:0.34548688" /><path
     d="m 16.213277,29.262084 h 13.325484 l 0.14445,3.768003 H 29.105414 C 28.816511,31.84019 28.4915,31.079979 28.05815,30.716399 27.624803,30.35282 26.758104,30.187558 25.385831,30.187558 h -1.336159 v 11.33706 c 0,0.859371 0.14445,1.388212 0.43335,1.586529 0.2889,0.198315 0.902809,0.330527 1.877845,0.396632 v 0.396632 h -6.861359 v -0.396632 c 1.011148,-0.0661 1.625059,-0.231369 1.877845,-0.462738 0.252788,-0.231367 0.361124,-0.826316 0.361124,-1.784844 V 30.187558 H 20.43843 c -1.300047,0 -2.202858,0.165262 -2.67232,0.528841 -0.469461,0.36358 -0.830585,1.123791 -1.04726,2.313688 h -0.577799 z"
     id="path2821"
     inkscape:connector-curvature="0"
     style="fill:#1d1d1b;stroke-width:0.34548688" /><path
     d="m 39.036328,38.219353 -2.744544,-6.114741 -2.708433,6.114741 z m -10.183704,5.718111 v -0.429685 c 0.613912,-0.0661 1.047262,-0.297473 1.372274,-0.661053 0.288898,-0.36358 0.830583,-1.35516 1.552831,-3.007793 L 36.68902,28.964609 h 0.469461 l 5.886325,12.560009 c 0.397237,0.826318 0.686138,1.355161 0.938924,1.553477 0.252787,0.198315 0.613912,0.330526 1.191709,0.396631 v 0.396633 h -5.994662 v -0.36358 c 0.686136,-0.0661 1.119484,-0.13221 1.33616,-0.198317 0.180563,-0.09916 0.2889,-0.297472 0.2889,-0.628001 0,-0.09916 -0.03611,-0.297472 -0.108335,-0.561894 -0.07221,-0.26442 -0.180563,-0.561895 -0.325011,-0.85937 L 39.397455,39.111776 H 33.22223 c -0.613911,1.454316 -0.975035,2.346738 -1.083372,2.644213 -0.108335,0.330525 -0.180562,0.561893 -0.180562,0.760208 0,0.363582 0.144449,0.628002 0.469461,0.793265 0.216676,0.09918 0.577799,0.165264 1.119486,0.198317 v 0.396632 h -4.694617 z"
     id="path2823"
     inkscape:connector-curvature="0"
     style="clip-rule:evenodd;fill:#1d1d1b;fill-rule:evenodd;stroke-width:0.34548688" /><path
     d="m 55.792491,42.450094 c 0.830587,-0.429684 1.227823,-1.289053 1.227823,-2.545053 0,-1.256003 -0.469461,-2.082319 -1.444497,-2.545057 -0.938923,-0.462737 -2.166746,-0.694105 -3.647354,-0.694105 -0.361124,0 -0.5778,0 -0.686137,0 -0.108335,0 -0.252786,0 -0.433349,0 v 5.519795 c 0,0.39663 0.108335,0.628 0.361123,0.76021 0.216675,0.09916 0.758363,0.165263 1.588947,0.165263 1.227824,0 2.238971,-0.198317 3.033444,-0.661053 z m -9.642017,1.057685 c 0.938924,-0.0661 1.552837,-0.198317 1.841735,-0.396632 0.288898,-0.231368 0.43335,-0.760211 0.43335,-1.586529 v -9.849692 c 0,-0.826316 -0.144452,-1.322106 -0.43335,-1.553475 -0.288898,-0.231368 -0.902811,-0.363577 -1.841735,-0.429685 v -0.396631 h 6.608573 c 1.877847,0 3.394568,0.297474 4.477941,0.859369 1.119486,0.561895 1.661172,1.553476 1.661172,2.941686 0,1.057685 -0.397238,1.850949 -1.155598,2.379794 -0.433348,0.297473 -1.083373,0.561894 -1.986182,0.760209 1.083372,0.23137 2.022295,0.661054 2.780656,1.222948 0.758361,0.561896 1.155598,1.35516 1.155598,2.412845 0,1.718739 -0.866699,2.908634 -2.563983,3.569688 -0.90281,0.330527 -2.022295,0.49579 -3.322343,0.49579 h -7.691946 v -0.429685 z m 8.883656,-8.031795 c 1.011149,-0.429686 1.516723,-1.189897 1.516723,-2.313687 0,-1.322107 -0.577799,-2.214528 -1.733396,-2.677267 -0.650026,-0.264421 -1.588949,-0.363579 -2.888994,-0.363579 -0.505574,0 -0.794474,0.03305 -0.90281,0.13221 -0.108335,0.06612 -0.180563,0.297477 -0.180563,0.661055 v 4.990951 l 2.238969,-0.03304 c 0.794475,-0.06609 1.4445,-0.198316 1.950071,-0.396632 z"
     id="path2825"
     inkscape:connector-curvature="0"
     style="clip-rule:evenodd;fill:#1d1d1b;fill-rule:evenodd;stroke-width:0.34548688" /><path
     d="m 70.056899,35.839563 c 1.263934,-0.495791 1.877847,-1.388213 1.877847,-2.710319 0,-1.289054 -0.541688,-2.148424 -1.661174,-2.61116 -0.613911,-0.264423 -1.408383,-0.36358 -2.383419,-0.36358 -0.686138,0 -1.083373,0.03307 -1.227821,0.132211 -0.144452,0.09915 -0.216676,0.297474 -0.216676,0.628001 v 5.453688 c 1.661172,-0.09913 2.888993,-0.264421 3.611243,-0.528841 z m -8.053072,7.668216 c 0.902812,-0.0661 1.48061,-0.231369 1.697286,-0.495789 0.216674,-0.264421 0.32501,-0.826316 0.32501,-1.751793 v -9.585271 c 0,-0.793263 -0.108334,-1.289052 -0.397236,-1.520422 -0.252787,-0.231369 -0.794473,-0.39663 -1.62506,-0.462738 v -0.396631 h 6.53635 c 1.372273,0 2.491758,0.165264 3.394569,0.49579 1.733398,0.594949 2.563982,1.751792 2.563982,3.371372 0,1.090737 -0.397239,1.950107 -1.1556,2.545055 -0.75836,0.594946 -1.80562,0.991579 -3.105668,1.156842 l 4.875174,5.618952 c 0.288904,0.330528 0.61392,0.594949 0.902816,0.760211 0.288897,0.165264 0.686129,0.264422 1.155592,0.297474 v 0.396633 h -3.791803 l -5.633536,-6.841901 -1.300047,0.06611 v 4.362952 c 0,0.826317 0.144449,1.355159 0.397237,1.553474 0.252787,0.231368 0.830586,0.363578 1.733396,0.429685 v 0.396632 H 62.03994 v -0.396632 z"
     id="path2827"
     inkscape:connector-curvature="0"
     style="clip-rule:evenodd;fill:#1d1d1b;fill-rule:evenodd;stroke-width:0.34548688" /><path
     d="m 78.073853,43.507779 c 0.938927,-0.0661 1.588954,-0.198317 1.877856,-0.396632 0.288889,-0.198317 0.433345,-0.760211 0.433345,-1.586529 v -9.849692 c 0,-0.826316 -0.144456,-1.322106 -0.433345,-1.553475 -0.288902,-0.231368 -0.902816,-0.363577 -1.877856,-0.429685 v -0.396631 h 6.969701 v 0.396631 c -0.975033,0.03307 -1.588953,0.198317 -1.877849,0.429685 -0.288896,0.231369 -0.433345,0.760212 -0.433345,1.553475 v 9.849692 c 0,0.859371 0.144449,1.388212 0.433345,1.586529 0.288896,0.198315 0.902816,0.330527 1.877849,0.396632 v 0.396632 h -6.969701 z"
     id="path2829"
     inkscape:connector-curvature="0"
     style="fill:#1d1d1b;stroke-width:0.34548688" /><path
     d="m 96.310635,38.219353 -2.744553,-6.114741 -2.708427,6.114741 z m -10.183712,5.718111 v -0.429685 c 0.61392,-0.0661 1.047265,-0.297473 1.372273,-0.661053 0.325008,-0.36358 0.830585,-1.35516 1.552833,-3.007793 l 4.911294,-10.874324 h 0.469464 l 5.886333,12.560009 c 0.39723,0.826318 0.68613,1.355161 0.93892,1.553477 0.25278,0.198315 0.65002,0.330526 1.1917,0.396631 v 0.396633 h -5.994663 v -0.36358 c 0.686145,-0.0661 1.11948,-0.13221 1.336161,-0.198317 0.180567,-0.09916 0.288895,-0.297472 0.288895,-0.628001 0,-0.09916 -0.0361,-0.297472 -0.108323,-0.561894 -0.07221,-0.26442 -0.180568,-0.561895 -0.325017,-0.85937 l -0.975044,-2.148421 h -6.175221 c -0.613914,1.454316 -0.975033,2.346738 -1.11949,2.644213 -0.108323,0.330525 -0.18056,0.561893 -0.18056,0.760208 0,0.363582 0.144457,0.628002 0.469465,0.793265 0.216671,0.09918 0.577799,0.165264 1.119481,0.198317 v 0.396632 h -4.658501 z"
     id="path2831"
     inkscape:connector-curvature="0"
     style="clip-rule:evenodd;fill:#1d1d1b;fill-rule:evenodd;stroke-width:0.34548688" /><path
     d="m -27.627203,11.909436 c 0.325013,0.165264 0.61391,0.363579 0.902809,0.628 V 9.0999595 c 0,-0.4296837 -0.03611,-0.7271577 -0.14445,-0.9254727 -0.108335,-0.165264 -0.361123,-0.23137 -0.722249,-0.23137 -0.108335,0 -0.180561,0 -0.252785,0 -0.07221,0 -0.216676,0.03305 -0.469461,0.03305 v -0.363579 l 0.938922,-0.231369 c 0.361124,-0.09916 0.686136,-0.165264 1.047261,-0.264421 0.361123,-0.09916 0.650022,-0.198316 0.902811,-0.264421 0.108335,-0.03305 0.325011,-0.09916 0.61391,-0.198317 l 0.07222,0.03305 -0.03611,1.123791 c 0,0.396633 -0.03611,0.826316 -0.03611,1.2890527 0,0.429685 0,0.85937 0,1.2890555 l -0.03611,8.825059 c 0,0.462738 0.07222,0.793264 0.180562,0.991579 0.108335,0.198318 0.433348,0.297474 0.975034,0.297474 0.07222,0 0.180564,0 0.252788,0 0.07222,0 0.180563,-0.03305 0.252789,-0.03305 v 0.363578 c -0.03612,0 -0.613912,0.198317 -1.661173,0.528845 l -1.80562,0.627999 -0.07222,-0.09916 v -1.322108 c -0.433349,0.429686 -0.794473,0.760213 -1.119483,0.958528 -0.577802,0.330526 -1.227825,0.495789 -1.950072,0.495789 -1.300048,0 -2.383421,-0.462735 -3.177894,-1.421264 -0.794483,-0.95852 -1.191718,-2.049256 -1.191718,-3.305258 0,-1.553475 0.469461,-2.908634 1.444497,-4.032425 0.975035,-1.123789 2.166746,-1.685685 3.575129,-1.685685 0.541689,-0.03305 1.047262,0.09916 1.516723,0.330526 z m 0.361124,8.395376 c 0.361124,-0.330526 0.541685,-0.628 0.541685,-0.925475 v -4.627372 c 0,-0.925474 -0.252786,-1.586527 -0.794472,-1.983159 -0.541688,-0.396631 -1.047263,-0.594949 -1.552834,-0.594949 -0.975036,0 -1.733397,0.396633 -2.238971,1.222949 -0.541685,0.793265 -0.794473,1.784844 -0.794473,2.974739 0,1.156844 0.288899,2.181477 0.866699,3.106951 0.577797,0.892422 1.444497,1.355158 2.563981,1.355158 0.541686,-0.03305 1.011148,-0.198315 1.408385,-0.528842 z"
     id="path2833"
     inkscape:connector-curvature="0"
     style="clip-rule:evenodd;fill:#1d1d1b;fill-rule:evenodd;stroke-width:0.34548688" /><path
     d="m -14.482282,12.702701 c 0.830585,0.694105 1.227822,1.685685 1.227822,2.974739 h -7.29471 c 0.07224,1.685685 0.469463,2.875582 1.227822,3.668846 0.722249,0.76021 1.588949,1.156842 2.600095,1.156842 0.794473,0 1.480611,-0.198316 2.022296,-0.594947 0.541687,-0.396633 1.04726,-0.958527 1.516723,-1.685686 l 0.397235,0.13221 c -0.325011,0.925476 -0.90281,1.751791 -1.769507,2.545054 -0.8667,0.793264 -1.91396,1.156844 -3.177893,1.156844 -1.444499,0 -2.563983,-0.528844 -3.358458,-1.520422 -0.794471,-1.024633 -1.191707,-2.214528 -1.191707,-3.536634 0,-1.454318 0.46946,-2.710318 1.372272,-3.768003 0.90281,-1.057687 2.094518,-1.586529 3.575129,-1.586529 1.083373,0 2.058407,0.330527 2.852881,1.057686 z m -5.489088,0.826317 c -0.252787,0.396631 -0.433349,0.89242 -0.541686,1.48737 h 4.839065 c -0.07221,-0.727159 -0.216675,-1.256003 -0.43335,-1.619582 -0.397237,-0.628 -1.011147,-0.958527 -1.877845,-0.958527 -0.8667,0 -1.552835,0.330527 -1.986184,1.090739 z"
     id="path2835"
     inkscape:connector-curvature="0"
     style="clip-rule:evenodd;fill:#1d1d1b;fill-rule:evenodd;stroke-width:0.34548688" /><path
     d="m -23.329824,-14.929322 c 0.866696,0.231369 1.372271,0.36358 1.51672,0.36358 0.325012,0 0.5778,-0.06611 0.722247,-0.198316 0.144452,-0.13221 0.252789,-0.297476 0.361125,-0.528842 h 0.505575 l 0.180561,4.660424 h -0.541686 c -0.469461,-1.090737 -0.975034,-1.884001 -1.480609,-2.412843 -0.938922,-0.925476 -2.130634,-1.388214 -3.611243,-1.388214 -1.51672,0 -2.852879,0.528843 -4.008478,1.619582 -1.155598,1.090738 -1.697284,2.8425288 -1.697284,5.3214768 0,2.049265 0.577799,3.635793 1.697284,4.792637 1.155599,1.156843 2.563984,1.71873696 4.225154,1.71873696 0.288901,0 0.613913,-0.03305 1.011149,-0.06611 0.397235,-0.06611 0.758359,-0.132211 1.083372,-0.231367 0.577797,-0.165265 0.902809,-0.330527 1.047261,-0.429685 0.144449,-0.132212 0.216673,-0.330527 0.216673,-0.561895 v -3.536634 c 0,-0.85937 -0.14445,-1.38821 -0.397236,-1.586529 -0.252787,-0.198315 -0.830585,-0.330527 -1.697286,-0.396632 v -0.396633 h 5.994663 v 0.396633 c -0.577799,0.03305 -0.975036,0.132212 -1.155596,0.264422 -0.325013,0.231366 -0.469462,0.694106 -0.469462,1.421264 v 4.362953 c 0,0.264421 -0.686136,0.594947 -2.022297,1.02463196 -1.336158,0.429683 -2.636205,0.661053 -3.90014,0.661053 -2.311197,0 -4.261266,-0.628002 -5.8141,-1.88400296 -1.733396,-1.388206 -2.600095,-3.272208 -2.600095,-5.585894 0,-2.049265 0.686137,-3.8341088 2.094521,-5.2884258 1.516722,-1.619581 3.539018,-2.445896 6.066885,-2.445896 0.902812,-0.03305 1.805621,0.09916 2.672322,0.330525 z"
     id="path2837"
     inkscape:connector-curvature="0"
     style="fill:#1d1d1b;stroke-width:0.34548688" /><path
     d="m -12.640549,-2.5345742 c 0.975036,1.123789 2.166745,1.65263296 3.5751306,1.65263296 1.4083841,0 2.5639818,-0.52884396 3.5751294,-1.61958096 0.9750353,-1.090737 1.4806091,-2.842529 1.4806091,-5.222321 0,-2.4128438 -0.5055738,-4.1646328 -1.4806091,-5.2223188 -1.0111476,-1.057685 -2.1667453,-1.61958 -3.5390177,-1.61958 -1.4083853,0 -2.6000943,0.561895 -3.5751293,1.685685 -0.975035,1.12379 -1.444497,2.842529 -1.444497,5.1562148 -0.07222,2.346741 0.433348,4.098529 1.408384,5.189268 z m -1.769507,-10.8412738 c 1.444497,-1.289053 3.250117,-1.950105 5.3446376,-1.950105 2.1306325,0 3.9001414,0.661052 5.3807502,1.98316 1.5889467,1.421264 2.3473074,3.305265 2.3473074,5.6850558 0,2.412844 -0.8305855,4.296847 -2.4556446,5.718111 -1.4444973,1.25599996 -3.2140061,1.91705396 -5.272413,1.91705396 -2.2028566,0 -4.0445916,-0.694105 -5.4890876,-2.11536996 -1.480608,-1.421264 -2.238971,-3.272213 -2.238971,-5.519795 0,-2.4128428 0.794472,-4.2968458 2.383421,-5.7181108 z"
     id="path2839"
     inkscape:connector-curvature="0"
     style="clip-rule:evenodd;fill:#1d1d1b;fill-rule:evenodd;stroke-width:0.34548688" /><path
     d="m 9.8213779,-1.8404692 c 0.8305861,-0.429683 1.2278231,-1.289053 1.2278231,-2.545054 0,-1.256001 -0.469461,-2.082318 -1.4444977,-2.545055 -0.9389224,-0.462739 -2.1667458,-0.694106 -3.6473552,-0.694106 -0.3611244,0 -0.5777983,0 -0.6861349,0 -0.072233,0 -0.2527875,0 -0.4333493,0 v 5.519794 c 0,0.396633 0.1083373,0.628001 0.3611234,0.760213 0.2166756,0.09916 0.7583608,0.165261 1.5889471,0.165261 1.2278219,0 2.2389701,-0.198315 3.0334435,-0.661053 z m -9.64201674,1.05768496 c 0.93892294,-0.066105 1.55283354,-0.198316 1.84173394,-0.39663196 0.2888986,-0.231369 0.4333492,-0.76021 0.4333492,-1.586528 v -9.8496918 c 0,-0.826317 -0.1444506,-1.322103 -0.4333492,-1.553475 -0.2889004,-0.231369 -0.902811,-0.363579 -1.84173394,-0.429685 v -0.396631 H 6.7879344 c 1.8778465,0 3.3945676,0.297474 4.4779406,0.85937 1.119486,0.561894 1.661171,1.553474 1.661171,2.941685 0,1.057685 -0.397237,1.8509488 -1.155598,2.3797918 -0.433347,0.297475 -1.083372,0.561896 -1.9861828,0.760212 1.0833728,0.231368 2.0222958,0.661051 2.7806578,1.222948 0.75836,0.561893 1.155596,1.355159 1.155596,2.412844 0,1.718739 -0.866698,2.908635 -2.563981,3.56968696 -0.902811,0.330527 -1.9861837,0.495791 -3.3223434,0.495791 H 0.1432488 v -0.429686 z M 9.0630165,-8.8145802 c 1.0111485,-0.429685 1.4806105,-1.2229478 1.4806105,-2.3136858 0,-1.322107 -0.5778001,-2.214527 -1.7333963,-2.677266 -0.6500245,-0.264419 -1.588947,-0.363579 -2.8889938,-0.363579 -0.505574,0 -0.7944743,0.03307 -0.9028112,0.13221 -0.1083373,0.06611 -0.1805618,0.297475 -0.1805618,0.661053 v 4.9909538 l 2.2389692,-0.03305 c 0.7944743,-0.06609 1.4806095,-0.198315 1.9861834,-0.396633 z"
     id="path2841"
     inkscape:connector-curvature="0"
     style="clip-rule:evenodd;fill:#1d1d1b;fill-rule:evenodd;stroke-width:0.34548688" /><path
     d="m 16.141051,-0.78278424 c 0.938926,-0.06611 1.588947,-0.198316 1.877848,-0.39663196 0.2889,-0.198315 0.433349,-0.727158 0.433349,-1.586528 v -9.8496918 c 0,-0.826317 -0.144449,-1.322103 -0.433349,-1.553475 -0.288901,-0.231369 -0.902812,-0.363579 -1.877848,-0.429685 v -0.396631 h 6.969698 v 0.396631 c -0.975035,0.03305 -1.588947,0.198316 -1.877845,0.429685 -0.2889,0.231372 -0.43335,0.76021 -0.43335,1.553475 v 9.8496918 c 0,0.85937 0.14445,1.388213 0.43335,1.586528 0.288898,0.19831596 0.90281,0.33052696 1.877845,0.39663196 v 0.396632 h -6.969698 z"
     id="path2843"
     inkscape:connector-curvature="0"
     style="fill:#1d1d1b;stroke-width:0.34548688" /><path
     d="m 24.121898,-0.78278424 c 0.866696,-0.09916 1.408383,-0.23136796 1.66117,-0.42968496 0.252787,-0.198316 0.397238,-0.727157 0.397238,-1.553475 v -9.8496918 c 0,-0.793265 -0.144451,-1.289054 -0.397238,-1.520421 -0.252787,-0.231369 -0.830584,-0.396633 -1.697284,-0.462739 v -0.396631 h 12.531011 l 0.07221,3.173055 h -0.61391 c -0.180559,-0.991579 -0.505571,-1.619581 -0.902807,-1.917054 -0.397237,-0.297475 -1.300047,-0.429685 -2.67232,-0.429685 h -3.214009 c -0.361124,0 -0.577796,0.06611 -0.650021,0.165264 -0.07222,0.09916 -0.108335,0.297474 -0.108335,0.594946 v 4.9579008 h 3.611241 c 1.011147,0 1.661172,-0.132212 1.91396,-0.429685 0.288897,-0.26442 0.505572,-0.859369 0.650021,-1.7187388 h 0.541686 v 5.1231628 h -0.541688 c -0.180562,-0.859368 -0.397238,-1.421264 -0.686136,-1.685687 -0.2889,-0.297474 -0.90281,-0.429684 -1.913956,-0.429684 h -3.611242 v 5.486742 c 0,0.429685 0.144449,0.694105 0.433346,0.793264 0.288901,0.06611 1.191711,0.13221 2.672321,0.13221 1.588946,0 2.780657,-0.165261 3.539016,-0.495789 0.758362,-0.330526 1.444497,-1.123791 2.058408,-2.379791 h 0.650023 l -1.083372,3.73494996 H 24.013558 v -0.462738 z"
     id="path2845"
     inkscape:connector-curvature="0"
     style="fill:#1d1d1b;stroke-width:0.34548688" /><path
     d="m 46.800497,-8.4510002 c 1.263936,-0.49579 1.877847,-1.388212 1.877847,-2.7103178 0,-1.289055 -0.577798,-2.148423 -1.697283,-2.611162 -0.613911,-0.264421 -1.408384,-0.363577 -2.383419,-0.363577 -0.686137,0 -1.083373,0.03305 -1.227824,0.13221 -0.144449,0.09916 -0.216674,0.297474 -0.216674,0.627999 v 5.4536908 c 1.697282,-0.09914 2.925107,-0.264423 3.647353,-0.528843 z m -8.053069,7.66821596 c 0.90281,-0.06611 1.480608,-0.23136796 1.697284,-0.49578996 0.216675,-0.26442 0.325013,-0.826316 0.325013,-1.751791 v -9.5852708 c 0,-0.793265 -0.108335,-1.289054 -0.397236,-1.520421 -0.252789,-0.231369 -0.794474,-0.396633 -1.661172,-0.462739 v -0.396631 h 6.536347 c 1.372272,0 2.491757,0.165262 3.394569,0.49579 1.733394,0.628001 2.563981,1.75179 2.563981,3.371371 0,1.090738 -0.397237,1.9501078 -1.155597,2.5450538 -0.758363,0.59495 -1.805622,0.99158 -3.105669,1.156844 l 4.839065,5.618952 c 0.2889,0.330527 0.613912,0.594947 0.902811,0.76021 0.288899,0.16526396 0.686137,0.26442096 1.155597,0.29747496 v 0.396631 h -3.791804 l -5.633538,-6.80884796 -1.300048,0.06612 v 4.329898 c 0,0.826316 0.14445,1.355159 0.397238,1.553474 0.252785,0.23136996 0.830584,0.36357996 1.733395,0.42968496 v 0.396633 h -6.536347 v -0.396633 z"
     id="path2847"
     inkscape:connector-curvature="0"
     style="clip-rule:evenodd;fill:#1d1d1b;fill-rule:evenodd;stroke-width:0.34548688" /><path
     d="m 54.709119,-0.78278424 c 0.975036,-0.09916 1.588946,-0.29747496 1.877845,-0.62800096 0.288902,-0.330525 0.397237,-1.057685 0.397237,-2.247581 v -9.7505348 l -0.325012,-0.363579 c -0.325011,-0.396631 -0.650023,-0.628 -0.902809,-0.694105 -0.252785,-0.09914 -0.613913,-0.132211 -1.083374,-0.165263 v -0.396632 h 4.044593 l 9.064217,10.6760098 v -7.4037968 c 0,-1.222949 -0.180563,-2.016213 -0.577801,-2.37979 -0.252785,-0.231369 -0.830584,-0.396633 -1.697283,-0.462739 v -0.396631 h 5.525203 v 0.396631 c -0.902813,0.09916 -1.480611,0.297475 -1.805623,0.628001 -0.288898,0.330525 -0.433348,1.057687 -0.433348,2.214528 V -0.12173024 H 68.467953 L 58.031462,-12.252054 v 8.6267408 c 0,1.222949 0.180562,2.016213 0.577799,2.379793 0.252786,0.231368 0.794471,0.39663096 1.66117,0.49578896 v 0.396633 h -5.525198 v -0.429686 z"
     id="path2849"
     inkscape:connector-curvature="0"
     style="fill:#1d1d1b;stroke-width:0.34548688" /><path
     d="m 76.521018,-2.5345742 c 0.975041,1.123789 2.166754,1.65263296 3.611244,1.65263296 1.372273,0 2.563986,-0.52884396 3.57513,-1.61958096 0.975034,-1.090737 1.48061,-2.842529 1.48061,-5.222321 0,-2.4128438 -0.505576,-4.1646328 -1.516721,-5.2223188 -1.011146,-1.057685 -2.166746,-1.61958 -3.539019,-1.61958 -1.408377,0 -2.600098,0.561895 -3.611244,1.685685 -0.975032,1.12379 -1.444488,2.842529 -1.444488,5.1562148 0,2.346741 0.505576,4.098529 1.444488,5.189268 z M 74.787626,-13.375848 c 1.444497,-1.289053 3.250122,-1.950105 5.344636,-1.950105 2.130633,0 3.900139,0.661052 5.380756,1.98316 1.588937,1.421264 2.347307,3.305265 2.347307,5.6850558 0,2.412844 -0.830585,4.296847 -2.455651,5.718111 -1.444498,1.25599996 -3.214003,1.91705396 -5.272412,1.91705396 -2.202857,0 -4.044588,-0.694105 -5.489085,-2.11536996 -1.480609,-1.421264 -2.238971,-3.272213 -2.238971,-5.519795 0,-2.4128428 0.794473,-4.2968458 2.38342,-5.7181108 z"
     id="path2851"
     inkscape:connector-curvature="0"
     style="clip-rule:evenodd;fill:#1d1d1b;fill-rule:evenodd;stroke-width:0.34548688" /></svg>