<?xml version="1.0" encoding="UTF-8" standalone="no"?>
<!-- Generator: Adobe Illustrator 16.0.3, SVG Export Plug-In . SVG Version: 6.00 Build 0)  -->

<svg
   xmlns:dc="http://purl.org/dc/elements/1.1/"
   xmlns:cc="http://creativecommons.org/ns#"
   xmlns:rdf="http://www.w3.org/1999/02/22-rdf-syntax-ns#"
   xmlns:svg="http://www.w3.org/2000/svg"
   xmlns="http://www.w3.org/2000/svg"
   xmlns:sodipodi="http://sodipodi.sourceforge.net/DTD/sodipodi-0.dtd"
   xmlns:inkscape="http://www.inkscape.org/namespaces/inkscape"
   version="1.1"
   id="Capa_1"
   x="0px"
   y="0px"
   width="196.24271"
   height="250.94102"
   viewBox="0 0 196.24271 250.94102"
   enable-background="new 0 0 841.891 1190.55"
   xml:space="preserve"
   sodipodi:docname="icane_verde.svg"
   inkscape:version="0.92.1 r15371"><metadata
     id="metadata103"><rdf:RDF><cc:Work
         rdf:about=""><dc:format>image/svg+xml</dc:format><dc:type
           rdf:resource="http://purl.org/dc/dcmitype/StillImage" /><dc:title /></cc:Work></rdf:RDF></metadata><defs
     id="defs101" /><sodipodi:namedview
     pagecolor="#ffffff"
     bordercolor="#666666"
     borderopacity="1"
     objecttolerance="10"
     gridtolerance="10"
     guidetolerance="10"
     inkscape:pageopacity="0"
     inkscape:pageshadow="2"
     inkscape:window-width="1920"
     inkscape:window-height="1016"
     id="namedview99"
     showgrid="false"
     inkscape:zoom="1.4142136"
     inkscape:cx="50.134657"
     inkscape:cy="83.217933"
     inkscape:window-x="1920"
     inkscape:window-y="27"
     inkscape:window-maximized="1"
     inkscape:current-layer="g96"
     fit-margin-top="30"
     fit-margin-left="30"
     fit-margin-right="30"
     fit-margin-bottom="30" /><g
     id="g96"
     transform="translate(-534.81354,-440.43499)"><path
       d="m 537.50774,689.63563 c 0,-6.95184 0,-13.71444 0,-20.56518 63.93004,0 127.73459,0 191.67167,0 0.0452,0.47572 0.12691,0.92422 0.12691,1.37274 0.008,5.8591 -0.0311,11.71432 0.0339,17.57342 0.0155,1.3196 -0.47236,1.64624 -1.84853,1.64366 -62.87394,-0.026 -125.74788,-0.0234 -188.62041,-0.0234 -0.39199,-0.001 -0.77974,-0.001 -1.36348,-0.001 z"
       id="path8"
       inkscape:connector-curvature="0"
       style="fill:#2e7d32;stroke-width:1.35194218;fill-opacity:1" /><path
       d="m 537.49082,660.91565 c 0,-6.70944 0,-13.36964 0,-20.13742 55.44175,0 110.8257,0 166.30693,0 0,6.71204 0,13.36964 0,20.13742 -55.43188,0 -110.81582,0 -166.30693,0 z"
       id="path10"
       inkscape:connector-curvature="0"
       style="fill:#2e7d32;stroke-width:1.35194218;fill-opacity:1" /><path
       d="m 697.03955,442.17795 c 0,6.85722 0,13.51612 0,20.35131 -0.6909,0 -1.29579,0 -1.89929,0 -51.81097,0 -103.62334,-0.008 -155.43431,0.0364 -1.73713,0.001 -2.17565,-0.4174 -2.14463,-1.98588 0.10436,-5.54412 0.0987,-11.09342 0.002,-16.63622 -0.0297,-1.48422 0.49914,-1.79532 2.00786,-1.79274 35.74386,0.035 71.48771,0.0272 107.23158,0.0272 16.01071,0 32.02283,0 48.03354,0 0.67257,0 1.34515,0 2.20243,0 z"
       id="path12"
       inkscape:connector-curvature="0"
       style="fill:#2e7d32;stroke-width:1.35194218;fill-opacity:1" /><path
       d="m 696.78152,471.02237 c 0,6.46964 0.0169,12.78503 -0.0452,19.10042 -0.005,0.3474 -0.61195,0.7972 -1.04623,0.99942 -0.36096,0.16721 -0.88408,0.0376 -1.33388,0.0376 -51.54166,0 -103.08049,0 -154.62073,0 -2.4647,0 -2.46753,0 -2.46753,-2.24902 0,-5.443 0.0466,-10.88601 -0.031,-16.32901 -0.0211,-1.33774 0.47658,-1.79143 1.83584,-1.6281 0.16638,0.0208 0.337,0.002 0.5062,0.002 51.87864,-0.006 103.7587,-0.0116 155.63736,-0.013 0.43992,0 0.88548,0.044 1.5651,0.079 z"
       id="path14"
       inkscape:connector-curvature="0"
       style="fill:#2e7d32;stroke-width:1.35194218;fill-opacity:1" /><path
       d="m 609.24926,555.57753 c 23.11577,0 46.22873,0 69.34449,0 2.32229,0 2.32512,0.006 2.32512,2.09216 10e-4,5.28616 10e-4,10.57362 0,15.85977 0,2.08569 -0.002,2.09347 -2.32512,2.09347 -36.36285,10e-4 -72.72571,0 -109.08856,0 -9.92227,0 -19.84313,-0.0298 -29.7654,0.0286 -1.64407,0.0102 -2.22358,-0.32278 -2.18552,-1.96902 0.13255,-5.38727 0.13255,-10.78102 0,-16.16958 -0.0367,-1.64625 0.54145,-1.97161 2.18552,-1.96772 23.16794,0.0454 46.33871,0.0324 69.50947,0.0324 z"
       id="path16"
       inkscape:connector-curvature="0"
       style="fill:#2e7d32;stroke-width:1.35194218;fill-opacity:1" /><path
       d="m 649.10613,526.96125 c 0,3.6438 0.006,6.99593 -10e-4,10.34936 -0.006,2.85048 -0.0677,5.70096 -0.0169,8.55274 0.0183,1.02922 -0.37648,1.35848 -1.46501,1.33644 -2.64941,-0.0518 -5.30024,-0.0156 -7.95106,-0.0156 -33.21148,0 -66.41731,0 -99.62737,0 -2.44215,0 -2.44215,-10e-4 -2.44215,-2.27623 0,-5.39116 0.0648,-10.78231 -0.0395,-16.17346 -0.0297,-1.49978 0.52875,-1.8044 2.0135,-1.80051 15.16752,0.0388 30.33504,0.026 45.50256,0.026 20.58056,0 41.15832,0 61.73888,0 0.77551,0.001 1.55666,0.001 2.28845,0.001 z"
       id="path20"
       inkscape:connector-curvature="0"
       style="fill:#2e7d32;stroke-width:1.35194218;fill-opacity:1" /><path
       d="m 643.5831,604.42975 c -0.84318,0 -1.51012,0 -2.17847,0 -33.88545,0 -67.76951,0 -101.65638,0 -2.32511,0 -2.32229,-10e-4 -2.32511,-2.08828 -0.005,-5.49356 0.031,-10.9897 -0.048,-16.48196 -0.0197,-1.32608 0.48082,-1.67218 1.84711,-1.67088 34.22246,0.026 68.44772,0.0272 102.66877,-0.003 1.41143,-10e-4 1.81751,0.40314 1.802,1.68385 -0.0677,5.70095 -0.0281,11.40191 -0.0311,17.10417 0,0.40444 -0.0423,0.81016 -0.0789,1.457 z"
       id="path22"
       inkscape:connector-curvature="0"
       style="fill:#2e7d32;stroke-width:1.35194218;fill-opacity:1" /><path
       d="m 631.80808,632.65067 c -31.60829,0 -62.97829,0 -94.54145,0 0,-1.67866 0,-3.27046 0,-4.86098 0,-4.6134 0.0339,-9.2229 -0.0267,-13.8363 -0.0155,-1.17182 0.27355,-1.62292 1.67792,-1.62033 30.43798,0.035 60.87595,0.0272 91.31393,0.0272 0.80229,0 1.59332,-0.10895 1.58768,1.03831 -0.0269,6.36594 -0.0117,12.73318 -0.0117,19.25208 z"
       id="path24"
       inkscape:connector-curvature="0"
       style="fill:#2e7d32;stroke-width:1.35194218;fill-opacity:1" /><path
       d="m 607.3683,499.14866 c 0,6.80667 0,13.47075 0,20.27483 -0.65848,0.0272 -1.26055,0.0752 -1.8584,0.0752 -21.98494,0.002 -43.96988,-0.0182 -65.95482,0.0388 -1.73431,0.006 -2.19539,-0.43554 -2.16578,-1.99754 0.0917,-5.59468 0.0663,-11.19322 0.008,-16.79048 -0.0155,-1.25348 0.35956,-1.6981 1.80482,-1.69552 22.21055,0.0388 44.42109,0.0272 66.63162,0.0298 0.44416,0 0.89255,0.0376 1.53411,0.0648 z"
       id="path26"
       inkscape:connector-curvature="0"
       style="fill:#2e7d32;stroke-width:1.35194218;fill-opacity:1" /></g></svg>