<?xml version="1.0" encoding="UTF-8" standalone="no"?>
<!-- Generator: Adobe Illustrator 16.0.3, SVG Export Plug-In . SVG Version: 6.00 Build 0)  -->

<svg
   xmlns:dc="http://purl.org/dc/elements/1.1/"
   xmlns:cc="http://creativecommons.org/ns#"
   xmlns:rdf="http://www.w3.org/1999/02/22-rdf-syntax-ns#"
   xmlns:svg="http://www.w3.org/2000/svg"
   xmlns="http://www.w3.org/2000/svg"
   xmlns:sodipodi="http://sodipodi.sourceforge.net/DTD/sodipodi-0.dtd"
   xmlns:inkscape="http://www.inkscape.org/namespaces/inkscape"
   version="1.1"
   id="Capa_1"
   x="0px"
   y="0px"
   width="130.6964"
   height="58.376553"
   viewBox="0 0 130.6964 58.376552"
   enable-background="new 0 0 841.891 1190.55"
   xml:space="preserve"
   sodipodi:docname="icanecovid_texto.svg"
   inkscape:version="0.92.4 (5da689c313, 2019-01-14)"><metadata
     id="metadata103"><rdf:RDF><cc:Work
         rdf:about=""><dc:format>image/svg+xml</dc:format><dc:type
           rdf:resource="http://purl.org/dc/dcmitype/StillImage" /><dc:title></dc:title></cc:Work></rdf:RDF></metadata><defs
     id="defs101" /><sodipodi:namedview
     pagecolor="#ffffff"
     bordercolor="#666666"
     borderopacity="1"
     objecttolerance="10"
     gridtolerance="10"
     guidetolerance="10"
     inkscape:pageopacity="0"
     inkscape:pageshadow="2"
     inkscape:window-width="1920"
     inkscape:window-height="1017"
     id="namedview99"
     showgrid="false"
     inkscape:zoom="5.6568545"
     inkscape:cx="15.08604"
     inkscape:cy="25.840857"
     inkscape:window-x="-8"
     inkscape:window-y="-8"
     inkscape:window-maximized="1"
     inkscape:current-layer="g96"
     fit-margin-top="0"
     fit-margin-left="0"
     fit-margin-right="0"
     fit-margin-bottom="0" /><g
     id="g96"
     transform="matrix(0.18473485,0,0,0.18952953,-15.790581,-86.938717)"><path
       d="m 291.6783,468.03239 c 0,2.85893 0,5.71785 -10e-4,8.57563 -0.005,9.32208 -0.0127,18.64302 -0.019,27.96396 0,0.49725 0,0.9922 0,1.44561 -2.46257,0.25382 -4.80391,0.43957 -7.13049,0.743 -9.22199,1.19757 -17.85574,4.38761 -25.79374,9.63013 -17.56269,11.59839 -28.6938,28.41391 -32.4604,50.4685 -3.81087,22.31417 0.81172,42.712 13.80663,60.5555 10.36262,14.22541 23.87619,22.97295 40.13696,26.62563 5.54394,1.24372 11.17645,1.48254 16.82159,1.38101 1.72992,-0.0289 3.45877,-0.0496 5.18552,0.0138 0.84862,0.0312 1.39469,-0.2769 1.91334,-1.01413 7.83365,-11.13805 15.68625,-22.2611 23.54518,-33.37954 8.71071,-12.32177 17.43513,-24.63085 26.14584,-36.95377 11.20807,-15.85447 22.40349,-31.72048 33.61473,-47.5738 12.78302,-18.08 25.57553,-36.14963 38.36381,-54.22386 2.03668,-2.87739 4.09234,-5.74093 6.0995,-8.64139 0.44909,-0.64955 0.90976,-0.91375 1.66877,-0.90914 5.77587,0.0312 11.5528,0.0243 17.32866,-0.0231 0.84757,-0.007 1.39996,0.28151 1.91439,0.9945 5.35104,7.41269 10.71999,14.81151 16.09527,22.20458 9.3875,12.91362 18.78448,25.81918 28.17409,38.73281 8.28588,11.39879 16.56648,22.80566 24.8492,34.20676 7.10202,9.77895 14.20721,19.55446 21.31135,29.33112 0.17921,0.24574 0.37845,0.47072 0.81383,1.00951 0,-42.33937 0,-84.32337 0,-126.38237 14.17664,0 28.16143,0 42.25586,0 0,73.45298 0,146.92672 0,220.57122 -0.4512,0 -0.90027,0.002 -1.34724,0 -5.56504,0 -11.13323,-0.0208 -16.69826,0.0162 -0.78853,0.004 -1.29665,-0.22268 -1.79738,-0.92183 -6.50958,-9.05904 -13.04762,-18.0904 -19.58144,-27.12635 -7.89372,-10.91538 -15.79483,-21.82154 -23.68855,-32.73923 -8.38707,-11.60531 -16.76572,-23.21522 -25.14857,-34.82515 -7.41618,-10.26929 -14.83026,-20.54435 -22.24959,-30.81366 -0.12545,-0.17075 -0.29517,-0.30457 -0.6557,-0.66684 0,42.47087 0,84.68678 0,127.0769 -0.70209,0 -1.2355,0 -1.76892,0 -60.75888,0.004 -121.51669,0.11076 -182.27662,-0.0473 -17.97382,-0.0473 -34.80702,-5.42828 -50.20229,-15.5799 -24.01113,-15.83255 -39.77538,-38.6382 -47.19577,-68.26352 -2.01665,-8.05299 -3.05713,-16.28136 -3.30381,-24.63662 -0.77376,-26.3349 5.90026,-50.19622 20.25718,-71.30359 14.20722,-20.88702 32.96008,-34.71209 55.92333,-41.6102 7.23064,-2.17132 14.60782,-3.39772 22.11044,-3.7 0.40586,-0.0162 0.80961,-0.1419 1.21336,-0.2169 0.58929,0.005 1.17963,0.005 1.76997,0.005 z m 140.92315,78.9597 c -0.0769,-0.0496 -0.15496,-0.0992 -0.23403,-0.14767 -24.88293,36.08155 -49.7648,72.16542 -74.79427,108.46272 25.16756,0 50.07474,0 75.02724,0 10e-4,-36.17731 10e-4,-72.24619 10e-4,-108.31505 z"
       id="path2"
       inkscape:connector-curvature="0"
       style="stroke-width:1.10283065" /><path
       d="m 185.79514,693.3431 c -14.87769,0 -29.66576,0 -44.4823,0 0,-59.10756 0,-118.169 0,-177.31003 14.89244,0 29.63203,0 44.4823,0 0,59.05335 0,118.11823 0,177.31003 z"
       id="path4"
       inkscape:connector-curvature="0"
       style="stroke-width:1.10283065" /><path
       d="m 590.98819,692.50896 c 0,-6.18741 0,-12.20639 0,-18.30382 47.79664,0 95.49947,0 143.30138,0 0.0337,0.42341 0.0948,0.82261 0.0948,1.22179 0.006,5.21484 -0.0232,10.4262 0.0253,15.64103 0.0115,1.17449 -0.35315,1.46523 -1.38203,1.46292 -47.00707,-0.0231 -94.01413,-0.0208 -141.02013,-0.0208 -0.29307,-10e-4 -0.58297,-10e-4 -1.0194,-10e-4 z"
       id="path8"
       inkscape:connector-curvature="0"
       style="fill:#004c91;fill-opacity:1;stroke-width:1.10283065" /><path
       d="m 590.97554,666.94707 c 0,-5.97168 0,-11.89952 0,-17.9231 41.45047,0 82.8577,0 124.33769,0 0,5.97398 0,11.8995 0,17.9231 -41.44309,0 -82.85032,0 -124.33769,0 z"
       id="path10"
       inkscape:connector-curvature="0"
       style="fill:#004c91;fill-opacity:1;stroke-width:1.10283065" /><path
       d="m 710.26053,472.26194 c 0,6.1032 0,12.02988 0,18.11346 -0.51655,0 -0.96879,0 -1.41999,0 -38.73594,0 -77.47294,-0.007 -116.20888,0.0322 -1.29876,10e-4 -1.62661,-0.3715 -1.60342,-1.7675 0.078,-4.93448 0.0738,-9.87357 0.002,-14.80689 -0.0222,-1.32102 0.37317,-1.59791 1.50115,-1.5956 26.72353,0.0312 53.44706,0.0243 80.1706,0.0243 11.97024,0 23.94154,0 35.91178,0 0.50286,0 1.0057,0 1.64664,0 z"
       id="path12"
       inkscape:connector-curvature="0"
       style="fill:#004c91;fill-opacity:1;stroke-width:1.10283065" /><path
       d="m 710.06762,497.9346 c 0,5.75824 0.0127,11.37918 -0.0337,17.00012 -0.003,0.30921 -0.45751,0.70954 -0.7822,0.88952 -0.26988,0.14884 -0.66098,0.0334 -0.99726,0.0334 -38.53459,0 -77.06708,0 -115.60062,0 -1.84271,0 -1.84482,0 -1.84482,-2.00171 0,-4.84449 0.0348,-9.68897 -0.0232,-14.53345 -0.0158,-1.19065 0.35632,-1.59445 1.37255,-1.44909 0.1244,0.0184 0.25195,0.002 0.37846,0.002 38.78654,-0.004 77.57414,-0.0106 116.36069,-0.0115 0.3289,0 0.66202,0.0393 1.17014,0.0704 z"
       id="path14"
       inkscape:connector-curvature="0"
       style="fill:#004c91;fill-opacity:1;stroke-width:1.10283065" /><path
       d="m 644.62501,573.19201 c 17.28227,0 34.56243,0 51.8447,0 1.73625,0 1.73835,0.004 1.73835,1.86211 10e-4,4.70488 10e-4,9.41092 0,14.11581 0,1.85634 -0.002,1.86326 -1.73835,1.86326 -27.18631,10e-4 -54.37264,0 -81.55895,0 -7.41828,0 -14.83552,-0.0265 -22.2538,0.0254 -1.22917,0.01 -1.66245,-0.28728 -1.63398,-1.75251 0.0991,-4.79488 0.0991,-9.59552 0,-14.39156 -0.0274,-1.46522 0.40481,-1.7548 1.63398,-1.75134 17.32128,0.0403 34.64467,0.0288 51.96805,0.0288 z"
       id="path16"
       inkscape:connector-curvature="0"
       style="fill:#004c91;fill-opacity:1;stroke-width:1.10283065" /><path
       d="m 674.42359,547.7224 c 0,3.24312 0.004,6.22664 -10e-4,9.21133 -0.004,2.53704 -0.0506,5.07408 -0.0127,7.61227 0.0137,0.91606 -0.28146,1.2091 -1.09529,1.18949 -1.98081,-0.0462 -3.96268,-0.0138 -5.94453,-0.0138 -24.83023,0 -49.65623,0 -74.4854,0 -1.82584,0 -1.82584,-10e-4 -1.82584,-2.02594 0,-4.79834 0.0485,-9.59667 -0.0295,-14.39501 -0.0222,-1.33486 0.39531,-1.60598 1.50536,-1.60252 11.33986,0.0346 22.6797,0.0231 34.01954,0.0231 15.38685,0 30.77159,0 46.15844,0 0.5798,10e-4 1.16382,10e-4 1.71094,10e-4 z"
       id="path20"
       inkscape:connector-curvature="0"
       style="fill:#004c91;fill-opacity:1;stroke-width:1.10283065" /><path
       d="m 670.29435,616.6724 c -0.6304,0 -1.12902,0 -1.6287,0 -25.33413,0 -50.66719,0 -76.00236,0 -1.73835,0 -1.73625,-0.001 -1.73835,-1.85865 -0.003,-4.88949 0.0232,-9.78128 -0.0358,-14.6696 -0.0148,-1.18027 0.35948,-1.4883 1.38097,-1.48715 25.58607,0.0231 51.17425,0.0243 76.75927,-0.003 1.05523,-10e-4 1.35884,0.35882 1.34725,1.49869 -0.0506,5.07408 -0.0211,10.14816 -0.0232,15.22338 0,0.35997 -0.0316,0.72109 -0.059,1.29679 z"
       id="path22"
       inkscape:connector-curvature="0"
       style="fill:#004c91;fill-opacity:1;stroke-width:1.10283065" /><path
       d="m 661.49088,641.79011 c -23.63161,0 -47.08508,0 -70.68296,0 0,-1.49406 0,-2.91084 0,-4.32646 0,-4.1061 0.0253,-8.20874 -0.02,-12.31485 -0.0116,-1.04296 0.20451,-1.44446 1.25447,-1.44215 22.75664,0.0312 45.51329,0.0243 68.26993,0.0243 0.59983,0 1.19122,-0.0969 1.18701,0.92413 -0.02,5.66593 -0.008,11.33303 -0.008,17.13511 z"
       id="path24"
       inkscape:connector-curvature="0"
       style="fill:#004c91;fill-opacity:1;stroke-width:1.10283065" /><path
       d="m 643.21873,522.9681 c 0,6.05821 0,11.9895 0,18.0454 -0.4923,0.0243 -0.94244,0.067 -1.38942,0.067 -16.43681,0.002 -32.87363,-0.0162 -49.31045,0.0346 -1.29664,0.004 -1.64136,-0.38765 -1.61922,-1.77789 0.0685,-4.97946 0.0495,-9.9624 0.006,-14.94418 -0.0116,-1.11565 0.26881,-1.51137 1.34936,-1.50906 16.60548,0.0346 33.21097,0.0243 49.81645,0.0265 0.33208,0 0.6673,0.0334 1.14695,0.0577 z"
       id="path26"
       inkscape:connector-curvature="0"
       style="fill:#004c91;fill-opacity:1;stroke-width:1.10283065" /><path
       d="m 626.35918,765.71851 c 0.40902,-2.89124 0.78431,-5.60594 1.17648,-8.31951 1.06155,-7.34576 2.16528,-14.68574 3.17941,-22.04073 0.44486,-3.23159 0.3658,-3.2535 3.34386,-3.24082 3.37022,0.0138 6.74677,-0.0923 10.11067,0.0992 7.54057,0.42804 12.8916,8.24337 11.71196,16.38404 -1.13535,7.85109 -7.05563,15.27992 -15.42795,16.98627 -0.49336,0.0992 -1.00569,0.12115 -1.51065,0.12345 -4.11974,0.0127 -8.24265,0.009 -12.58378,0.009 z m 8.99745,-7.42076 c 6.34302,1.04528 11.98501,-2.99968 12.31286,-10.79769 0.12755,-3.03314 -0.76113,-5.55057 -3.31646,-7.04348 -1.95446,-1.1445 -4.07231,-1.24603 -6.28082,-0.9576 -0.91292,6.31779 -1.81425,12.55713 -2.71558,18.79877 z"
       id="path28"
       inkscape:connector-curvature="0"
       style="stroke-width:1.10283065" /><path
       d="m 622.66322,765.75658 c -2.62597,0 -5.18552,0.0381 -7.74192,-0.0496 -0.29833,-0.01 -0.73582,-0.64954 -0.83913,-1.07757 -0.36053,-1.50562 -0.60088,-3.04699 -0.92241,-4.7522 -0.85072,0 -1.68037,0 -2.51001,0 -2.40037,0 -4.80707,0.0704 -7.20428,-0.0312 -1.09635,-0.045 -1.70357,0.36228 -2.13999,1.41908 -0.41536,1.00259 -1.06789,1.89326 -1.43159,2.90854 -0.4807,1.33832 -1.26817,1.69021 -2.52581,1.62214 -2.13894,-0.11768 -4.28842,-0.0312 -6.63819,-0.0312 0.253,-0.59302 0.41745,-1.03374 0.62618,-1.45139 5.12649,-10.34314 10.26774,-20.68165 15.38052,-31.03287 0.43222,-0.87451 0.92453,-1.23217 1.86697,-1.19179 2.10309,0.0923 4.21251,0.0565 6.31877,0.0115 0.83491,-0.0162 1.21758,0.17998 1.42104,1.21948 2.0293,10.36506 4.13344,20.71511 6.20808,31.07208 0.0791,0.39112 0.0801,0.80416 0.13177,1.36487 z m -12.39824,-22.9141 c -0.10226,-0.0115 -0.20135,-0.0243 -0.3015,-0.0334 -1.5486,3.42541 -3.09613,6.85082 -4.68795,10.3789 2.31077,0 4.40227,0 6.63081,0 -0.55766,-3.50846 -1.09952,-6.92695 -1.64136,-10.34543 z"
       id="path30"
       inkscape:connector-curvature="0"
       style="stroke-width:1.10283065" /><path
       d="m 792.958,765.75658 c -2.7609,0 -5.2825,0.0312 -7.79989,-0.0381 -0.28885,-0.01 -0.72845,-0.52957 -0.82332,-0.89876 -0.33418,-1.32216 -0.49546,-2.69971 -0.84967,-4.01495 -0.10226,-0.37843 -0.62829,-0.87683 -0.96669,-0.88375 -3.20049,-0.0681 -6.4031,-0.0681 -9.60255,-0.002 -0.38477,0.01 -0.89711,0.44187 -1.1206,0.83414 -0.77377,1.3637 -1.43052,2.80816 -2.17477,4.19379 -0.17078,0.31958 -0.50285,0.76146 -0.76744,0.76838 -2.59013,0.0589 -5.18237,0.0334 -8.00231,0.0334 0.58929,-1.23217 1.05313,-2.24168 1.54649,-3.2385 4.8524,-9.77088 9.7185,-19.53716 14.54667,-29.32305 0.39531,-0.80183 0.83702,-1.11564 1.66455,-1.09257 2.18953,0.0589 4.38118,0.0727 6.56966,0 0.85916,-0.0265 1.17331,0.3542 1.33882,1.18948 1.77419,9.05674 3.56208,18.11001 5.35103,27.16213 0.33839,1.69597 0.69576,3.38849 1.09002,5.31059 z m -12.46676,-22.88527 c -0.12862,-0.0403 -0.25722,-0.0784 -0.38477,-0.11998 -1.56442,3.45425 -3.13093,6.90618 -4.73961,10.45966 2.32764,0 4.45919,0 6.65295,0 0,-0.33804 0.0348,-0.60802 -0.006,-0.8676 -0.50285,-3.15774 -1.01412,-6.31433 -1.52224,-9.47208 z"
       id="path32"
       inkscape:connector-curvature="0"
       style="stroke-width:1.10283065" /><path
       d="m 696.95886,734.02226 c -1.33039,2.15861 -2.66076,4.32185 -4.03752,6.55776 -1.76893,-1.52061 -3.61164,-2.44474 -5.78325,-2.03979 -0.642,0.12115 -1.30929,0.38304 -1.85325,0.77069 -1.8522,1.32217 -1.77524,3.50617 0.22665,4.51799 1.5897,0.80414 3.31646,1.28178 4.95465,1.97401 2.56694,1.08567 4.77018,2.76663 4.91671,6.01437 0.21611,4.84448 -1.19966,9.10173 -4.9631,12.03565 -5.36262,4.17994 -14.07966,3.7023 -18.99531,-1.03374 1.41682,-2.24168 2.84103,-4.49952 4.28103,-6.78274 0.91188,0.7303 1.712,1.46638 2.5954,2.05709 1.83428,1.2264 3.82774,1.68328 5.91187,0.93912 0.65042,-0.23189 1.29242,-0.70492 1.77839,-1.2414 1.4358,-1.58637 1.19439,-3.53155 -0.60614,-4.5722 -1.02889,-0.59533 -2.1885,-0.90567 -3.27851,-1.37409 -1.40313,-0.6034 -2.85157,-1.12488 -4.17878,-1.89096 -1.54649,-0.89413 -2.33397,-2.42281 -2.47312,-4.37607 -0.51127,-7.20616 3.969,-13.28629 10.52917,-14.23233 3.6654,-0.52956 8.69491,0.6853 10.97511,2.67664 z"
       id="path34"
       inkscape:connector-curvature="0"
       style="stroke-width:1.10283065" /><path
       d="m 546.49746,762.83189 c 1.41682,-2.24399 2.83891,-4.50183 4.11764,-6.52777 1.84271,1.01182 3.50832,2.16555 5.32362,2.84624 1.61922,0.60571 3.35335,0.32651 4.77439,-0.93798 1.8016,-1.60252 1.62555,-4.0138 -0.4533,-5.1133 -1.2745,-0.67609 -2.67024,-1.08566 -4.02803,-1.55753 -4.98945,-1.72597 -6.87748,-4.11187 -5.20134,-10.8277 1.62345,-6.4943 7.37718,-10.45619 13.49987,-9.38554 2.0915,0.36458 4.12713,1.13527 6.17435,1.77328 0.46173,0.1419 0.86759,0.50532 1.38836,0.81799 -1.38098,2.24629 -2.68712,4.37837 -3.84777,6.27395 -1.70988,-0.61264 -3.27851,-1.44216 -4.91459,-1.66021 -1.0426,-0.13961 -2.33713,0.37841 -3.25111,1.04296 -1.55597,1.13065 -1.39574,3.19927 0.28252,4.1038 1.49589,0.80414 3.14042,1.27371 4.7101,1.91518 2.5743,1.05681 5.02107,2.50357 5.32678,5.80669 0.43326,4.68757 -0.8834,8.85829 -4.28631,11.95373 -5.11068,4.65182 -14.56353,4.39108 -19.61518,-0.52379 z"
       id="path36"
       inkscape:connector-curvature="0"
       style="stroke-width:1.10283065" /><path
       d="m 523.93163,765.75427 c 1.63925,-11.30995 3.24266,-22.36954 4.85977,-33.53067 5.77693,0 11.52433,0 17.46043,0 -0.30781,2.26246 -0.5798,4.47068 -0.9477,6.65814 -0.038,0.22728 -0.64833,0.47534 -0.99621,0.48226 -2.52687,0.0403 -5.05691,0.0427 -7.58379,0.0115 -0.75584,-0.0115 -1.13324,0.16729 -1.20809,1.11334 -0.11701,1.501 -0.40797,2.98585 -0.65359,4.68297 3.05396,0 6.01516,0 9.05859,0 -0.3658,2.50589 -0.70103,4.81103 -1.06051,7.27884 -2.99915,0 -5.97089,0 -9.04805,0 -0.29834,2.03748 -0.57453,3.92497 -0.87708,5.99129 3.20261,0 6.25552,0 9.53192,0 -0.33523,2.37783 -0.63145,4.57221 -0.98039,6.75736 -0.0348,0.2169 -0.39531,0.53186 -0.60615,0.53186 -5.59245,0.03 -11.18804,0.0231 -16.94915,0.0231 z"
       id="path38"
       inkscape:connector-curvature="0"
       style="stroke-width:1.10283065" /><path
       d="m 760.84759,742.92554 c -3.40606,-3.4854 -6.84269,-4.25493 -10.40793,-2.40667 -3.78558,1.96018 -6.17858,6.42624 -5.88973,10.98691 0.23508,3.68846 2.84419,6.48047 6.21546,6.74237 2.68817,0.20998 5.06219,-0.62417 7.20324,-2.35706 0.2646,-0.21459 0.52919,-0.42804 1.0995,-0.88837 -0.23613,1.74443 -0.41745,3.15197 -0.6188,4.55837 -0.23508,1.62905 -0.46806,3.26042 -0.74847,4.88025 -0.0538,0.30919 -0.26038,0.7476 -0.48808,0.83414 -5.75689,2.15862 -11.3177,2.22899 -16.343,-2.14477 -3.93104,-3.4208 -5.25194,-8.07838 -4.55829,-13.31744 1.23867,-9.36016 7.082,-16.03907 15.57134,-18.22768 3.30275,-0.84914 6.48744,-0.39689 9.63207,0.87453 0.65886,0.2642 0.81488,0.683 0.71262,1.35908 -0.45752,2.98006 -0.90449,5.9636 -1.37993,9.10634 z"
       id="path40"
       inkscape:connector-curvature="0"
       style="stroke-width:1.10283065" /><path
       d="m 702.81167,765.75427 c 1.28189,-8.85367 2.53216,-17.49968 3.80982,-26.32797 -2.22538,0 -4.35272,0 -6.64346,0 0.34578,-2.35014 0.63884,-4.51337 1.01097,-6.65815 0.0453,-0.25958 0.50284,-0.61954 0.76849,-0.61954 6.70144,-0.0243 13.40499,-0.01 20.10538,0.006 0.11385,0 0.2277,0.0969 0.37739,0.16498 -0.34049,2.31437 -0.681,4.61951 -1.03942,7.07117 -1.87855,0 -3.72443,0.0358 -5.56819,-0.0162 -0.83492,-0.0243 -1.11533,0.24574 -1.25026,1.21256 -1.12166,8.08069 -2.31498,16.14983 -3.52098,24.21435 -0.0527,0.34958 -0.42377,0.90568 -0.6578,0.9126 -2.42673,0.0646 -4.85873,0.0392 -7.39194,0.0392 z"
       id="path42"
       inkscape:connector-curvature="0"
       style="stroke-width:1.10283065" /><path
       d="m 581.704,739.3813 c -2.31182,0 -4.44338,0 -6.64662,0 0.36475,-2.47243 0.70525,-4.77526 1.0584,-7.16578 7.05669,0 14.07018,0 21.21964,0 -0.35947,2.43321 -0.70314,4.76603 -1.05734,7.1727 -1.92599,0 -3.73603,0.045 -5.54184,-0.0208 -0.84862,-0.0289 -1.16592,0.2815 -1.29559,1.20103 -1.16592,8.26066 -2.37507,16.5144 -3.57369,24.7716 -0.0126,0.083 -0.0611,0.16498 -0.12649,0.33573 -2.5585,0 -5.14968,0 -7.82941,0 1.2629,-8.74983 2.51422,-17.43046 3.79294,-26.29452 z"
       id="path44"
       inkscape:connector-curvature="0"
       style="stroke-width:1.10283065" /><path
       d="m 379.06056,762.77305 c -0.17183,1.03259 -0.31203,1.87711 -0.47543,2.86009 -1.05208,0 -2.15686,0 -3.45034,0 0.30782,-2.229 0.59877,-4.43031 0.91714,-6.6293 1.06051,-7.35038 2.13261,-14.69844 3.19628,-22.04882 0.51865,-3.58231 1.03732,-7.17039 1.537,-10.75732 0.0991,-0.70954 0.37001,-1.0522 1.06999,-1.00489 0.8307,0.0542 1.66772,0.0138 2.59435,0.0138 -0.9962,6.92464 -1.97027,13.69584 -2.98017,20.71741 1.03415,-0.83876 1.83005,-1.57253 2.70397,-2.17246 3.89626,-2.66972 8.97636,-2.11131 11.67718,1.27717 2.00401,2.51742 2.36769,5.56094 2.02825,8.69792 -0.43748,4.04496 -2.08307,7.47844 -5.02212,10.02702 -4.55619,3.94804 -9.42967,3.61923 -13.7961,-0.98067 z m 0.89922,-7.10232 c -0.0442,5.98552 4.60573,9.12596 9.44653,6.32125 3.32806,-1.92903 4.71747,-5.2506 4.97259,-9.16864 0.26881,-4.14418 -2.26228,-7.78533 -7.07357,-7.11618 -4.02698,0.55841 -7.30865,4.98179 -7.34555,9.96357 z"
       id="path46"
       inkscape:connector-curvature="0"
       style="stroke-width:1.10283065" /><path
       d="m 478.3572,745.7464 c 0.9456,-6.45163 1.92177,-12.83287 2.78515,-19.23258 0.14864,-1.10412 0.48914,-1.41562 1.41155,-1.3314 0.66413,0.0612 1.33565,0.0138 2.22643,0.0138 -0.23086,1.82981 -0.41745,3.53385 -0.66097,5.22521 -1.06473,7.34115 -2.14842,14.68114 -3.21736,22.02228 -0.60511,4.16841 -1.1828,8.34142 -1.81426,12.50637 -0.0453,0.30228 -0.41112,0.7453 -0.6578,0.773 -0.9066,0.0923 -1.8269,0.0334 -2.86949,0.0334 0.10331,-1.03028 0.18975,-1.8771 0.30677,-3.04699 -0.48492,0.4165 -0.79064,0.67147 -1.09003,0.93798 -2.74403,2.42283 -5.83173,3.47963 -9.29262,2.48512 -3.58,-1.03027 -5.46804,-3.87997 -5.95824,-7.72418 -0.81278,-6.36856 2.51212,-13.41896 8.24476,-15.64334 3.41767,-1.32447 7.85683,-0.94374 10.20134,2.88431 0.0306,0.0519 0.14969,0.0415 0.38477,0.0969 z m -0.9087,6.79427 c 0.19818,-5.1606 -3.73919,-8.00569 -8.17519,-6.57045 -3.88362,1.25756 -6.34513,5.65555 -6.22179,10.13777 0.0707,2.62242 0.84967,5.05677 3.26796,6.22204 2.51528,1.21024 4.95782,0.7303 7.15369,-0.99106 2.73876,-2.14592 3.81087,-5.24252 3.97533,-8.7983 z"
       id="path48"
       inkscape:connector-curvature="0"
       style="stroke-width:1.10283065" /><path
       d="m 284.85985,736.05743 c -1.89226,-1.19641 -3.67909,-2.75625 -5.71367,-3.52925 -4.62892,-1.75481 -8.98058,-0.54109 -12.84311,2.56473 -4.71325,3.78768 -7.44885,8.77868 -7.29916,15.38837 0.1497,6.54161 5.23191,12.05295 11.2028,12.21794 3.9827,0.10844 7.38139,-1.48023 10.51969,-3.97228 0.19819,-0.15576 0.39321,-0.31497 0.91714,-0.73953 -0.20346,1.47792 -0.45752,2.60511 -0.4902,3.74037 -0.0454,1.51484 -1.15011,1.79173 -2.03563,2.27629 -4.79231,2.61896 -9.7301,3.4381 -14.84394,1.17796 -6.46003,-2.85547 -9.92724,-10.10662 -8.87306,-17.66005 1.22918,-8.80176 8.2532,-17.16395 16.73937,-19.04106 4.50241,-0.99335 8.79821,-0.5134 12.60802,2.56703 0.33735,0.27228 0.60089,0.94837 0.57243,1.41563 -0.0748,1.30716 -0.32259,2.60279 -0.46068,3.59385 z"
       id="path50"
       inkscape:connector-curvature="0"
       style="stroke-width:1.10283065" /><path
       d="m 670.93741,732.11399 c -1.64769,11.35034 -3.25532,22.43878 -4.87138,33.57914 -2.6597,0 -5.20871,0 -7.92008,0 0.44593,-3.07353 0.87919,-6.04782 1.30719,-9.02213 1.05313,-7.30075 2.13051,-14.5946 3.14146,-21.89997 0.36581,-2.64088 0.2899,-2.65242 2.76618,-2.65473 1.80477,-0.002 3.60636,-0.002 5.57663,-0.002 z"
       id="path52"
       inkscape:connector-curvature="0"
       style="stroke-width:1.10283065" /><path
       d="m 729.27693,765.67351 c -2.70292,0 -5.29411,0 -7.94116,0 0.83386,-5.67401 1.66139,-11.24418 2.4689,-16.81668 0.80223,-5.52287 1.58022,-11.04806 2.3814,-16.65285 2.65654,0 5.24667,0 7.9401,0 -1.61712,11.16344 -3.22368,22.24957 -4.84924,33.46953 z"
       id="path54"
       inkscape:connector-curvature="0"
       style="stroke-width:1.10283065" /><path
       d="m 490.09447,755.11002 c -0.33313,2.67202 0.0843,4.90333 1.99978,6.47585 2.1168,1.7352 4.51401,1.88634 6.76997,0.55841 1.59181,-0.93568 2.92113,-2.39975 4.51928,-3.75884 0.5935,0.40842 1.43685,0.98528 2.27703,1.55984 -2.55218,5.13291 -9.20723,7.89608 -14.09548,5.86091 -3.86463,-1.60714 -5.33837,-5.24367 -5.24877,-9.30824 0.0769,-3.45656 1.08053,-6.68121 3.06556,-9.45708 2.82521,-3.95035 6.58548,-5.46633 11.04362,-4.8018 3.61057,0.53879 6.23549,3.84421 6.50747,7.99762 0.1033,1.58406 0.0169,3.18197 0.0169,4.87448 -5.81908,-10e-4 -11.28713,-10e-4 -16.85532,-10e-4 z m 0.73371,-3.25927 c 2.16634,0 4.22832,0 6.2903,0 2.08835,0 4.17879,0 6.25131,0 0.18765,-3.33311 -1.84271,-5.81823 -4.8893,-6.21742 -3.09719,-0.40495 -7.07567,2.74817 -7.65231,6.21742 z"
       id="path56"
       inkscape:connector-curvature="0"
       style="stroke-width:1.10283065" /><path
       d="m 366.87738,745.44989 c -0.0927,0.22959 -0.0495,0.15114 -0.0263,0.0658 0.23402,-0.90568 0.2414,-2.34784 0.74426,-2.59589 0.87075,-0.43033 2.04511,-0.11999 3.19944,-0.11999 -1.10373,7.6192 -2.20218,15.2107 -3.31225,22.87835 -1.13745,0 -2.21062,0 -3.42925,0 0.0875,-0.92414 0.16867,-1.78942 0.28146,-2.9766 -0.5819,0.51109 -0.92768,0.8226 -1.27555,1.12718 -2.66182,2.31437 -5.65148,3.18659 -8.98902,2.34783 -3.45772,-0.86761 -6.04363,-4.3507 -6.148,-8.76831 -0.13809,-5.83437 1.90386,-10.6131 6.56651,-13.727 2.4299,-1.62214 5.17603,-2.17246 7.88423,-1.15603 1.59182,0.60109 2.96858,1.89903 4.50453,2.92469 z M 351.597,755.62804 c -0.11385,0.0427 -0.22876,0.0854 -0.34156,0.13037 0.50495,1.56791 0.77483,3.3008 1.56862,4.67373 1.66983,2.88432 5.61775,3.3781 8.69385,1.24603 2.75458,-1.90827 4.03014,-4.80411 4.38224,-8.27912 0.56504,-5.56096 -3.22369,-8.88713 -7.95276,-7.48306 -3.75605,1.11796 -6.30928,5.13984 -6.35039,9.71205 z"
       id="path58"
       inkscape:connector-curvature="0"
       style="stroke-width:1.10283065" /><path
       d="m 306.69936,745.82369 c 0.18132,-1.04296 0.34893,-2.00517 0.52603,-3.02621 1.11533,0 2.19376,0 3.45245,0 -1.109,7.65726 -2.20852,15.23722 -3.31646,22.88065 -1.20915,0 -2.32342,0 -3.4514,0 0.10437,-0.94837 0.1982,-1.80442 0.32259,-2.94546 -0.71579,0.60802 -1.24815,1.08334 -1.80055,1.52754 -3.63271,2.93622 -8.44189,2.99044 -11.68561,0.0992 -1.49167,-1.32909 -2.257,-3.13697 -2.69871,-5.15829 -1.42737,-6.537 2.44992,-14.4377 8.23633,-16.45211 3.78978,-1.32101 7.31286,-0.96682 9.98628,2.77586 0.0674,0.10038 0.19607,0.14306 0.42905,0.29881 z m -0.83281,6.58431 c -0.0569,-5.81592 -4.49925,-7.86379 -8.55363,-6.32934 -3.53574,1.34064 -5.92979,5.47789 -5.88868,9.87473 0.0475,5.2979 3.83406,8.23182 8.41449,6.52315 3.53784,-1.31871 6.0352,-5.49172 6.02782,-10.06854 z"
       id="path60"
       inkscape:connector-curvature="0"
       style="stroke-width:1.10283065" /><path
       d="m 226.11974,742.0914 c 6.69511,0.0403 10.88443,6.36971 9.03012,13.64393 -1.4748,5.7917 -6.32299,10.32468 -11.76151,10.72156 -6.74782,0.49379 -11.39466,-5.20791 -10.11172,-12.68173 1.10794,-6.44355 6.8564,-11.71953 12.84311,-11.68376 z m 5.89393,10.73078 c 0.0232,-4.65527 -3.0234,-7.64573 -7.26332,-7.12539 -4.64473,0.56993 -8.25425,5.09715 -8.15726,10.23006 0.0664,3.47272 1.85325,6.02591 4.73854,6.76891 5.33311,1.37293 10.64831,-3.54079 10.68204,-9.87358 z"
       id="path62"
       inkscape:connector-curvature="0"
       style="stroke-width:1.10283065" /><path
       d="m 431.05813,742.09025 c 5.94664,-0.0542 10.62722,5.02908 9.25045,12.76941 -1.12059,6.31202 -6.03836,11.08036 -11.84796,11.58223 -5.97195,0.51572 -11.34406,-3.97458 -10.21819,-12.33907 0.88762,-6.6143 6.70882,-11.98373 12.8157,-12.01257 z m -9.37801,13.61163 c -0.0127,4.69335 2.95382,7.66418 7.21166,7.21769 4.6869,-0.49148 8.39762,-5.50326 8.10035,-10.69616 -0.23193,-4.0092 -2.80413,-6.73083 -6.53699,-6.63623 -4.94413,0.12346 -8.76026,4.65297 -8.77502,10.1147 z"
       id="path64"
       inkscape:connector-curvature="0"
       style="stroke-width:1.10283065" /><path
       d="m 97.152074,765.76812 c 1.12165,-7.74956 2.218,-15.31338 3.324896,-22.95334 1.11532,0 2.1927,0 3.42293,0 -0.0674,0.79953 -0.13599,1.58407 -0.23192,2.70203 0.53236,-0.51572 0.86653,-0.82953 1.19017,-1.15604 2.13051,-2.14707 4.69006,-2.64318 7.4109,-2.06631 2.6576,0.56531 4.07125,2.75163 4.00274,6.28894 -0.0422,2.14478 -0.41851,4.2884 -0.70947,6.42393 -0.48176,3.53386 -1.01517,7.06425 -1.537,10.66733 -1.16381,0 -2.23803,0 -3.47037,0 0.28779,-2.08246 0.57137,-4.09917 0.84862,-6.11819 0.43643,-3.17736 0.93296,-6.34779 1.2861,-9.53668 0.37529,-3.38965 -2.09677,-5.21599 -5.51021,-4.1684 -1.64769,0.50532 -2.94328,1.61751 -3.46193,3.3458 -0.7527,2.5128 -1.29665,5.1133 -1.77525,7.71149 -0.46279,2.51972 -0.74952,5.07407 -1.07526,7.62034 -0.11912,0.93797 -0.46385,1.37063 -1.387311,1.25294 -0.737927,-0.09 -1.495885,-0.0138 -2.327635,-0.0138 z"
       id="path66"
       inkscape:connector-curvature="0"
       style="stroke-width:1.10283065" /><path
       d="m 318.66221,765.67582 c -1.20808,0 -2.28335,0 -3.4925,0 0.40375,-2.81855 0.78958,-5.5298 1.18175,-8.24105 0.63672,-4.4003 1.31666,-8.79483 1.8912,-13.20436 0.14758,-1.12027 0.43116,-1.67175 1.54438,-1.516 0.69997,0.0969 1.42209,0.0184 2.14209,0.0184 -0.0812,0.86298 -0.1518,1.62675 -0.24456,2.62703 0.70945,-0.61263 1.25131,-1.09027 1.80053,-1.55522 2.04828,-1.73751 4.41071,-2.03748 6.83006,-1.49869 2.80412,0.62416 4.21461,3.05967 3.87939,6.89811 -0.32996,3.78999 -0.92242,7.55113 -1.41682,11.3215 -0.18554,1.4087 -0.47334,2.80354 -0.60827,4.21339 -0.0707,0.75223 -0.28568,1.07527 -0.99093,1.03374 -0.79274,-0.0427 -1.5897,-0.0115 -2.62913,-0.0115 0.25616,-1.82749 0.49546,-3.52 0.72739,-5.21483 0.46173,-3.35963 1.01095,-6.71005 1.35779,-10.08585 0.47965,-4.67373 -2.43834,-5.39482 -5.55555,-4.56067 -2.07147,0.55609 -3.31435,2.26938 -3.81298,4.40491 -0.72528,3.10122 -1.21653,6.27165 -1.75522,9.42363 -0.32679,1.93825 -0.55871,3.89497 -0.84862,5.94744 z"
       id="path68"
       inkscape:connector-curvature="0"
       style="stroke-width:1.10283065" /><path
       d="m 197.28152,742.73172 c -0.77378,5.12137 -1.38204,10.12854 -2.31183,15.06648 -1.35778,7.20847 -6.2745,9.64628 -12.14314,8.35295 -2.81361,-0.62185 -4.55406,-3.15889 -4.40964,-6.78966 0.11912,-3.01006 0.642,-6.00744 1.03099,-9.00251 0.2762,-2.13669 0.65992,-4.25493 0.92031,-6.39278 0.10646,-0.87452 0.33417,-1.34293 1.23444,-1.25064 0.78853,0.0784 1.58865,0.0162 2.42779,0.0162 -0.67468,4.87679 -1.32827,9.6382 -1.99347,14.39731 -0.42272,3.03083 0.28885,4.90333 2.12418,5.5298 2.78938,0.95298 5.69786,-0.13267 6.62237,-2.82085 0.72951,-2.12054 1.0816,-4.41645 1.45373,-6.66276 0.5155,-3.11621 0.89711,-6.26011 1.32827,-9.39015 0.10123,-0.73032 0.36369,-1.15373 1.14906,-1.07066 0.79063,0.083 1.59392,0.0173 2.56694,0.0173 z"
       id="path70"
       inkscape:connector-curvature="0"
       style="stroke-width:1.10283065" /><path
       d="m 120.69092,760.81057 c 1.40101,-0.6057 2.44359,-1.05912 3.54521,-1.53445 0.17711,0.45918 0.31099,0.83645 0.46595,1.20102 0.78748,1.85058 2.18427,2.70663 3.96795,2.43551 1.83217,-0.2792 3.15306,-1.72366 3.4398,-3.67115 0.2024,-1.37639 -0.33628,-2.35475 -1.3483,-2.99275 -1.16382,-0.73493 -2.39299,-1.33833 -3.60214,-1.97865 -3.43031,-1.81134 -3.9184,-4.80179 -2.18743,-8.25604 1.40838,-2.81393 4.53298,-4.35069 7.41511,-3.82575 1.66773,0.30458 3.11934,1.80096 3.88783,4.07841 -0.99831,0.53418 -2.00716,1.07528 -3.01074,1.6106 -1.53173,-2.3882 -2.84419,-2.84392 -4.5488,-1.60021 -1.65612,1.21025 -1.69197,3.23389 -0.0189,4.38761 0.84756,0.58378 1.78472,1.01873 2.70397,1.46523 5.33733,2.59818 5.97511,8.24451 1.38098,12.31485 -3.10773,2.75394 -7.72083,2.76431 -10.12437,-0.11076 -0.78958,-0.94375 -1.25237,-2.214 -1.96605,-3.52347 z"
       id="path72"
       inkscape:connector-curvature="0"
       style="stroke-width:1.10283065" /><path
       d="m 89.156097,765.68505 c -1.234447,0 -2.394048,0 -3.679097,0 1.791057,-12.37945 3.569463,-24.65623 5.355248,-36.99184 1.226015,0 2.39405,0 3.674881,0 -1.778407,12.29062 -3.552596,24.55931 -5.351032,36.99184 z"
       id="path74"
       inkscape:connector-curvature="0"
       style="stroke-width:1.10283065" /><path
       d="m 147.51566,746.27018 c -0.70947,4.86295 -1.40523,9.61284 -2.09256,14.36271 -0.19714,1.3614 -0.37318,2.72163 -0.55556,4.08765 -0.098,0.728 -0.37739,1.14218 -1.15644,1.06373 -0.78641,-0.0808 -1.58549,-0.0184 -2.52265,-0.0184 0.94349,-6.54391 1.86274,-12.94132 2.79463,-19.41486 -0.76323,-0.0589 -1.37781,-0.10845 -2.1305,-0.16729 0.14653,-1.15142 0.28253,-2.22207 0.41008,-3.23158 0.15918,-0.0946 0.22876,-0.17075 0.3015,-0.17536 1.88804,-0.14884 1.91334,-0.14192 2.25489,-2.19209 0.33418,-2.02131 0.60932,-4.05648 0.91609,-6.1205 1.1986,0 2.27914,0 3.45771,0 -0.38055,2.73317 -0.75373,5.39481 -1.14694,8.21106 1.22918,0 2.38456,0 3.73286,0 -0.15286,1.14218 -0.23087,2.12747 -0.44803,3.07351 -0.0548,0.23652 -0.55345,0.47534 -0.86021,0.49611 -0.95826,0.0658 -1.92283,0.0253 -2.95487,0.0253 z"
       id="path76"
       inkscape:connector-curvature="0"
       style="stroke-width:1.10283065" /><path
       d="m 205.3165,765.67813 c -1.19229,0 -2.2665,0 -3.49884,0 0.93611,-6.48739 1.85431,-12.86402 2.78515,-19.32949 -0.75374,-0.052 -1.4495,-0.10156 -2.19165,-0.15114 0.18238,-1.16526 0.35211,-2.24399 0.53763,-3.42772 0.69788,0 1.35779,0 2.1516,0 0.37318,-2.51511 0.77482,-4.93678 1.0742,-7.37805 0.0949,-0.77992 0.34894,-1.03374 1.02994,-0.99797 0.7917,0.0403 1.58761,0.01 2.60278,0.01 -0.38583,2.792 -0.75269,5.4398 -1.14274,8.25604 1.26186,0 2.45836,0 3.75923,0 -0.18765,1.27948 -0.34999,2.38821 -0.52921,3.61232 -0.92557,0 -1.80686,0.0565 -2.67973,-0.0162 -0.84334,-0.0704 -1.17225,0.26997 -1.29981,1.1918 -0.83491,6.04436 -1.7162,12.07487 -2.59855,18.23114 z"
       id="path78"
       inkscape:connector-curvature="0"
       style="stroke-width:1.10283065" /><path
       d="m 343.68113,765.70697 c -1.16064,0 -2.20218,0 -3.48933,0 0.92767,-6.48047 1.84271,-12.87556 2.77038,-19.35833 -0.76217,-0.0496 -1.42104,-0.0923 -2.19058,-0.14422 0.18975,-1.17679 0.3679,-2.2786 0.55027,-3.41387 0.76429,-0.045 1.42632,-0.0808 2.16951,-0.12344 0.40059,-2.71125 0.79486,-5.37174 1.206,-8.14645 1.09001,0 2.19796,0 3.46298,0 -0.37423,2.70664 -0.74425,5.36251 -1.13324,8.17067 1.30402,0 2.51,0 3.75077,0 -0.17183,1.22988 -0.32257,2.3236 -0.49863,3.58116 -0.9456,0 -1.90596,0.0427 -2.85789,-0.0138 -0.75795,-0.0427 -1.0099,0.30458 -1.12059,1.09027 -0.8444,6.07551 -1.72675,12.1441 -2.61965,18.35805 z"
       id="path80"
       inkscape:connector-curvature="0"
       style="stroke-width:1.10283065" /><path
       d="m 169.36886,765.68043 c -1.14168,0 -2.21484,0 -3.50094,0 0.92769,-6.45854 1.84271,-12.82363 2.77461,-19.31564 -0.73792,-0.0612 -1.42737,-0.11998 -2.18638,-0.18229 0.18237,-1.1491 0.3521,-2.22668 0.54186,-3.41156 0.7063,0 1.36621,0 2.15263,0 0.4164,-2.78739 0.817,-5.48249 1.23445,-8.26989 1.08686,0 2.16003,0 3.44718,0 -0.36897,2.70202 -0.73265,5.38328 -1.11743,8.19144 1.29559,0 2.46362,0 3.73286,0 -0.16972,1.23448 -0.32153,2.34321 -0.49125,3.58692 -1.03204,0 -2.0409,-0.068 -3.03289,0.0381 -0.32468,0.0334 -0.82648,0.48457 -0.87497,0.81337 -0.91819,6.11475 -1.78051,12.23986 -2.67973,18.54957 z"
       id="path82"
       inkscape:connector-curvature="0"
       style="stroke-width:1.10283065" /><path
       d="m 408.88761,742.73172 c -0.0516,0.80876 -0.0927,1.44676 -0.15918,2.48512 2.40776,-2.89816 4.96099,-4.1661 8.20365,-2.10209 -0.71369,1.15372 -1.39152,2.25322 -2.06515,3.34118 -3.01284,-1.46869 -5.12227,-0.72107 -6.25762,2.72164 -0.90027,2.72856 -1.29137,5.67171 -1.80476,8.54217 -0.4259,2.3836 -0.681,4.8041 -1.07422,7.19463 -0.0527,0.31496 -0.45013,0.76837 -0.72422,0.80183 -0.86443,0.10378 -1.74573,0.0358 -2.81783,0.0358 0.21927,-1.72366 0.39743,-3.29272 0.62303,-4.85833 0.82226,-5.70516 1.66981,-11.41148 2.48365,-17.12125 0.098,-0.68763 0.27197,-1.10411 1.00568,-1.05682 0.83808,0.0565 1.67932,0.0162 2.58697,0.0162 z"
       id="path84"
       inkscape:connector-curvature="0"
       style="stroke-width:1.10283065" /><path
       d="m 156.84411,742.81709 c 1.27768,0 2.354,0 3.49673,0 -1.11005,7.65958 -2.20641,15.22108 -3.31435,22.85988 -1.15117,0 -2.22538,0 -3.49462,0 1.10795,-7.64688 2.20641,-15.23146 3.31224,-22.85988 z"
       id="path86"
       inkscape:connector-curvature="0"
       style="stroke-width:1.10283065" /><path
       d="m 662.66523,725.83889 c 2.45309,-2.50819 4.77546,-4.88486 7.17899,-7.34114 1.09425,0.98297 2.34766,2.1067 3.69175,3.31234 -2.54374,2.16323 -4.98207,4.25608 -7.45413,6.30048 -0.19819,0.16498 -0.72527,0.10155 -0.95298,-0.0761 -0.78326,-0.61147 -1.50116,-1.32217 -2.46363,-2.19554 z"
       id="path88"
       inkscape:connector-curvature="0"
       style="stroke-width:1.10283065" /><path
       d="m 307.18955,731.01219 c -2.69449,2.56242 -5.2783,5.02332 -7.90637,7.52228 -0.61775,-0.42111 -1.2081,-0.82722 -1.95551,-1.33832 2.19164,-2.71586 4.31266,-5.34751 6.45898,-8.008 1.1343,0.60456 2.20113,1.17681 3.4029,1.82404 z"
       id="path90"
       inkscape:connector-curvature="0"
       style="stroke-width:1.10283065" /><path
       d="m 162.39228,733.53769 c -0.019,1.70405 -1.36095,3.10236 -2.95066,3.07813 -1.30297,-0.0208 -2.11469,-0.92874 -2.08622,-2.3409 0.0306,-1.61291 1.49693,-3.17736 2.95592,-3.14851 1.23656,0.0231 2.09572,1.01874 2.08096,2.41128 z"
       id="path92"
       inkscape:connector-curvature="0"
       style="stroke-width:1.10283065" /><path
       style="fill:#004c91;stroke-width:0.28620282"
       d="m 291.4345,637.33841 c -0.96448,-0.4722 -1.10952,-1.21392 -0.54417,-2.7826 0.41449,-1.15004 0.49944,-1.99887 0.44732,-4.46953 -0.097,-4.59568 -0.0183,-4.63969 0.91693,-0.51332 l 0.86242,3.80487 0.0196,-2.12728 c 0.0243,-2.63087 0.53003,-6.95145 0.79061,-6.75377 0.10597,0.0804 0.33423,1.04136 0.50727,2.13555 0.409,2.58634 1.13898,4.59876 2.1191,5.84197 l 0.78752,0.9989 -0.5424,0.66573 c -0.69171,0.84895 -1.67515,0.84783 -2.64872,-0.002 -1.01071,-0.88333 -1.13497,-0.64059 -0.3449,0.67376 0.82057,1.36508 0.80873,1.74241 -0.0675,2.15475 -1.22182,0.57491 -1.72552,0.6567 -2.30298,0.37398 z m -16.97703,-1.59345 c -0.81624,-0.29995 -1.96888,-1.48691 -1.96747,-2.02605 5.3e-4,-0.18761 0.68158,-1.30626 1.51352,-2.48592 1.74299,-2.4715 2.04725,-3.50534 3.52128,-11.96486 0.50139,-2.87744 1.20099,-6.20297 1.55471,-7.39007 0.85264,-2.86167 0.83065,-3.84311 -0.11206,-5.00014 -0.73078,-0.89693 -1.31156,-1.19502 -1.31156,-0.67317 0,0.13952 0.13019,0.41345 0.28931,0.60875 0.21353,0.26207 0.0337,0.44168 -0.68618,0.68567 -0.53654,0.18182 -1.06848,0.26005 -1.18213,0.17385 -0.38301,-0.29054 -1.9935,0.75476 -2.31294,1.50122 -0.17423,0.40713 -1.5139,2.26621 -2.97705,4.13127 -3.17077,4.04177 -3.49244,4.90904 -2.84093,7.6596 0.23328,0.98494 0.4852,1.79081 0.55981,1.79081 0.0746,0 1.05284,-2.35293 2.17381,-5.22874 1.58493,-4.06605 2.12761,-5.18661 2.44051,-5.03923 0.32283,0.15205 0.40237,-0.0606 0.40237,-1.07573 0,-1.04406 0.10163,-1.29864 0.58126,-1.45642 1.01119,-0.33259 1.16551,-0.22663 1.34086,0.92053 0.15593,1.02019 -0.0371,1.52741 -2.15938,5.67261 -3.56955,6.97216 -3.63783,7.16054 -3.63783,10.03642 0,3.51499 -0.67511,4.15279 -3.01534,2.84868 -1.34601,-0.75008 -2.04378,-1.93525 -1.65893,-2.81779 0.36369,-0.8341 1.78235,-2.27497 2.23988,-2.27497 0.76018,0 0.3006,-0.63168 -1.96768,-2.70454 -1.28444,-1.17379 -2.29276,-2.29391 -2.2407,-2.4892 0.052,-0.19526 0.55079,-0.53535 1.10826,-0.75576 1.65554,-0.65454 2.19385,-1.10171 2.94393,-2.44555 0.99146,-1.77627 4.91563,-10.05513 4.91563,-10.37054 0,-0.14231 -0.74905,-0.25874 -1.66455,-0.25874 -2.01972,0 -2.56061,-0.61102 -2.30148,-2.59992 0.0866,-0.66443 0.007,-1.86639 -0.17634,-2.67102 -0.2967,-1.30059 -0.28605,-1.49573 0.096,-1.7581 0.23692,-0.16271 0.42969,-0.68318 0.42969,-1.16003 0,-1.13266 0.66815,-2.2743 1.33105,-2.2743 0.2897,0 0.85402,0.28603 1.25403,0.63561 l 0.7273,0.63563 1.0109,-1.40954 c 1.01109,-1.4098 1.61852,-3.1794 1.61852,-4.71514 0,-1.37299 -0.47608,-1.27003 -0.77237,0.16705 -0.54946,2.66506 -0.74172,2.75348 -0.76018,0.34961 -0.0168,-2.18594 0.0146,-2.30658 0.79495,-3.05616 l 0.81244,-0.78039 -0.74787,-0.18296 c -2.44761,-0.59886 -2.62634,-0.5942 -3.17785,0.0827 -0.29833,0.36616 -0.54089,1.073 -0.54089,1.57625 0,1.00744 -0.51679,1.71652 -1.14004,1.56421 -0.37443,-0.0915 -3.24958,1.92594 -3.24862,2.27947 2.3e-4,0.0872 0.41143,0.50209 0.91375,0.92199 1.2952,1.08266 0.79071,1.60574 -0.8518,0.88319 -0.67517,-0.29702 -1.88541,-0.53932 -2.68944,-0.53845 -1.73366,0.002 -6.47058,1.62096 -10.85536,3.71043 -3.20123,1.52547 -4.26266,2.47085 -5.13768,4.57599 -0.27074,0.65136 -0.6219,1.28262 -0.78035,1.40281 -0.46485,0.35261 -1.2146,-0.82727 -2.02643,-3.189 -0.41663,-1.21203 -0.90065,-2.26226 -1.07561,-2.33384 -0.58564,-0.2396 -0.95045,0.85476 -0.807,2.42077 0.1275,1.39166 0.10532,1.46713 -0.30768,1.04723 -0.57826,-0.58793 -1.18603,-2.04222 -1.18603,-2.83799 0,-0.34477 0.28689,-0.90384 0.63754,-1.24238 0.55351,-0.53436 0.79117,-0.57234 1.80304,-0.28816 2.16187,0.60718 4.83087,-0.66284 13.56852,-6.45651 l 2.44632,-1.62208 0.23703,0.90106 c 0.13036,0.49557 0.27249,0.95222 0.31584,1.01478 0.0433,0.0625 1.00611,-0.76672 2.13946,-1.8428 l 2.06064,-1.9565 1.02242,0.64017 c 1.18841,0.74411 1.51608,0.55994 0.93622,-0.52627 -0.39034,-0.73116 -0.38516,-0.7588 0.10651,-0.56727 0.84707,0.32996 0.89799,-0.39198 0.0649,-0.92071 -0.55714,-0.35362 -1.55619,-0.48912 -3.60643,-0.48912 -3.12308,0 -3.08526,-0.0225 -4.21757,2.50536 -0.24205,0.54034 -0.6146,0.98244 -0.8279,0.98244 -0.4143,0 -0.55617,-0.66595 -0.88774,-4.16706 l -0.19945,-2.10609 1.9781,0.16642 c 1.88432,0.15851 1.98526,0.13279 2.12914,-0.54253 0.1431,-0.67158 0.18221,-0.68215 0.74242,-0.20057 0.32525,0.27962 0.82707,0.50439 1.11514,0.49951 0.28808,-0.004 1.91425,-0.89665 3.6137,-1.9817 2.4737,-1.57937 3.26532,-2.25738 3.96935,-3.39965 1.17957,-1.91382 1.64812,-2.19478 1.00672,-0.60367 -0.44856,1.11273 -0.47636,1.44433 -0.21193,2.52761 0.16741,0.68577 0.74671,1.81758 1.28735,2.51512 0.83548,1.07793 1.13434,1.26337 1.99176,1.23578 l 1.00876,-0.0324 -0.89797,-0.25923 c -2.81669,-0.81311 -2.88298,-6.62608 -0.0854,-7.48787 0.63455,-0.19546 1.48163,0.0616 3.24381,0.98456 0.25975,0.13604 0.4521,0.10038 0.4521,-0.084 0,-0.17641 -0.66846,-0.78732 -1.48545,-1.35757 l -1.48545,-1.03686 1.6792,-0.61055 c 0.92356,-0.33582 1.72442,-0.66364 1.77967,-0.72852 0.14408,-0.16914 -1.56722,-3.57436 -2.08678,-4.15237 -0.39204,-0.43613 -0.49615,-0.43387 -1.02671,0.0223 -0.32476,0.27917 -0.97126,1.09821 -1.43669,1.82009 -0.68706,1.06562 -0.84624,1.18835 -0.84624,0.65246 0,-0.36304 -0.0981,-0.73455 -0.21819,-0.82557 -0.12,-0.091 -1.17364,0.11456 -2.34141,0.45689 -1.16777,0.34232 -2.17554,0.62242 -2.2395,0.62242 -0.064,0 0.0612,-0.5213 0.27811,-1.15845 0.473,-1.38944 0.34882,-1.61889 -0.63063,-1.16514 -0.6664,0.30872 -0.79312,0.25493 -1.27194,-0.53994 -0.29248,-0.48555 -1.2047,-1.28336 -2.02714,-1.77287 -0.85956,-0.51163 -1.97663,-1.54101 -2.62733,-2.4211 -1.35342,-1.83055 -3.45043,-3.69561 -6.66413,-5.92699 -2.11645,-1.46952 -2.58103,-1.66576 -4.32718,-1.82785 -1.07589,-0.1 -1.95616,-0.20643 -1.95616,-0.2368 0,-0.68884 0.90264,-3.38453 1.2699,-3.79244 0.70382,-0.78177 1.314,-0.52869 2.08507,0.8648 0.89401,1.61569 3.52717,3.81381 5.9231,4.94453 4.1567,1.96168 6.28366,2.38761 5.41175,1.08372 -0.76841,-1.1491 -9.9901,-9.99217 -11.18839,-10.72903 -0.85995,-0.52882 -1.709,-0.78578 -2.5963,-0.78578 -1.97915,0 -2.4542,-1.01901 -1.43318,-3.07423 1.24771,-2.51152 2.68786,-2.56039 3.61808,-0.12277 0.33083,0.86693 0.96551,2.00923 1.41038,2.53845 0.44487,0.52921 3.10005,2.57347 5.9004,4.54278 2.80035,1.96933 5.74535,4.25526 6.54444,5.07986 1.48768,1.53521 2.67068,2.02324 2.28926,0.94441 -0.54572,-1.54356 -0.42285,-2.44373 0.5168,-3.7863 1.12501,-1.60739 1.70962,-1.8763 2.72601,-1.25397 1.22713,0.75133 0.99984,-0.17725 -0.47607,-1.94507 -0.68708,-0.823 -1.67655,-2.49511 -2.19881,-3.71584 -0.52227,-1.22073 -1.62088,-3.43231 -2.44136,-4.91462 -1.40857,-2.54478 -2.59957,-3.85011 -5.37436,-5.89025 -0.42026,-0.30899 -0.3481,-0.48429 0.75846,-1.84244 1.01605,-1.24703 1.35988,-1.48427 2.03251,-1.4024 0.7724,0.094 0.82483,0.19075 1.14184,2.10698 0.18272,1.10464 0.61786,2.6028 0.96696,3.32925 1.13949,2.3713 7.94714,11.68593 9.68305,13.24894 0.855,0.76984 0.91709,0.93799 0.84892,2.29878 -0.07,1.39715 -0.0407,1.46817 0.60635,1.46817 0.43221,0 0.94898,-0.36155 1.41841,-0.99236 0.97343,-1.30807 1.93088,-1.09121 2.49471,0.56506 0.48523,1.42532 0.34335,1.8782 -0.79752,2.54593 -0.99792,0.58407 -1.43691,1.60325 -0.87783,2.03804 0.63463,0.49353 1.46112,0.29508 2.27601,-0.5465 l 0.80255,-0.82882 -0.0723,-3.82208 c -0.0465,-2.45806 -0.17519,-3.86398 -0.36061,-3.93952 -0.16408,-0.0669 -0.35918,0.4265 -0.45278,1.14492 -0.0904,0.6943 -0.26444,1.33821 -0.38664,1.4309 -0.12222,0.0927 -0.0557,-0.64819 0.1479,-1.64643 0.5434,-2.66487 0.48055,-6.67555 -0.17257,-11.00925 -0.65663,-4.35704 -0.96585,-5.40321 -1.91437,-6.4768 -0.84925,-0.96123 -0.89582,-2.16108 -0.0978,-2.52241 1.01142,-0.45801 2.74017,-0.68518 2.89371,-0.38026 0.0813,0.16137 -0.0926,0.79358 -0.38657,1.40491 -1.0715,2.22894 -0.67798,5.00891 1.55511,10.98592 0.68413,1.8311 1.45564,3.9561 1.71449,4.72223 0.25887,0.76613 0.91803,2.17683 1.46483,3.13488 0.77992,1.36649 0.97723,1.98334 0.91554,2.86218 -0.048,0.6832 0.046,1.17128 0.24081,1.25097 0.43135,0.17647 3.43836,-3.19402 4.75528,-5.3301 2.37957,-3.85968 4.31393,-10.36549 3.93858,-13.24647 l -0.15878,-1.21875 1.52879,-0.52647 c 1.7013,-0.58589 2.30589,-0.65098 2.49825,-0.26896 0.0713,0.14163 -0.15267,1.3901 -0.49776,2.77439 -0.34509,1.38426 -0.77731,3.80099 -0.9605,5.37051 -0.31698,2.71587 -0.36423,2.85443 -0.9789,2.87011 -0.95031,0.0243 -1.27875,0.3867 -1.27875,1.41109 0,0.5786 0.20563,1.09131 0.55984,1.39581 l 0.55986,0.48129 -0.6569,0.30653 c -0.3613,0.1686 -1.15473,0.47107 -1.7632,0.67216 -1.45266,0.48009 -2.57469,1.85685 -2.57469,3.15921 0,1.39172 0.61269,2.68743 1.63885,3.46581 1.28928,0.97799 1.37609,0.8184 0.32876,-0.60444 -1.23293,-1.67498 -1.29153,-3.04993 -0.15079,-3.53801 0.60335,-0.25814 0.74784,-0.47304 0.62844,-0.93472 -0.0852,-0.32972 -0.049,-0.59951 0.0807,-0.59951 0.49747,0 3.15791,1.19562 3.78807,1.70239 0.82349,0.66225 0.8833,2.12708 0.14734,3.60856 -0.49173,0.98985 -0.493,1.0305 -0.0322,1.0305 0.98262,0 5.28609,-3.81995 9.43715,-8.37684 2.12889,-2.33702 4.66731,-5.84391 4.43576,-6.12812 -0.0735,-0.0903 -1.34836,1.21649 -2.83297,2.90383 -1.65135,1.87683 -2.76797,2.9315 -2.8762,2.71658 -0.22825,-0.45328 6.25799,-8.51936 7.04591,-8.76208 0.75981,-0.23404 1.75144,0.28542 2.98872,1.5656 l 0.98947,1.02379 -2.35631,1.2246 c -2.24084,1.16459 -2.43233,1.34317 -3.90771,3.64449 -0.85326,1.33093 -2.19323,3.99103 -2.97771,5.91132 -1.16495,2.85161 -1.47272,3.95003 -1.67946,5.99385 -0.26889,2.65828 -0.56761,3.67554 -1.07748,3.66943 -0.17262,-0.002 -0.94884,-0.21117 -1.72496,-0.46466 -1.52999,-0.49973 -2.00601,-0.23789 -1.53429,0.84393 0.58232,1.33546 2.72881,1.14045 5.9243,-0.53823 1.19681,-0.62872 2.7307,-1.28914 3.40864,-1.46758 1.09189,-0.2874 1.21628,-0.40433 1.08954,-1.02407 -0.18363,-0.89802 0.28374,-2.41877 0.74334,-2.41877 0.19463,0 0.56031,0.27999 0.81266,0.6222 0.25233,0.34222 0.85092,0.78105 1.33021,0.97519 0.78869,0.31947 1.09847,0.22668 3.26257,-0.97726 6.20838,-3.45385 6.3847,-3.59457 7.96131,-6.35429 0.6598,-1.15492 1.64839,-0.61822 2.4536,1.33206 0.36594,0.88632 0.61099,1.67821 0.54457,1.75973 -0.0664,0.0815 -0.90973,0.35083 -1.87401,0.59845 -2.15421,0.55319 -2.53655,0.94037 -1.18965,1.20471 0.55873,0.1096 1.1312,0.37901 1.27215,0.59856 0.43557,0.67848 0.61146,2.12606 0.33527,2.75943 -0.23277,0.53382 -0.47897,0.58406 -2.13754,0.43615 -1.51515,-0.13512 -2.15225,-0.0382 -3.32356,0.506 -1.99319,0.92593 -8.13839,5.51644 -9.41092,7.03 -0.87022,1.03507 -1.2128,1.23674 -2.06671,1.21661 -1.57409,-0.0371 -2.72068,-0.67066 -3.06054,-1.69115 l -0.29796,-0.89467 -0.29472,0.7501 c -1.26767,3.22633 -1.42244,3.8256 -1.2609,4.88245 0.16676,1.09102 0.17844,1.09933 1.54436,1.09933 0.78821,0 1.85951,0.2589 2.5071,0.6059 1.08034,0.57886 2.32922,0.80299 3.93804,0.70671 0.6409,-0.0383 0.72418,-0.1493 0.61902,-0.82452 -0.11173,-0.71738 -0.0257,-0.79603 1.06782,-0.97663 0.65415,-0.10799 1.86719,-0.399 2.69567,-0.64662 2.05424,-0.61396 2.57756,-0.57532 4.86368,0.35911 1.74674,0.71397 2.03102,0.94127 2.41303,1.92931 0.48535,1.25531 0.34593,2.56965 -0.3051,2.87627 -0.23064,0.10868 -0.87019,0.0498 -1.42122,-0.1307 -0.85542,-0.28024 -1.09505,-0.23824 -1.63942,0.28731 -0.35067,0.33856 -1.71301,0.96595 -3.02743,1.39424 -3.05018,0.99386 -4.7875,2.0345 -6.11347,3.66193 -1.29283,1.58677 -1.43616,3.03805 -0.4148,4.19981 0.89045,1.01286 5.72269,4.16577 10.33854,6.74563 3.78298,2.11435 3.92738,2.16652 6.07548,2.19448 2.76651,0.036 3.39834,0.39383 3.17996,1.80076 -0.28705,1.84929 -1.07088,3.40228 -1.71719,3.40228 -0.32391,0 -0.7265,-0.16884 -0.89463,-0.3752 -0.64743,-0.79463 -0.57774,0.0623 0.10858,1.33517 l 0.71994,1.33523 -0.73148,0.77225 c -1.09653,1.15762 -1.96416,0.90186 -2.61924,-0.7721 -0.29078,-0.74303 -0.69959,-1.56069 -0.90844,-1.81705 -0.20884,-0.25632 -2.58662,-1.51924 -5.28393,-2.80646 -2.69731,-1.28722 -5.83422,-2.81902 -6.9709,-3.40399 l -2.06672,-1.06359 1.03336,-0.23019 c 0.56835,-0.1266 1.49836,-0.24274 2.06671,-0.2581 1.98178,-0.0535 0.19232,-0.72827 -2.30612,-0.86954 -1.90867,-0.10788 -2.5119,-0.0256 -3.24817,0.44345 -0.81935,0.52197 -0.91163,0.7192 -0.9836,2.10244 -0.10826,2.08085 0.76667,3.84076 3.02062,6.07589 1.55708,1.54407 1.95204,1.77927 3.3947,2.02141 1.44964,0.24334 1.74342,0.41986 2.62138,1.57505 1.08288,1.42483 1.21074,2.20035 0.5629,3.41389 -0.67477,1.26394 -1.78007,1.82953 -2.75783,1.4112 -0.9273,-0.39675 -2.7581,-2.45914 -2.7581,-3.10698 0,-0.23649 -0.11625,-0.34179 -0.25834,-0.23401 -0.51944,0.39401 -0.26599,1.93366 0.4521,2.74638 1.31626,1.48974 4.05323,3.67097 6.45847,5.14708 1.31429,0.80659 2.38963,1.59982 2.38963,1.76274 0,0.70304 -1.28025,1.94042 -2.74784,2.65583 l -1.58532,0.7728 -0.16084,-1.48817 c -0.2378,-2.20022 -1.55967,-4.62852 -3.77284,-6.93081 -3.90651,-4.06379 -7.53328,-6.68747 -10.39549,-7.52033 -1.58316,-0.46069 -1.62731,-0.45577 -2.09324,0.23276 -0.40091,0.59247 -0.44919,1.02958 -0.30612,2.77229 0.56278,6.85537 3.58922,16.64188 6.17562,19.96992 1.69945,2.18677 2.35707,3.60879 1.88928,4.0853 -0.65066,0.66276 -1.85616,1.03072 -2.76166,0.84295 l -0.92715,-0.19226 0.1029,-1.98291 c 0.0989,-1.90603 0.0431,-2.12534 -1.43873,-5.65516 -2.15439,-5.13194 -3.91995,-8.18579 -6.70457,-11.59676 -1.31975,-1.61662 -2.40114,-3.11478 -2.40309,-3.32925 -0.002,-0.21448 -0.077,-0.72719 -0.16697,-1.13937 -0.14814,-0.67926 -0.11314,-0.71634 0.37405,-0.39633 0.7519,0.49387 1.64742,0.43968 2.32235,-0.14054 0.96434,-0.82901 0.65313,-1.06284 -1.16962,-0.87881 -1.69467,0.17113 -1.75914,0.15034 -2.28873,-0.73798 -0.83609,-1.40245 -0.97503,-2.25428 -0.50983,-3.12569 0.78064,-1.46227 0.32419,-2.44508 -0.48061,-1.03483 -0.25927,0.45431 -0.40216,1.40494 -0.40216,2.67544 0,1.08391 -0.18064,2.92677 -0.40144,4.09525 -0.22079,1.16847 -0.32374,2.35445 -0.22878,2.63551 0.095,0.28107 0.25072,1.29578 0.34613,2.25493 l 0.17347,1.74388 0.56057,-1.26828 0.56057,-1.26829 0.0113,3.72561 c 0.006,2.20417 0.1145,3.72558 0.2638,3.72558 0.13882,0 0.44576,-0.36219 0.6821,-0.80488 0.3462,-0.64852 0.40293,-1.31077 0.292,-3.40854 -0.13138,-2.48453 -0.12248,-2.54205 0.19458,-1.25721 0.38521,1.56101 1.63959,4.06553 2.57824,5.14785 0.80571,0.92901 0.82989,1.74969 0.0695,2.36042 -0.79337,0.63727 -2.66295,0.98224 -2.88911,0.53311 -0.33575,-0.66676 -0.64337,-0.3467 -0.9576,0.99632 -0.17341,0.74116 -0.33538,1.38603 -0.35991,1.43307 -0.0246,0.0471 -0.82213,-0.1358 -1.77242,-0.40629 -0.9503,-0.2705 -2.03053,-0.45167 -2.4005,-0.40259 -0.53639,0.0712 -0.72269,-0.0907 -0.91937,-0.79852 -0.20517,-0.73839 -0.12891,-1.10616 0.45334,-2.18602 0.60938,-1.13017 0.68581,-1.5393 0.59032,-3.15964 -0.0603,-1.02376 -0.26205,-2.03761 -0.44824,-2.25299 -0.2757,-0.31895 -0.31471,-0.22664 -0.21016,0.49734 l 0.12837,0.88897 -0.57142,-0.65887 -0.57142,-0.65886 -0.74409,3.41622 -0.74409,3.41623 -0.33253,-3.64633 c -0.18289,-2.00548 -0.51532,-4.32398 -0.73874,-5.15225 -0.35826,-1.32815 -1.1416,-2.45747 -1.70458,-2.45747 -0.21556,0 -3.58998,7.96744 -3.89434,9.19508 -0.13131,0.52963 -0.0155,1.4114 0.34906,2.65713 0.69391,2.37125 0.45333,3.23912 -0.98024,3.53636 -1.77841,0.36873 -1.83216,0.42601 -2.41427,2.57297 -0.56755,2.09326 -0.57257,2.47448 -0.088,6.69081 l 0.15491,1.34756 -0.86674,-0.0272 c -0.4767,-0.015 -1.20162,-0.15032 -1.61094,-0.30073 z m 11.39917,-27.3254 c 0.0702,-1.09885 -0.0111,-1.85329 -0.23634,-2.19138 -0.50346,-0.75589 -2.55781,-1.50971 -3.25352,-1.19384 -0.69784,0.31683 -0.76382,0.91675 -0.10092,0.91675 0.57748,0 1.13187,0.75398 1.58324,2.15322 0.18514,0.57391 0.568,1.4045 0.85082,1.84578 0.6807,1.06212 1.01961,0.61365 1.15662,-1.53053 z m -1.03184,-4.90366 c 1.49872,-0.2085 1.64272,-0.52014 0.82785,-1.7916 -0.66456,-1.03691 -2.03847,-1.53298 -3.15616,-1.13955 -0.45811,0.16126 -0.85884,0.29319 -0.89051,0.29319 -0.0316,0 0.18635,-0.50742 0.48449,-1.12762 0.29813,-0.62018 0.67203,-1.06192 0.83088,-0.98163 1.12694,0.56959 1.19302,0.57541 1.19302,0.10485 0,-1.80472 -4.14084,-3.15917 -5.14014,-1.68134 -0.22136,0.32735 -0.0587,0.54394 0.74072,0.98638 0.76685,0.42443 1.1,0.84825 1.32525,1.68595 0.26185,0.97379 0.24048,1.17323 -0.1647,1.53686 -0.51591,0.46301 -1.40688,2.01367 -1.40954,2.4532 -10e-4,0.26015 1.93359,0.13786 5.35884,-0.3387 z m 16.66286,-3.07934 c 0.24864,-0.23166 0.45208,-0.48978 0.45208,-0.57359 0,-0.26641 -2.87424,-0.95326 -3.05552,-0.7302 -0.24454,0.30093 1.18396,1.7473 1.71365,1.73509 0.24073,-0.005 0.64113,-0.19963 0.88979,-0.4313 z m -0.32646,-4.74497 c -0.0105,-1.02964 -0.35773,-1.78923 -0.81903,-1.78923 -0.3999,0 -0.46946,0.1473 -0.33688,0.7134 0.0919,0.39239 0.22193,0.95583 0.28898,1.25212 0.13221,0.58428 0.87287,0.43368 0.86693,-0.17629 z m -11.66319,-1.96269 c 0.1649,-0.44418 0.29981,-0.93345 0.29981,-1.08727 0,-0.27448 -2.79486,-1.12199 -2.97418,-0.9019 -0.17153,0.21052 1.72412,2.79676 2.04995,2.79676 0.17854,0 0.45953,-0.36341 0.62442,-0.80759 z m 18.12518,-0.40683 c 0,-0.14477 -0.2777,-1.10787 -0.61711,-2.14023 -0.60014,-1.82544 -1.68307,-3.12299 -2.13917,-2.5632 -0.2339,0.28707 0.99056,3.29462 1.74708,4.29126 0.52235,0.68815 1.0092,0.88699 1.0092,0.41217 z m -11.88358,-2.45003 c 0,-1.10695 -0.60234,-3.32904 -0.8729,-3.2202 -0.46337,0.18641 -0.48532,1.68507 -0.0402,2.74167 0.43816,1.03994 0.91305,1.28883 0.91305,0.47853 z m 16.2701,-7.42043 c 0.64783,-1.55856 0.65242,-1.9889 0.0287,-2.68176 -0.5567,-0.61834 -0.47886,-0.76346 -1.05294,1.96302 -0.4761,2.26118 0.18913,2.72796 1.02429,0.71874 z m -11.47806,-4.93433 c -0.94327,-1.70599 -0.89722,-3.33645 0.12401,-4.39113 0.85653,-0.88458 2.22457,-1.3301 3.0714,-1.00022 0.29729,0.1158 0.89356,0.57516 1.32506,1.02078 0.9888,1.02119 1.25218,0.75198 0.51218,-0.5235 -0.67612,-1.1654 -1.77214,-1.9159 -2.79795,-1.9159 -0.85165,0 -2.5668,1.40213 -3.22629,2.63747 -0.81622,1.52889 -0.3809,4.00554 0.89718,5.10425 0.81728,0.7026 0.84528,0.42629 0.0945,-0.93175 z m -2.46699,-15.21239 c 0,-0.96314 0.47188,-1.01805 1.36219,-0.15853 0.89132,0.86051 1.44192,0.79684 1.7515,-0.20251 0.14255,-0.46015 0.22685,-0.85254 0.18735,-0.87195 -0.0395,-0.0194 -0.76247,-0.46333 -1.60664,-0.98651 -1.233,-0.76415 -1.5918,-1.16454 -1.82456,-2.03599 -0.44627,-1.67082 -1.89873,-2.14278 -2.59288,-0.84251 -0.35256,0.66039 -0.36378,0.95678 -0.0802,2.11849 0.32889,1.34731 1.93912,3.7722 2.5049,3.7722 0.16408,0 0.29833,-0.3567 0.29833,-0.79269 z m -24.16651,-0.55487 c -0.28728,-1.16573 -1.40738,-3.57863 -2.22942,-4.80265 -1.01024,-1.50423 -1.8094,-1.50697 -2.95961,-0.0106 -0.47856,0.62278 -0.87011,1.24046 -0.87011,1.37261 0,0.13217 0.60961,0.58573 1.35469,1.00792 0.74507,0.42219 1.76228,1.21462 2.26045,1.76096 0.4982,0.54634 1.1383,1.06485 1.42247,1.15223 1.0608,0.32623 1.20385,0.25887 1.02153,-0.48095 z m 7.49896,-0.86264 c 0.0852,-0.16926 -0.0273,-0.7403 -0.25001,-1.26898 -0.40368,-0.95809 -0.40805,-0.95967 -1.33381,-0.48492 -0.51084,0.26196 -0.97273,0.47631 -1.02641,0.47631 -0.0537,0 -0.0976,0.19338 -0.0976,0.42973 0,0.71767 2.39571,1.46778 2.70786,0.84786 z m 7.51594,-1.66976 c 0.77081,-0.73885 1.40144,-1.46654 1.40144,-1.61707 0,-0.15053 -0.39525,-0.75881 -0.87835,-1.35173 -0.71781,-0.88102 -1.07507,-1.07805 -1.95469,-1.07805 -1.02179,0 -1.07222,0.0442 -0.99461,0.87195 0.0615,0.65589 0.2031,0.84624 0.57153,0.76816 0.44879,-0.0951 0.47787,0.0575 0.34741,1.82316 -0.0784,1.05984 -0.0865,1.92697 -0.0182,1.92697 0.0682,0 0.75474,-0.60454 1.52552,-1.34339 z m 33.04796,-0.37347 c 2.43579,-1.42045 3.01761,-1.99774 3.4632,-3.43615 0.22378,-0.72243 0.20019,-0.87138 -0.138,-0.87138 -0.87155,0 -4.16925,2.46669 -5.64729,4.22417 -1.44741,1.72106 -1.5003,1.83278 -0.77798,1.64292 0.42626,-0.11203 1.82129,-0.81384 3.10007,-1.55956 z m -36.9513,74.34795 c -1.73854,-0.51141 -1.74285,-0.56469 -0.29023,-3.58071 0.73283,-1.52154 1.39517,-2.77001 1.47184,-2.77438 0.16482,-0.01 2.83148,5.65374 2.83148,6.01312 0,0.5982 -2.43625,0.80581 -4.01309,0.34197 z m 25.49993,-9.77155 c -0.12749,-0.30518 -0.29953,-1.2942 -0.38232,-2.19782 -0.0827,-0.90362 -0.37954,-2.19389 -0.65945,-2.86728 -0.64952,-1.56261 -4.33424,-7.97241 -5.85071,-10.17767 -0.69264,-1.00723 -1.16073,-2.00456 -1.16073,-2.47305 0,-0.89007 0.5587,-2.35808 1.11192,-2.92161 0.55371,-0.56401 1.2171,0.673 4.68879,8.74304 3.01475,7.00787 3.04202,7.05739 4.49343,8.15771 2.42991,1.84212 2.31954,1.67465 1.58944,2.41123 -1.89685,1.91372 -3.37145,2.42399 -3.83037,1.32545 z m -56.87927,-3.79099 c -0.88023,-0.39493 -2.35595,-2.47353 -2.68742,-3.78533 -0.24239,-0.95921 0.45596,-1.6976 1.60794,-1.70012 0.52267,-10e-4 1.2837,-0.27186 1.69116,-0.60157 l 0.74085,-0.59946 -0.9651,-0.56208 c -0.8475,-0.49361 -1.93373,-2.04597 -1.9365,-2.76751 -0.002,-0.53981 1.29799,-1.80913 1.86026,-1.81628 1.06158,-0.0135 3.39428,-1.41087 5.30456,-3.17767 1.02842,-0.95118 1.87125,-1.89816 1.87296,-2.10438 0.003,-0.39652 0.98233,-0.90695 1.20808,-0.62986 0.25733,0.31585 -1.12283,2.41736 -2.42031,3.68529 -1.27527,1.24623 -3.92708,5.54044 -3.63942,5.8935 0.0786,0.0963 1.92726,-2.11435 4.10828,-4.91276 2.18102,-2.79842 4.03181,-5.08803 4.11288,-5.08803 0.2515,0 1.30138,2.87912 1.15553,3.16879 -0.0758,0.15056 -1.15333,1.23683 -2.39448,2.41389 -4.69915,4.45665 -6.52053,6.49144 -7.29597,8.1509 -0.42263,0.90443 -0.7695,2.00505 -0.77083,2.44582 -0.002,0.80145 -0.64808,2.23295 -0.98585,2.18576 -0.0985,-0.0137 -0.35348,-0.10326 -0.56662,-0.1989 z m 5.45039,-18.21357 c -0.66074,-2.32632 -0.18919,-3.44048 1.45611,-3.44048 0.84612,0 1.36035,0.50307 1.36035,1.3308 0,0.6752 -1.72261,3.1082 -2.20066,3.1082 -0.18271,0 -0.45981,-0.44933 -0.6158,-0.99852 z m 64.55944,-13.19061 c -0.21311,-0.0913 -0.85911,-0.76238 -1.43553,-1.4911 -0.74538,-0.94232 -1.41683,-1.4416 -2.32506,-1.72889 -3.12805,-0.98949 -4.76458,-1.65631 -4.76458,-1.9414 0,-0.44619 0.44019,-0.37955 2.32505,0.35186 1.38241,0.53645 2.22294,0.63532 4.75551,0.55935 3.6303,-0.10892 3.89115,0.0764 3.24738,2.3066 -0.40492,1.40274 -1.16156,2.21849 -1.80277,1.94358 z m -82.55101,-4.02809 c -0.51733,-0.63497 -0.63409,-1.0949 -0.63409,-2.49775 0,-2.32198 0.27714,-2.54078 2.19901,-1.73611 1.32265,0.55378 1.94013,0.62039 4.25946,0.45952 1.49191,-0.10347 4.0788,-0.54466 5.74866,-0.98037 2.54591,-0.6643 3.15068,-0.72952 3.7459,-0.40399 0.64229,0.35127 0.50862,0.39693 -1.40529,0.47997 -2.08649,0.0906 -2.11622,0.10336 -2.19589,0.95122 -0.0806,0.85709 -0.0883,0.86007 -2.79332,1.08528 -4.54084,0.37802 -4.79288,0.45969 -6.21982,2.01513 -0.70909,0.77295 -1.46504,1.40537 -1.67988,1.40537 -0.21485,0 -0.67597,-0.35023 -1.02474,-0.77827 z m 24.05885,-7.2485 c -0.46322,-0.41572 -0.43449,-0.45775 0.45232,-0.66195 0.52083,-0.11992 0.94681,-0.3186 0.94662,-0.44148 -5.2e-4,-0.25755 -2.47269,-1.65085 -2.92614,-1.64907 -0.16652,6.4e-4 -0.67093,0.27672 -1.12093,0.61349 l -0.81819,0.61231 -3.18607,-1.08622 c -1.75234,-0.59742 -3.35296,-1.08752 -3.55693,-1.08911 -0.20398,-10e-4 -0.63388,0.3004 -0.95534,0.67105 l -0.58449,0.67394 -1.18622,-0.85323 c -0.65242,-0.46926 -1.56915,-1.26587 -2.03719,-1.77023 -1.53203,-1.65097 -5.47644,-2.12911 -7.63752,-0.92583 -1.71635,0.95566 -1.92803,0.71718 -1.74478,-1.96552 0.0845,-1.23727 0.21733,-2.32773 0.29514,-2.42324 0.0778,-0.0955 1.15877,0.41702 2.40212,1.13894 3.73953,2.17135 7.31657,2.63197 17.11508,2.20392 0.78147,-0.0342 2.33268,0.19584 3.44711,0.51109 1.77163,0.50113 2.00983,0.65026 1.89551,1.18676 -0.0999,0.46921 0.11009,0.76441 0.89265,1.2544 0.56287,0.35244 1.08676,0.84348 1.16422,1.09121 0.0774,0.24773 -0.13317,1.06171 -0.46804,1.80884 -0.66855,1.49162 -1.51714,1.88234 -2.38893,1.09993 z m 64.70432,-1.32021 c -1.20111,-0.61403 -2.24738,-1.12593 -2.32503,-1.13757 -0.39267,-0.0589 4.60367,-2.16657 5.17061,-2.18122 1.075,-0.0278 1.7925,1.04909 1.7925,2.69034 0,1.17166 -0.0832,1.41448 -0.48438,1.41448 -0.26642,0 -0.81862,0.0743 -1.22711,0.16518 -0.50192,0.11169 -1.45079,-0.19678 -2.92659,-0.95121 z m -58.60327,-2.76518 c -0.51451,-0.63148 -0.3528,-1.36387 0.46501,-2.10595 l 0.77501,-0.70327 v 0.94199 c 0,0.5181 0.13197,1.04209 0.29324,1.16445 0.18936,0.14362 0.0749,0.37092 -0.32292,0.64162 -0.77043,0.52412 -0.83066,0.52716 -1.21034,0.0611 z m 63.37053,-2.38758 c -0.86707,-0.39825 -1.4283,-0.41733 -3.48758,-0.11851 -3.3412,0.48481 -4.39177,0.4602 -4.39177,-0.10293 0,-0.44745 0.57643,-0.64252 4.24882,-1.43778 0.84494,-0.18296 2.01511,-0.61718 2.60037,-0.96491 0.58526,-0.34774 1.25724,-0.63224 1.49326,-0.63224 0.55945,0 1.1174,1.12445 1.29798,2.61585 0.16523,1.36453 -0.0301,1.43555 -1.76108,0.64046 z M 265.7953,570.038 c -0.65878,-0.41424 -1.69948,-2.95342 -1.32646,-3.23638 0.12074,-0.0916 0.44827,0.3093 0.72784,0.89088 0.27956,0.58155 0.7112,1.43743 0.95919,1.90196 0.51252,0.96006 0.49504,0.98159 -0.36057,0.44354 z m -5.06761,-2.05563 c 0.25177,-1.23122 0.36718,-1.28217 0.90865,-0.40113 0.57251,0.93153 0.45778,1.27242 -0.42821,1.27242 -0.58937,0 -0.63988,-0.0916 -0.48044,-0.87129 z m -4.19883,-1.17971 c -0.42745,-0.44146 -1.02948,-0.80265 -1.33782,-0.80265 -0.30836,0 -2.58657,-0.81355 -5.06269,-1.80789 -4.47939,-1.79881 -4.50971,-1.80596 -6.0234,-1.42223 -1.7403,0.44117 -2.30336,0.27758 -2.62567,-0.76288 -0.33772,-1.09019 0.39,-3.80994 1.19197,-4.45488 0.63748,-0.51265 0.66278,-0.49698 1.99191,1.23343 0.74042,0.96398 1.7055,1.9747 2.14463,2.24605 1.19434,0.73804 5.44571,2.22504 9.66431,3.38026 2.06025,0.56418 3.89123,1.16978 4.06884,1.34578 0.6047,0.59923 0.34222,0.95152 -0.555,0.74494 -0.64309,-0.14808 -1.11893,-0.0276 -1.7789,0.45028 l -0.90096,0.65245 z m 61.16955,-11.05223 c 0,-0.68119 0.99498,-1.60783 3.84908,-3.58468 2.73138,-1.89187 3.78125,-2.91783 4.94601,-4.83336 0.84848,-1.39538 1.90161,-1.46108 2.7398,-0.17093 0.32131,0.49455 0.55005,0.94108 0.50834,0.99228 -0.0417,0.0512 -0.43522,-0.0607 -0.87445,-0.24859 -1.05352,-0.45076 -1.71448,-0.006 -2.38274,1.60107 -0.53511,1.28735 -1.2108,1.94309 -5.05435,4.90493 -2.23137,1.71951 -3.73169,2.25796 -3.73169,1.33928 z m -55.95021,-6.26934 c -3.87774,-4.42334 -5.48789,-5.84497 -7.1393,-6.30346 -0.75131,-0.20858 -1.56947,-0.44775 -1.81813,-0.53148 -0.50259,-0.16922 -0.59163,-1.20311 -0.20976,-2.43582 0.27814,-0.89791 1.53973,-2.42974 2.00109,-2.42974 0.66245,0 1.65728,1.50298 2.08666,3.15247 0.42435,1.63023 0.66346,1.94687 4.32428,5.72653 3.75715,3.87914 4.46632,4.94895 3.81251,5.75139 -0.14175,0.17398 -1.35875,-0.99231 -3.05735,-2.92989 z m -3.13988,0.20727 c -1.48294,-1.0631 -1.60316,-1.55241 -0.41725,-1.69819 1.0424,-0.12813 1.97134,0.80603 1.85583,1.86629 l -0.0872,0.80067 z m 28.60612,0.14097 -0.90419,-0.93416 1.48545,-0.009 c 0.91615,-0.005 1.48543,-0.14403 1.48543,-0.36211 0,-0.19446 -0.41708,-0.82247 -0.92685,-1.39557 l -0.92687,-1.042 1.20022,-8.03732 c 1.58146,-10.5902 1.65543,-11.71138 0.91263,-13.83067 -0.79643,-2.27223 -0.54231,-2.60906 1.9684,-2.60906 1.04824,0 1.9059,0.12836 1.9059,0.28525 0,0.15688 -0.42624,1.61938 -0.94719,3.24999 -1.20092,3.7589 -1.33557,6.38869 -0.7513,14.67258 l 0.42323,6.00055 -0.66727,1.67389 c -0.75023,1.88205 -1.95098,3.29262 -2.79198,3.27984 -0.30879,-0.004 -0.96832,-0.4289 -1.46561,-0.94268 z m -14.85576,-4.47428 c -0.8356,-0.94536 -1.62601,-2.44711 -2.87638,-5.46517 -0.94828,-2.28886 -2.42277,-5.49859 -3.27667,-7.13269 -1.31178,-2.51042 -1.72609,-3.06242 -2.67212,-3.56012 -1.70125,-0.89504 -1.39326,-1.84006 1.02813,-3.15467 1.82829,-0.99261 2.14019,-0.73355 2.32204,1.92873 0.0911,1.33284 0.40126,2.88788 0.77345,3.87719 0.90049,2.39352 6.48792,12.6748 7.15569,13.16698 0.54226,0.39968 0.5472,0.44406 0.1148,1.0305 -0.67663,0.91763 -1.294,0.75164 -2.56894,-0.69075 z m 30.92146,-0.0616 -0.82769,-1.04809 0.72655,-0.85434 c 0.3996,-0.46989 0.92773,-0.85433 1.1736,-0.85433 0.58819,0 1.72057,0.92212 1.72057,1.40109 0,0.35918 -1.56045,2.40377 -1.83459,2.40377 -0.0719,0 -0.50323,-0.47165 -0.95844,-1.0481 z m 6.14207,-4.26286 c 0.51646,-0.76444 1.08643,-2.30326 1.59625,-4.30945 l 0.79295,-3.12044 0.93941,0.2163 c 0.51667,0.11897 1.0167,0.27494 1.11117,0.34659 0.26448,0.20062 -3.25422,6.6038 -4.05242,7.3744 -1.09003,1.05237 -1.27628,0.8084 -0.38736,-0.5074 z m -23.14918,-0.0699 c -0.0865,-0.5307 -0.3656,-1.02448 -0.6394,-1.13113 -0.45406,-0.17688 -0.48591,-0.59993 -0.48591,-6.45288 0,-7.06376 -0.19906,-8.29018 -1.69324,-10.43266 -0.48958,-0.70201 -0.89015,-1.41866 -0.89015,-1.59252 0,-0.45361 2.24066,-1.32696 3.40442,-1.32696 0.86696,0 0.98734,0.0919 0.98734,0.75273 0,0.41402 -0.30224,1.41647 -0.67165,2.22767 -0.69446,1.52502 -1.00889,4.62614 -0.49088,4.8415 0.88783,0.36913 1.93754,1.44816 1.93754,1.99165 0,0.34527 -0.36362,1.13607 -0.80806,1.75735 -0.8931,1.24843 -0.88843,1.00403 -0.11756,6.15475 0.38895,2.5989 0.33575,4.15233 -0.14219,4.15233 -0.13024,0 -0.30586,-0.42384 -0.39026,-0.94183 z m -12.56029,-2.94231 c -0.23385,-0.21799 -0.65763,-1.07064 -0.94173,-1.8948 -0.28411,-0.82416 -1.21085,-2.41447 -2.05944,-3.53401 -1.33864,-1.7661 -2.81606,-4.52138 -2.56765,-4.78851 0.4786,-0.51472 2.42718,-1.43509 3.03829,-1.43509 0.95155,0 1.22552,0.90676 0.81941,2.71196 -0.37679,1.67487 -0.004,3.42316 1.41793,6.65107 1.13639,2.57956 1.2085,3.14264 0.29319,2.28938 z m 42.67101,-2.22931 c -1.07664,-0.8905 -1.47749,-2.10855 -1.06213,-3.22741 0.41756,-1.12481 1.02604,-1.01049 2.76728,0.51985 l 1.50792,1.32531 -0.99225,1.05274 c -0.54572,0.57899 -1.07193,1.05272 -1.16933,1.05272 -0.0974,0 -0.57057,-0.32544 -1.05149,-0.72321 z m -16.59266,-5.86836 c -0.0761,-0.47279 -0.0696,-2.28063 0.0142,-4.01742 0.13161,-2.72624 0.23332,-3.25707 0.74423,-3.88413 0.32548,-0.39949 0.80051,-0.7232 1.05562,-0.71937 0.63641,0.01 2.6597,1.1638 2.6597,1.51729 0,0.15784 -0.39167,0.91657 -0.87038,1.68607 -0.47872,0.76948 -1.45418,2.49665 -2.16769,3.83812 -1.21575,2.28577 -1.30599,2.38503 -1.43563,1.57944 z m -1.15184,-1.93741 c -0.41559,-1.41636 -0.39914,-2.08939 0.0627,-2.55968 0.67068,-0.68317 0.81554,-0.21029 0.53147,1.73504 l -0.27779,1.90244 z"
       id="path1488"
       inkscape:connector-curvature="0" /><path
       style="fill:#004c91;stroke-width:0.28620282"
       d="m 165.34506,507.03462 c -0.0805,-0.15975 -0.0265,-0.67675 0.11964,-1.14888 0.14625,-0.47212 0.21086,-1.37585 0.14357,-2.00831 l -0.12234,-1.14989 0.29135,1.18903 c 0.39855,1.62651 0.71221,1.49214 0.7402,-0.31708 l 0.0233,-1.5061 0.25611,1.10976 c 0.14085,0.61037 0.49653,1.42706 0.79041,1.81489 0.47806,0.63089 0.48944,0.72627 0.10811,0.90586 -0.2344,0.11042 -0.61353,0.1125 -0.84248,0.004 -0.31129,-0.14662 -0.37422,-0.0616 -0.24958,0.33708 0.2478,0.7926 -0.89477,1.49086 -1.25828,0.76895 z m -7.05314,-0.67062 c -0.6916,-0.3412 -0.7345,-0.70843 -0.15177,-1.29887 0.60006,-0.60797 1.27568,-2.62917 1.62929,-4.87417 0.1648,-1.04633 0.47997,-2.59536 0.70037,-3.44228 0.38577,-1.48243 0.38033,-1.56488 -0.14586,-2.2107 -0.47785,-0.58647 -0.54658,-0.60218 -0.54658,-0.12477 0,0.35029 -0.2084,0.55165 -0.58126,0.56165 -0.87664,0.0235 -3.60684,3.90781 -3.50244,4.98298 0.13733,1.41456 0.57041,1.07778 1.34312,-1.04447 0.41086,-1.12841 0.84681,-2.05166 0.96877,-2.05166 0.12198,0 0.22177,-0.21402 0.22177,-0.47562 0,-0.26158 0.10939,-0.47559 0.24309,-0.47559 0.64688,0 0.45161,0.84727 -0.7455,3.23476 -0.96634,1.92723 -1.30595,2.91722 -1.30595,3.80683 0,1.28528 -0.33847,1.51134 -1.30869,0.87405 -0.66037,-0.43378 -0.63272,-1.10682 0.0704,-1.7112 0.56254,-0.4836 0.56339,-0.4964 0.0646,-0.97456 -0.27799,-0.26649 -0.70888,-0.62981 -0.95753,-0.8074 -0.63392,-0.45271 -0.56499,-0.74336 0.26778,-1.12916 0.48579,-0.22505 1.07385,-1.06478 1.80837,-2.58225 0.59869,-1.23683 1.0885,-2.32136 1.0885,-2.41008 0,-0.0887 -0.31969,-0.20646 -0.71044,-0.26165 -0.62424,-0.0881 -0.72841,-0.26571 -0.85867,-1.46367 -0.0815,-0.74986 -0.0506,-1.43745 0.0688,-1.528 0.11937,-0.0906 0.1583,-0.28131 0.0866,-0.42389 -0.0718,-0.14257 0.0426,-0.43555 0.25412,-0.65106 0.29299,-0.29843 0.47073,-0.30415 0.74578,-0.024 0.28604,0.29138 0.474,0.19169 0.90418,-0.47954 0.29869,-0.46605 0.54131,-1.2205 0.53912,-1.67656 -0.003,-0.65181 -0.0576,-0.72745 -0.25439,-0.35359 -0.22065,0.4191 -0.25089,0.41721 -0.25437,-0.0159 -0.002,-0.2703 0.13555,-0.66267 0.30605,-0.87194 0.24112,-0.29593 0.0976,-0.38049 -0.64585,-0.38049 -0.78363,0 -0.95585,0.11422 -0.95585,0.63415 0,0.34878 -0.14851,0.63414 -0.33002,0.63414 -0.18152,0 -0.59395,0.22689 -0.91651,0.50418 -0.44525,0.38276 -0.51826,0.60505 -0.30318,0.92313 0.22952,0.33944 0.0847,0.38626 -0.76277,0.24674 -1.82279,-0.30007 -6.66182,1.74219 -7.23328,3.05271 -0.4159,0.95379 -0.76032,0.82163 -1.19631,-0.45907 -0.40415,-1.18719 -0.87786,-1.2126 -0.89104,-0.0478 -0.007,0.63931 -0.0296,0.64893 -0.27995,0.12056 -0.46137,-0.97349 -0.0895,-1.54269 0.86569,-1.32508 0.68417,0.15585 1.38742,-0.1364 3.73293,-1.55123 1.78422,-1.07628 2.92746,-1.60509 2.98802,-1.38212 0.0624,0.22981 0.39712,0.0997 0.92037,-0.35749 0.49784,-0.43508 1.01417,-0.64391 1.30856,-0.52922 0.29817,0.11614 0.54119,0.0137 0.62823,-0.26465 0.21599,-0.69083 -0.0453,-0.83313 -1.53005,-0.83313 -1.10965,0 -1.43684,0.12912 -1.75936,0.69429 -0.47438,0.83123 -0.5471,0.76063 -0.76888,-0.74629 -0.1552,-1.05448 -0.12294,-1.14633 0.34937,-0.99473 0.2862,0.0919 0.72553,0.0577 0.97632,-0.076 0.25076,-0.13366 0.65211,-0.21362 0.89187,-0.17771 0.63608,0.0953 2.57813,-1.16202 3.20294,-2.07364 l 0.53881,-0.78611 -0.11229,0.93897 c -0.11106,0.92884 0.61598,2.27001 1.23055,2.27001 0.1421,0 0.0258,-0.28537 -0.25833,-0.63414 -0.6722,-0.82504 -0.65651,-1.74626 0.04,-2.34498 0.40871,-0.35136 0.6871,-0.3928 1.04767,-0.15596 0.27008,0.1774 0.62993,0.2655 0.79966,0.19576 0.16974,-0.0698 -0.0281,-0.34366 -0.43972,-0.60868 l -0.74831,-0.48185 0.68373,-0.21063 c 0.81385,-0.2507 0.84697,-0.51545 0.18901,-1.51096 l -0.49475,-0.74853 -0.63996,0.73659 c -0.35477,0.40834 -0.68121,0.58472 -0.73252,0.39579 -0.0633,-0.23299 -0.36218,-0.24589 -0.94487,-0.0408 -0.79167,0.27866 -0.84023,0.25331 -0.68261,-0.35623 0.11406,-0.44106 0.0752,-0.58466 -0.11807,-0.43796 -0.15828,0.12007 -0.62463,-0.076 -1.03633,-0.4359 -0.4117,-0.3598 -0.79845,-0.6542 -0.85944,-0.6542 -0.061,0 -0.58394,-0.53504 -1.1621,-1.18901 -1.18675,-1.34234 -3.58442,-2.93292 -4.42111,-2.93292 -0.64478,0 -0.6952,-0.27837 -0.20073,-1.10833 0.33839,-0.56799 0.40517,-0.54234 1.4519,0.55732 1.09542,1.15081 4.01471,2.63213 4.25333,2.15825 0.12716,-0.25251 -3.63991,-4.055 -4.68668,-4.73076 -0.31036,-0.20034 -0.79757,-0.36428 -1.08269,-0.36428 -0.74705,0 -0.92876,-0.57795 -0.40501,-1.28826 0.61764,-0.83763 0.92968,-0.75838 1.53531,0.38991 0.28416,0.53882 1.03981,1.3488 1.67919,1.79996 0.88872,0.62709 1.07319,0.68358 0.78323,0.23984 -0.34384,-0.52623 -0.33177,-0.56849 0.12919,-0.45246 0.29183,0.0736 0.49262,0.36317 0.4713,0.67999 -0.022,0.32623 0.29505,0.76099 0.77503,1.06296 0.44668,0.28101 1.14076,0.84757 1.5424,1.25901 0.88777,0.90942 1.29654,0.95859 1.08232,0.13014 -0.19741,-0.76338 0.71428,-1.98621 1.28163,-1.71901 0.55728,0.26247 0.48782,-0.31353 -0.11909,-0.98763 -0.28184,-0.31307 -0.85514,-1.31447 -1.27399,-2.22535 -0.41884,-0.91088 -1.23444,-2.15296 -1.81245,-2.7602 -1.00663,-1.05753 -1.03101,-1.12617 -0.57862,-1.62867 0.69935,-0.77678 1.00158,-0.64484 1.17881,0.51466 0.15699,1.02708 4.04276,6.88754 4.56677,6.88754 0.13217,0 0.24032,0.28537 0.24032,0.63415 0,0.65645 0.62324,0.87499 0.90418,0.31708 0.0878,-0.1744 0.32718,-0.31708 0.53194,-0.31708 0.48913,0 0.47871,1.08219 -0.0153,1.58536 -0.56693,0.57748 -0.47313,1.01025 0.19376,0.89401 0.55533,-0.0968 0.58038,-0.22862 0.56167,-2.95497 -0.0107,-1.56951 -0.0938,-3.6384 -0.18454,-4.59755 -0.16228,-1.71578 -0.15934,-1.726 0.18255,-0.63415 0.19113,0.61037 0.76767,2.10853 1.28122,3.32926 0.51354,1.22073 0.93428,2.39786 0.93498,2.61585 0.002,0.68255 0.37485,0.44147 1.47049,-0.95122 1.29005,-1.63984 2.10369,-3.56169 2.31718,-5.47342 0.1306,-1.16951 0.27434,-1.46801 0.78221,-1.62446 0.34223,-0.10549 0.66396,-0.13886 0.71498,-0.0743 0.23497,0.29725 -0.81462,4.28681 -1.22707,4.6642 -0.35721,0.32681 -0.39667,0.52509 -0.17097,0.85887 0.23233,0.3436 0.15815,0.47566 -0.35617,0.63411 -1.4815,0.45636 -1.84169,2.23869 -0.61524,3.0443 0.55057,0.36165 0.55117,0.35845 0.0917,-0.5023 -0.4452,-0.83392 -0.44484,-0.88265 0.009,-1.30543 0.63332,-0.58915 0.95301,-0.56639 1.6404,0.11677 0.49354,0.49051 0.53484,0.67897 0.27787,1.2683 -0.166,0.38068 -0.20847,0.69216 -0.0944,0.69216 0.64025,0 5.06947,-4.41459 5.55866,-5.54031 0.18643,-0.429 -0.14283,-0.23004 -0.99056,0.59859 l -1.26981,1.2412 1.41204,-1.79607 c 1.47862,-1.88076 1.90918,-2.09177 2.73659,-1.34114 0.4777,0.43336 0.45548,0.4787 -0.46858,0.95613 -1.45706,0.75282 -3.16103,3.80952 -3.51317,6.30217 -0.174,1.2316 -0.24445,1.32311 -1.01651,1.32026 -0.49614,-0.002 -0.82957,0.15747 -0.82957,0.39634 0,0.56611 1.17027,0.50581 2.9041,-0.14964 0.98597,-0.37272 1.48399,-0.72901 1.48545,-1.06274 0.003,-0.78778 0.27351,-0.92848 0.87142,-0.45409 0.48789,0.38712 0.74518,0.33632 2.226,-0.4395 0.9209,-0.48246 2.00005,-1.27117 2.39812,-1.75268 0.5892,-0.71271 0.79423,-0.8037 1.10279,-0.48939 0.64739,0.65943 0.4235,1.1051 -0.77299,1.53869 -1.29742,0.47017 -3.49809,2.07922 -3.49809,2.55768 0,0.17275 0.20345,0.2292 0.45211,0.12545 0.24864,-0.10368 -0.34986,0.47146 -1.33,1.27824 -1.84762,1.52082 -2.89783,1.83653 -3.17373,0.95408 -0.13394,-0.42839 -0.21617,-0.38924 -0.49942,0.23781 -0.63663,1.40928 -0.45995,2.07262 0.61139,2.29539 0.53281,0.11076 1.34659,0.28845 1.80836,0.3948 0.64718,0.14904 0.83961,0.0832 0.83961,-0.2871 0,-0.76554 2.81024,-1.06003 3.84549,-0.40296 1.03877,0.65927 1.15288,1.91831 0.15259,1.68361 -0.35861,-0.0841 -0.707,-0.0437 -0.77422,0.0897 -0.0672,0.13347 -0.71063,0.41594 -1.4298,0.62769 -1.47672,0.43481 -2.82742,1.65611 -2.82742,2.55658 0,1.12109 5.23707,4.4148 7.01964,4.4148 0.69221,0 1.05556,0.16147 1.16725,0.5187 0.21765,0.69612 -0.27093,1.56597 -0.81118,1.44423 -0.37124,-0.0837 -0.39074,0.003 -0.13282,0.5952 0.23891,0.54789 0.229,0.75024 -0.0474,0.96512 -0.54096,0.42073 -0.68323,0.34532 -1.04594,-0.55445 -0.26462,-0.65645 -0.94747,-1.12878 -3.17874,-2.19871 -1.56295,-0.74946 -2.58016,-1.372 -2.26047,-1.38345 0.3197,-0.0115 0.58126,-0.17093 0.58126,-0.35442 0,-0.20328 -0.52994,-0.2962 -1.35628,-0.23782 -1.28065,0.0905 -1.36101,0.14671 -1.44119,1.00814 -0.11168,1.19985 1.53091,3.36818 2.55152,3.36818 0.64063,0 1.53764,0.83236 1.53764,1.42683 0,0.14693 -0.18849,0.52277 -0.41887,0.83521 -0.37725,0.51164 -0.49042,0.52266 -1.13918,0.11088 -0.39617,-0.25145 -0.77977,-0.63854 -0.85244,-0.86019 -0.0851,-0.26003 -0.13933,-0.21615 -0.1525,0.12368 -0.0252,0.65094 1.2758,2.0253 2.74851,2.90347 0.6084,0.36278 1.10618,0.78074 1.10618,0.9288 0,0.14806 -0.37358,0.46198 -0.83016,0.69761 -0.82799,0.42729 -0.83103,0.42537 -1.1526,-0.72871 -0.38141,-1.36877 -1.9558,-3.12602 -4.02786,-4.49566 -1.68835,-1.116 -2.60211,-1.1427 -2.72526,-0.0796 -0.20702,1.78725 1.55899,7.69171 2.69098,8.99693 0.71886,0.82888 0.79073,1.40697 0.20897,1.68097 -0.591,0.27833 -0.79283,0.029 -0.95219,-1.17633 -0.18937,-1.43221 -2.16078,-5.42472 -3.30897,-6.70135 -1.11442,-1.23905 -1.51215,-2.21434 -0.78798,-1.93224 0.28434,0.11075 0.62237,-0.0263 0.83291,-0.33758 0.32002,-0.47329 0.27752,-0.5033 -0.43905,-0.31013 -1.00813,0.27176 -1.48398,-0.34451 -1.24098,-1.60716 0.13995,-0.72717 0.10919,-0.82804 -0.15846,-0.51975 -0.19742,0.22738 -0.37736,1.44213 -0.44365,2.99496 -0.0969,2.2702 -0.0618,2.5618 0.26768,2.22613 0.32685,-0.33293 0.3605,-0.18248 0.2437,1.08946 -0.10633,1.15786 -0.0594,1.4446 0.2177,1.33121 0.19427,-0.0795 0.41456,-0.44972 0.48952,-0.82275 0.12584,-0.62618 0.18073,-0.59466 0.7149,0.41043 0.56379,1.06078 0.56592,1.09703 0.0833,1.41403 -0.27243,0.17895 -0.66283,0.24645 -0.86759,0.15002 -0.22466,-0.1058 -0.42242,0.06 -0.49875,0.41833 -0.10226,0.48008 -0.31027,0.56732 -1.08715,0.456 -1.00661,-0.14423 -1.45263,-0.80518 -0.95528,-1.4156 0.40362,-0.49539 0.37917,-2.15602 -0.0303,-2.05551 -0.17761,0.0437 -0.51774,0.57867 -0.75586,1.18903 l -0.43293,1.10975 -0.023,-1.2683 c -0.0241,-1.33147 -0.47152,-2.72692 -0.93426,-2.9139 -0.49197,-0.19877 -1.71031,3.43058 -1.61859,4.82165 0.0723,1.09641 0.008,1.27603 -0.48324,1.36193 -0.71498,0.12488 -1.23022,1.8862 -0.99739,3.40951 0.17916,1.17213 9.5e-4,1.29741 -1.08406,0.76214 z m 4.97156,-11.72746 c -0.16867,-0.65224 -1.30821,-1.20035 -1.62519,-0.78169 -0.0999,0.13202 -0.0339,0.30473 0.14664,0.3838 0.1806,0.079 0.51358,0.58339 0.73997,1.12069 0.35667,0.84655 0.44424,0.90534 0.65617,0.44056 0.13449,-0.29498 0.17159,-0.8185 0.0824,-1.16336 z m 0.0257,-1.62779 c 0.23792,-0.4725 -0.66936,-1.29194 -1.23201,-1.11272 -0.27989,0.0892 -0.38641,-0.0106 -0.30154,-0.28187 0.0722,-0.23083 0.29599,-0.3421 0.49735,-0.24727 0.20137,0.0948 0.36613,0.0318 0.36613,-0.14008 0,-0.47814 -1.48167,-1.12482 -1.99749,-0.87179 -0.41623,0.20415 -0.40518,0.26703 0.12453,0.70891 0.57288,0.47792 0.80015,1.35877 0.35056,1.35877 -0.12688,0 -0.29761,0.21403 -0.3794,0.47561 -0.11973,0.38295 0.0984,0.47561 1.11964,0.47561 0.6976,0 1.35109,-0.16434 1.45223,-0.36517 z m 6.56342,-1.22019 c 0,-0.17439 -0.10675,-0.31708 -0.23722,-0.31708 -0.13047,0 -0.45016,-0.098 -0.71042,-0.21789 -0.41657,-0.19182 -0.43078,-0.15386 -0.11867,0.31706 0.38765,0.5849 1.06631,0.72359 1.06631,0.21791 z m -0.3606,-2.45071 c -0.26261,-0.32231 -0.47928,0.16294 -0.26382,0.59084 0.16276,0.32322 0.22361,0.32347 0.31112,10e-4 0.0599,-0.2203 0.0386,-0.48674 -0.0474,-0.59211 z m -4.677,-0.42937 c 0,-0.24704 -0.26815,-0.49583 -0.59589,-0.55286 -0.54367,-0.0946 -0.56646,-0.0459 -0.26035,0.55571 0.36507,0.71746 0.85624,0.71582 0.85624,-0.002 z m 7.23348,-0.92479 c -0.33636,-0.79835 -0.90419,-1.30551 -0.90419,-0.80759 0,0.5353 0.66246,1.75881 0.9523,1.75881 0.28731,0 0.27839,-0.17628 -0.0481,-0.95122 z m -4.70442,-0.63415 c -0.0743,-0.34878 -0.23781,-0.63413 -0.36332,-0.63413 -0.26692,0 -0.30661,0.7493 -0.056,1.0569 0.33868,0.41568 0.5521,0.2005 0.4193,-0.42277 z m 6.88163,-2.61583 c 0.12647,-0.40458 0.12473,-0.84153 -0.004,-1.00934 -0.28538,-0.372 -0.37903,-0.23735 -0.59173,0.85079 -0.20764,1.06228 0.27324,1.19025 0.59576,0.15855 z m -4.93445,-2.29254 c -0.28179,-0.75904 -0.26053,-0.92391 0.16886,-1.30926 0.58454,-0.5246 1.02768,-0.55504 1.69536,-0.11647 0.39921,0.26222 0.46477,0.23131 0.34203,-0.16127 -0.17228,-0.55105 -1.19848,-0.95372 -1.75843,-0.68998 -0.20516,0.0966 -0.56756,0.54007 -0.80532,0.98541 -0.4045,0.75773 -0.40415,0.86238 0.005,1.62991 0.55153,1.03311 0.7796,0.81382 0.35188,-0.33834 z m -0.92305,-5.95134 c 0.0837,-0.30535 0.21182,-0.29183 0.55789,0.0589 0.38782,0.39299 0.48024,0.39361 0.67615,0.004 0.15443,-0.30668 0.0863,-0.54118 -0.21345,-0.73399 -0.24221,-0.15585 -0.70664,-0.62162 -1.03209,-1.03505 -1.05373,-1.33864 -1.69481,-0.5973 -0.97036,1.12212 0.43407,1.03025 0.79976,1.24756 0.98186,0.58349 z m -10.23693,-0.79342 c -0.20223,-0.47999 -0.60992,-1.14175 -0.90598,-1.4706 -0.44138,-0.49025 -0.60891,-0.52594 -0.93062,-0.19823 -0.2158,0.21982 -0.38788,0.56055 -0.38241,0.75717 0.0129,0.46252 1.53274,1.71558 2.12798,1.75442 0.41793,0.0272 0.42603,-0.0477 0.0911,-0.84276 z m 3.10869,-0.21805 c -0.0872,-0.27866 -0.31984,-0.40456 -0.5486,-0.29681 -0.53176,0.25043 -0.50354,0.6779 0.0548,0.83032 0.58465,0.15961 0.67872,0.058 0.4938,-0.53351 z m 3.95443,-0.88366 c 0.004,-0.12677 -0.28849,-0.46901 -0.651,-0.76055 -0.53186,-0.4277 -0.71889,-0.45207 -0.96877,-0.1262 -0.24096,0.31425 -0.23801,0.43607 0.0133,0.54916 0.1776,0.0799 0.32291,0.49681 0.32291,0.92638 0,0.77296 0.006,0.77514 0.63773,0.21139 0.35075,-0.31333 0.64138,-0.67341 0.64585,-0.80018 z m -2.39582,31.24015 c -0.25651,-0.0815 -0.42715,-0.24341 -0.37922,-0.35955 0.048,-0.11615 0.24741,-0.60355 0.44328,-1.08313 0.44935,-1.10027 0.57273,-1.0916 1.13657,0.0799 0.66788,1.38768 0.27593,1.83254 -1.20063,1.36276 z m 10.67078,-4.67262 c 0,-0.66882 -1.12391,-2.95687 -2.92361,-5.95189 -0.42511,-0.70745 -0.45818,-0.94419 -0.18778,-1.34407 0.18052,-0.26695 0.42494,-0.41199 0.54317,-0.32231 0.11823,0.0896 0.81267,1.51982 1.54317,3.17807 0.73446,1.66721 1.67056,3.32568 2.09405,3.70996 0.70602,0.64065 0.73068,0.7265 0.31573,1.09891 -0.74923,0.67239 -1.38473,0.50319 -1.38473,-0.36867 z m -24.25207,-1.62782 c -0.59571,-0.92952 -0.51911,-1.40441 0.22656,-1.40441 0.66719,0 0.94156,-0.65308 0.42377,-1.00873 -0.76109,-0.52276 -0.50824,-1.46941 0.48212,-1.80504 0.49825,-0.16885 1.37015,-0.75828 1.93754,-1.30984 1.3726,-1.33427 1.30879,-0.92254 -0.13087,0.84441 -0.63939,0.78476 -1.16253,1.5898 -1.16253,1.78898 0,0.19918 0.75953,-0.56117 1.68785,-1.68966 1.37205,-1.66791 1.73383,-1.96282 1.93359,-1.5762 0.13515,0.26159 0.24097,0.54695 0.23515,0.63415 -0.006,0.0872 -0.90501,1.01767 -1.99818,2.06771 -1.42135,1.36529 -2.06977,2.2194 -2.27613,2.99812 -0.37072,1.39908 -0.68836,1.50673 -1.35887,0.46051 z M 152.2,492.84616 c -0.0949,-0.11664 -0.17279,-0.47366 -0.17279,-0.79338 0,-0.40867 0.19179,-0.5813 0.64585,-0.5813 0.35522,0 0.64585,0.12058 0.64585,0.26794 0,0.4241 -0.92757,1.34158 -1.11891,1.10674 z m 26.14266,-6.25369 c -0.37455,-0.40463 -1.17477,-0.83258 -1.77829,-0.95103 -0.60351,-0.11845 -1.03907,-0.28681 -0.96791,-0.37415 0.0712,-0.0873 0.68764,-0.005 1.36997,0.18244 0.68232,0.18768 1.57845,0.25016 1.99138,0.13884 0.70023,-0.18876 0.74511,-0.14328 0.66663,0.67558 -0.10971,1.14489 -0.44618,1.23106 -1.28178,0.32832 z m -33.88864,-1.49301 c -0.24557,-1.15253 0.034,-1.56193 0.81378,-1.19154 0.40059,0.1903 1.41758,0.24099 2.43224,0.12124 1.03544,-0.12221 1.74379,-0.0847 1.74379,0.0924 0,0.16399 -0.69317,0.3597 -1.54036,0.43491 -0.95112,0.0844 -1.72477,0.3416 -2.02246,0.67226 -0.65524,0.72778 -1.25599,0.67339 -1.42699,-0.12922 z m 10.32531,-2.42745 c -0.0945,-0.1878 -0.0259,-0.4087 0.15259,-0.4909 0.19128,-0.088 0.0593,-0.27911 -0.32132,-0.46522 -0.37442,-0.18307 -0.82422,-0.20122 -1.07028,-0.0431 -0.26186,0.16818 -0.93717,0.0857 -1.76297,-0.21529 -0.95748,-0.34897 -1.43282,-0.39183 -1.66968,-0.15056 -0.24347,0.248 -0.59738,0.11553 -1.33691,-0.50043 -1.04455,-0.87 -2.55618,-1.13844 -3.65411,-0.6489 -0.5253,0.23421 -0.58126,0.16197 -0.58126,-0.7504 0,-1.11156 -0.0629,-1.10784 2.06671,-0.12281 0.84641,0.39151 2.07572,0.55164 4.52092,0.58888 3.22792,0.0492 3.38612,0.0829 4.07178,0.87052 0.70351,0.80808 0.70676,0.8294 0.23492,1.54458 -0.29982,0.45445 -0.54264,0.59771 -0.65039,0.38373 z m 27.02144,-0.50033 c -1.0892,-0.39449 -1.06066,-0.70778 0.10761,-1.181 0.83585,-0.33857 0.98769,-0.31571 1.29169,0.19454 0.18947,0.31803 0.34449,0.67701 0.34449,0.79772 0,0.40051 -0.89237,0.49709 -1.74379,0.18874 z M 157.194,480.53249 c 0,-0.26158 0.11626,-0.4756 0.25834,-0.4756 0.14209,0 0.25833,0.21402 0.25833,0.4756 0,0.2616 -0.11624,0.47562 -0.25833,0.47562 -0.14208,0 -0.25834,-0.21402 -0.25834,-0.47562 z m 23.27947,-0.82134 c 0.19719,-0.15329 0.62384,-0.28088 0.94811,-0.28354 0.32425,-0.002 0.99195,-0.21123 1.48378,-0.46344 0.82539,-0.42328 0.91424,-0.41268 1.15422,0.1377 0.143,0.32794 0.25984,0.64131 0.25963,0.69637 -2e-4,0.055 -0.94625,0.12069 -2.10233,0.14586 -1.29404,0.0281 -1.96415,-0.0614 -1.74341,-0.23295 z m -25.86286,-0.92254 c -0.15208,-0.34879 -0.21838,-0.63415 -0.14735,-0.63415 0.0711,0 0.25361,0.28536 0.40569,0.63415 0.15208,0.34877 0.21839,0.63414 0.14735,0.63414 -0.0711,0 -0.2536,-0.28537 -0.40569,-0.63414 z m -1.80837,-0.3358 c 0,-0.18468 0.11625,-0.2476 0.25834,-0.13982 0.14209,0.10776 0.25834,0.25889 0.25834,0.33579 0,0.077 -0.11625,0.13983 -0.25834,0.13983 -0.14209,0 -0.25834,-0.15111 -0.25834,-0.3358 z m -1.89697,-0.51278 c -0.38371,-0.47095 -3.98314,-1.67977 -5.01359,-1.68375 -0.88577,-0.003 -1.09795,-0.11503 -1.09795,-0.5778 0,-0.31544 0.16863,-0.85051 0.37473,-1.18902 0.36906,-0.60618 0.38064,-0.60532 0.76608,0.0566 0.54075,0.92865 1.67568,1.52057 4.54265,2.36919 1.95942,0.57997 2.32401,0.77176 1.80837,0.95121 -0.88645,0.30852 -1.17627,0.32396 -1.38029,0.0737 z m 28.60113,-3.79396 c 0.70951,-0.93913 1.45479,-0.83997 1.45479,0.19357 0,0.54114 -0.16687,0.6441 -1.04382,0.6441 h -1.04381 z m -2.79265,-0.71757 c -0.0823,-0.16351 0.52593,-0.80101 1.35169,-1.41669 0.82576,-0.61565 1.71689,-1.41163 1.98026,-1.76883 0.53622,-0.72724 1.04999,-0.8348 1.33012,-0.27851 0.12475,0.24774 0.0471,0.30519 -0.23359,0.17296 -0.26476,-0.1247 -0.59126,0.0659 -0.88198,0.51472 -0.25389,0.392 -0.98472,1.14598 -1.62412,1.67552 -1.66261,1.37695 -1.75631,1.43061 -1.92238,1.10083 z m -23.96947,-3.19302 c -0.9501,-1.01951 -2.08137,-1.94908 -2.51395,-2.06571 -0.52079,-0.14038 -0.78649,-0.40461 -0.78649,-0.78214 0,-1.3466 1.44165,-1.56613 1.59951,-0.24356 0.0438,0.3672 0.79478,1.38959 1.66877,2.27196 1.42792,1.44159 2.05015,2.31654 1.83512,2.58046 -0.0415,0.051 -0.85288,-0.74147 -1.80296,-1.76101 z m 11.03736,0.62631 c -0.0882,-0.1749 0.0968,-0.31706 0.41231,-0.31706 0.52331,0 0.53829,-0.0472 0.17608,-0.55489 -0.35679,-0.50007 -0.33768,-0.96173 0.19355,-4.67513 0.38146,-2.66645 0.50702,-4.30928 0.35584,-4.65597 -0.39748,-0.91155 -0.26342,-1.21154 0.54143,-1.21154 0.89484,0 0.92086,0.12829 0.36011,1.77547 -0.34049,1.00019 -0.38218,1.86139 -0.23249,4.80203 0.15428,3.03051 0.11774,3.70442 -0.2369,4.36872 -0.4245,0.79517 -1.27726,1.04958 -1.56993,0.46837 z m -6.24932,-1.98169 c -0.28973,-0.39238 -0.95599,-1.72966 -1.48059,-2.97175 -0.96218,-2.27814 -1.64666,-3.39983 -2.26623,-3.71377 -0.44375,-0.22485 0.46987,-1.16202 1.13282,-1.16202 0.36044,0 0.46731,0.24987 0.46731,1.09261 0,0.8172 0.42325,1.86953 1.6792,4.17506 0.92356,1.69534 1.67921,3.12988 1.67921,3.18787 0,0.37483 -0.77207,-0.0126 -1.21172,-0.608 z m 13.10708,0.2552 c -0.35705,-0.52801 -0.15733,-1.12715 0.37574,-1.12715 0.53336,0 0.64088,0.41402 0.26943,1.0375 -0.28793,0.4833 -0.37117,0.49486 -0.64517,0.0896 z m -7.24527,-1.91982 c 0,-0.26159 -0.0872,-0.47594 -0.19374,-0.47633 -0.10657,-3.8e-4 -0.19658,-1.27726 -0.20001,-2.83746 -0.005,-2.41498 -0.0904,-2.9765 -0.57255,-3.77685 l -0.56632,-0.94013 0.7606,-0.32543 c 0.88009,-0.37655 1.18298,-0.0375 0.78396,0.87759 -0.40447,0.92761 -0.32671,1.96702 0.18182,2.43045 0.38603,0.35178 0.40327,0.51006 0.11797,1.08314 -0.23325,0.46854 -0.28168,1.24016 -0.16039,2.55589 0.0957,1.03659 0.10063,1.88472 0.0111,1.88472 -0.0894,0 -0.16255,-0.21401 -0.16255,-0.47559 z m 9.71863,0.14012 c 0.15908,-0.25146 0.42968,-0.99226 0.6013,-1.64622 0.17161,-0.65397 0.47741,-1.18903 0.67951,-1.18903 0.20211,0 0.36748,0.0742 0.36748,0.16484 0,0.33916 -1.28367,2.64504 -1.60415,2.88156 -0.25705,0.1897 -0.26715,0.14134 -0.0441,-0.21115 z m -15.17194,-1.9633 c -0.16759,-0.39237 -0.71129,-1.27127 -1.20822,-1.95309 -0.85333,-1.1708 -0.87722,-1.26328 -0.43003,-1.66463 0.80636,-0.72367 1.14977,-0.51536 1.14977,0.69744 0,0.61731 0.23487,1.68742 0.52192,2.37805 0.28707,0.6906 0.46554,1.25565 0.39661,1.25565 -0.0689,0 -0.26246,-0.32104 -0.43005,-0.71342 z m 18.04459,-0.27773 c -0.52831,-0.36288 -0.60628,-1.54543 -0.10193,-1.54543 0.19111,0 0.5428,0.2649 0.78153,0.58867 0.34906,0.4734 0.36902,0.65497 0.10194,0.92705 -0.22067,0.22476 -0.48303,0.23473 -0.78155,0.0297 z m -15.14822,-0.25218 c -0.0146,-0.24785 -0.21949,-0.71244 -0.45542,-1.03242 -0.50292,-0.68206 -0.46024,-0.76814 0.53262,-1.07399 0.58202,-0.17928 0.70198,-0.13828 0.53951,0.18436 -0.11491,0.22821 -0.29473,0.85541 -0.39959,1.3938 -0.1049,0.5384 -0.20258,0.77611 -0.21712,0.52825 z m 8.2404,-3.42108 c 0,-1.87797 0.43425,-2.55732 1.27968,-2.00199 0.53098,0.34877 0.52743,0.37182 -0.28369,1.84516 -0.45176,0.82059 -0.86067,1.55143 -0.90868,1.62409 -0.048,0.0727 -0.0873,-0.58761 -0.0873,-1.46726 z m -0.47589,-0.0918 c 0,-0.43596 0.0586,-0.61432 0.13031,-0.39633 0.0717,0.21799 0.0717,0.57468 0,0.79269 -0.0717,0.21798 -0.13031,0.0396 -0.13031,-0.39636 z"
       id="path1490"
       inkscape:connector-curvature="0" /></g></svg>