<?xml version="1.0" encoding="UTF-8" standalone="no"?>
<!-- Generator: Adobe Illustrator 16.0.3, SVG Export Plug-In . SVG Version: 6.00 Build 0)  -->

<svg
   xmlns:dc="http://purl.org/dc/elements/1.1/"
   xmlns:cc="http://creativecommons.org/ns#"
   xmlns:rdf="http://www.w3.org/1999/02/22-rdf-syntax-ns#"
   xmlns:svg="http://www.w3.org/2000/svg"
   xmlns="http://www.w3.org/2000/svg"
   xmlns:sodipodi="http://sodipodi.sourceforge.net/DTD/sodipodi-0.dtd"
   xmlns:inkscape="http://www.inkscape.org/namespaces/inkscape"
   version="1.1"
   id="Capa_1"
   x="0px"
   y="0px"
   width="562.61328"
   height="195.36491"
   viewBox="0 0 562.61329 195.36491"
   enable-background="new 0 0 841.891 1190.55"
   xml:space="preserve"
   sodipodi:docname="LOGO_ICANE_sin_texto_blanco.svg"
   inkscape:version="0.92.1 r15371"><metadata
     id="metadata35"><rdf:RDF><cc:Work
         rdf:about=""><dc:format>image/svg+xml</dc:format><dc:type
           rdf:resource="http://purl.org/dc/dcmitype/StillImage" /><dc:title></dc:title></cc:Work></rdf:RDF></metadata><defs
     id="defs33" /><sodipodi:namedview
     pagecolor="#ffffff"
     bordercolor="#666666"
     borderopacity="1"
     objecttolerance="10"
     gridtolerance="10"
     guidetolerance="10"
     inkscape:pageopacity="0"
     inkscape:pageshadow="2"
     inkscape:window-width="2048"
     inkscape:window-height="1088"
     id="namedview31"
     showgrid="false"
     inkscape:zoom="2"
     inkscape:cx="297.21931"
     inkscape:cy="54.33508"
     inkscape:window-x="1920"
     inkscape:window-y="27"
     inkscape:window-maximized="1"
     inkscape:current-layer="Capa_1" /><path
     d="M 140.95703 0 C 140.57403 0.065 140.19164 0.1735 139.80664 0.1875 C 132.68964 0.4495 125.69103 1.5125312 118.83203 3.3945312 C 97.049031 9.3735312 79.260203 21.356938 65.783203 39.460938 C 52.164203 57.755938 45.834359 78.437672 46.568359 101.26367 C 46.802359 108.50567 47.788172 115.63719 49.701172 122.61719 C 56.740172 148.29519 71.695656 168.06216 94.472656 181.78516 C 109.07666 190.58416 125.04375 195.24806 142.09375 195.28906 C 199.73075 195.42606 257.36595 195.33408 315.00195 195.33008 L 316.67969 195.33008 L 316.67969 85.185547 C 317.02169 85.499547 317.18373 85.615672 317.30273 85.763672 C 324.34073 94.664672 331.3732 103.57166 338.4082 112.47266 C 346.3602 122.53666 354.30767 132.59725 362.26367 142.65625 C 369.75167 152.11925 377.24638 161.5722 384.73438 171.0332 C 390.93238 178.8652 397.13555 186.69487 403.31055 194.54688 C 403.78555 195.15287 404.26763 195.3497 405.01562 195.3457 C 410.29463 195.3137 415.57647 195.33008 420.85547 195.33008 C 421.27947 195.33208 421.70481 195.33008 422.13281 195.33008 L 422.13281 4.1484375 L 382.04883 4.1484375 L 382.04883 113.69141 C 381.63583 113.22441 381.44734 113.02941 381.27734 112.81641 C 374.53834 104.34241 367.79755 95.870531 361.06055 87.394531 C 353.20355 77.512531 345.34828 67.624141 337.48828 57.744141 C 328.58128 46.551141 319.66867 35.366828 310.76367 24.173828 C 305.66467 17.765828 300.57014 11.352734 295.49414 4.9277344 C 295.00614 4.3097344 294.48369 4.0584531 293.67969 4.0644531 C 288.20069 4.1054531 282.71923 4.1129375 277.24023 4.0859375 C 276.52023 4.0819375 276.0842 4.3100469 275.6582 4.8730469 C 273.7542 7.3870469 271.80309 9.8692813 269.87109 12.363281 C 257.74009 28.029281 245.60647 43.690328 233.48047 59.361328 C 222.84547 73.102328 212.22575 86.855656 201.59375 100.59766 C 193.33075 111.27766 185.05402 121.94695 176.79102 132.62695 C 169.33602 142.26395 161.88608 151.90459 154.45508 161.55859 C 153.96308 162.19759 153.44563 162.4645 152.64062 162.4375 C 151.00262 162.3825 149.36366 162.40078 147.72266 162.42578 C 142.36766 162.51378 137.02463 162.30652 131.76562 161.22852 C 116.34062 158.06252 103.52141 150.48039 93.691406 138.15039 C 81.364406 122.68539 76.97875 105.00506 80.59375 85.664062 C 84.16675 66.548063 94.726719 51.972922 111.38672 41.919922 C 118.91672 37.375922 127.10552 34.610266 135.85352 33.572266 C 138.06052 33.309266 140.28119 33.149687 142.61719 32.929688 L 142.61719 31.675781 C 142.62319 23.596781 142.63172 15.5175 142.63672 7.4375 C 142.63772 4.9605 142.63672 2.4838594 142.63672 0.005859375 C 142.07672 0.005859375 141.51603 0.005 140.95703 0 z M 428.02734 3.6503906 C 426.95734 3.6483906 426.58252 3.8882031 426.60352 5.0332031 C 426.67152 9.3092031 426.67556 13.590187 426.60156 17.867188 C 426.57956 19.077187 426.88909 19.399438 428.12109 19.398438 C 464.86609 19.364438 501.61242 19.371094 538.35742 19.371094 L 539.70508 19.371094 L 539.70508 3.671875 L 538.14258 3.671875 L 504.07617 3.671875 C 478.72617 3.671875 453.37734 3.6773906 428.02734 3.6503906 z M 40.794922 4.1289062 C 27.999922 4.1689063 15.20225 4.1523438 2.40625 4.1523438 C 0.02225 4.1523438 0.022578125 4.1512187 0.017578125 6.4492188 C 0.017578125 6.5282188 0.013671875 6.6094531 0.013671875 6.6894531 C 0.049671875 16.003453 0.083046875 25.317859 0.12304688 34.630859 C 0.12404688 34.941859 0.16826563 35.252813 0.19726562 35.632812 C 14.272266 35.632813 28.208094 35.632766 42.246094 35.634766 L 42.246094 34.367188 C 42.246094 24.768187 42.224484 15.173172 42.271484 5.5761719 C 42.277484 4.4041719 41.931922 4.1259062 40.794922 4.1289062 z M 538.41211 25.861328 C 501.61911 25.862328 464.82425 25.867094 428.03125 25.871094 C 427.91125 25.871094 427.79183 25.885141 427.67383 25.869141 C 426.70983 25.743141 426.35609 26.094953 426.37109 27.126953 C 426.42609 31.325953 426.39258 35.523656 426.39258 39.722656 C 426.39258 41.457656 426.39458 41.457031 428.14258 41.457031 L 537.80273 41.457031 C 538.12173 41.457031 538.49205 41.558687 538.74805 41.429688 C 539.05605 41.273688 539.48723 40.926203 539.49023 40.658203 C 539.53423 35.786203 539.52148 30.914828 539.52148 25.923828 C 539.03948 25.896828 538.72411 25.862328 538.41211 25.861328 z M 0 41.609375 L 0 195.29492 L 42.195312 195.29492 L 42.195312 41.609375 L 0 41.609375 z M 427.76562 47.548828 C 426.74063 47.546828 426.47337 47.888469 426.48438 48.855469 C 426.52537 53.173469 426.54352 57.492594 426.47852 61.808594 C 426.45752 63.013594 426.78562 63.353609 428.01562 63.349609 C 443.60763 63.305609 459.19902 63.322313 474.79102 63.320312 C 475.21502 63.320312 475.64238 63.282719 476.10938 63.261719 L 476.10938 47.621094 C 475.65437 47.600094 475.33648 47.571312 475.02148 47.570312 C 459.26948 47.568313 443.51763 47.578828 427.76562 47.548828 z M 141.88477 56.230469 C 118.25403 56.727818 99.792156 75.914875 99.8125 99.144531 C 99.8345 123.51453 119.63228 142.15606 142.73828 142.03906 C 166.06428 142.21306 185.60375 123.26112 185.71875 99.453125 C 185.83675 75.265125 166.6605 56.919234 144.1875 56.240234 C 143.41491 56.216891 142.64705 56.214425 141.88477 56.230469 z M 276.0957 68.316406 C 276.1707 68.358406 276.24341 68.402312 276.31641 68.445312 C 276.31641 99.707312 276.31741 130.97012 276.31641 162.32812 L 205.14453 162.32812 C 228.88753 130.86712 252.4917 99.590406 276.0957 68.316406 z M 428.0293 69.056641 C 426.9763 69.053641 426.58056 69.288313 426.60156 70.445312 C 426.67556 74.604313 426.63086 78.762875 426.63086 82.921875 C 426.63086 84.676875 426.62933 84.677734 428.36133 84.677734 L 499.01953 84.677734 C 500.89953 84.677734 502.7792 84.649453 504.6582 84.689453 C 505.4302 84.706453 505.71027 84.452203 505.69727 83.658203 C 505.66127 81.458203 505.70498 79.259547 505.70898 77.060547 C 505.71398 74.473547 505.71094 71.887172 505.71094 69.076172 C 505.19094 69.076172 504.63789 69.077172 504.08789 69.076172 L 460.30078 69.076172 C 449.54378 69.076172 438.7863 69.086641 428.0293 69.056641 z M 428.14648 91.128906 C 426.98048 91.125906 426.5697 91.376484 426.5957 92.646484 C 426.6897 96.803484 426.6897 100.96509 426.5957 105.12109 C 426.5687 106.39109 426.98048 106.64862 428.14648 106.64062 C 435.18348 106.59562 442.21886 106.61719 449.25586 106.61719 C 475.04486 106.61719 500.83405 106.61819 526.62305 106.61719 C 528.27005 106.61719 528.27148 106.61291 528.27148 105.00391 C 528.27248 100.92591 528.27248 96.845578 528.27148 92.767578 C 528.27148 91.157578 528.27005 91.154297 526.62305 91.154297 L 477.44336 91.154297 C 461.01036 91.154297 444.57748 91.162906 428.14648 91.128906 z M 500.59375 113.22266 C 476.32375 113.24666 452.0503 113.24461 427.7793 113.22461 C 426.8103 113.22361 426.45475 113.49067 426.46875 114.51367 C 426.52475 118.75067 426.50091 122.99052 426.50391 127.22852 C 426.50591 128.83852 426.50334 128.83984 428.15234 128.83984 L 500.24805 128.83984 L 501.79297 128.83984 C 501.81897 128.34084 501.84961 128.0298 501.84961 127.7168 C 501.85161 123.3178 501.82309 118.91948 501.87109 114.52148 C 501.88209 113.53348 501.59475 113.22166 500.59375 113.22266 z M 427.5625 134.9375 C 426.5665 134.9355 426.36009 135.2835 426.37109 136.1875 C 426.41409 139.7465 426.39062 143.30233 426.39062 146.86133 L 426.39062 150.61133 L 493.44141 150.61133 C 493.44141 145.58133 493.43122 140.66977 493.44922 135.75977 C 493.45322 134.87477 492.89127 134.95703 492.32227 134.95703 C 470.73527 134.95703 449.1495 134.9645 427.5625 134.9375 z M 426.55078 156.88086 L 426.55078 172.41406 L 544.49805 172.41406 L 544.49805 156.88086 L 426.55078 156.88086 z M 426.5625 178.70703 L 426.5625 194.57227 C 426.9765 194.57227 427.2513 194.57127 427.5293 194.57227 C 472.1193 194.57227 516.71173 194.5718 561.30273 194.5918 C 562.27873 194.5938 562.62428 194.34027 562.61328 193.32227 C 562.56728 188.80227 562.59584 184.28563 562.58984 179.76562 C 562.58984 179.41963 562.53005 179.07403 562.49805 178.70703 L 426.5625 178.70703 z "
     id="path2"
     style="fill:#ffffff" /></svg>